<svg width="411" height="848" viewBox="0 0 411 848" fill="none" xmlns="http://www.w3.org/2000/svg">
<g clip-path="url(#clip0_2213_24654)">
<rect x="7" y="14" width="400" height="816" rx="40" fill="white"/>
<path fill-rule="evenodd" clip-rule="evenodd" d="M393 58C393 35.9 375.1 18 353 18H317.5C313.082 18 309.5 21.5817 309.5 26V27C309.5 39.2 299.7 49 287.5 49H123.5C111.3 49 101.5 39.2 101.5 27V26C101.5 21.5817 97.9183 18 93.5 18H58C35.9 18 18 35.9 18 58V790C18 812.1 35.9 830 58 830H353C375.1 830 393 812.1 393 790V58ZM58 0H353C385 0 411 26 411 58V790C411 822 385 848 353 848H58C26 848 0 822 0 790V58C0 26 26 0 58 0Z" fill="#F2F2F2"/>
<path opacity="0.6" fill-rule="evenodd" clip-rule="evenodd" d="M139 817C139 815.619 140.119 814.5 141.5 814.5H270.5C271.881 814.5 273 815.619 273 817C273 818.381 271.881 819.5 270.5 819.5H141.5C140.119 819.5 139 818.381 139 817Z" fill="#333333"/>
<path d="M257.5 27C257.5 30.866 254.366 34 250.5 34C246.634 34 243.5 30.866 243.5 27C243.5 23.134 246.634 20 250.5 20C254.366 20 257.5 23.134 257.5 27Z" fill="#4F4F4F"/>
<path d="M183 24C181.343 24 180 25.3431 180 27C180 28.6569 181.343 30 183 30H227C228.657 30 230 28.6569 230 27C230 25.3431 228.657 24 227 24H183Z" fill="#4F4F4F"/>
<path d="M97.1981 289.198C95.2541 289.198 94.2461 288.172 94.2461 286.354C94.2461 284.446 95.2001 283.492 98.0261 283.492H100.006V282.646C100.006 281.296 99.5021 280.792 97.8101 280.792C96.6941 280.792 95.6501 281.152 94.9841 281.602V279.946C95.6681 279.604 96.8381 279.334 98.0261 279.334C100.636 279.334 101.59 280.288 101.59 282.682V289H100.168L100.078 287.38C99.6461 288.37 98.7281 289.198 97.1981 289.198ZM97.6121 287.794C99.0881 287.794 100.006 286.876 100.006 285.256V284.608H98.1341C96.4061 284.608 95.8661 285.148 95.8661 286.282C95.8661 287.272 96.3881 287.794 97.6121 287.794ZM106.651 289.108C105.049 289.108 104.329 288.352 104.329 286.732V275.446H105.913V286.426C105.913 287.362 106.201 287.614 106.939 287.614C107.353 287.614 107.821 287.452 108.001 287.362V288.838C107.821 288.91 107.299 289.108 106.651 289.108ZM112.329 289.108C110.727 289.108 110.007 288.352 110.007 286.732V275.446H111.591V286.426C111.591 287.362 111.879 287.614 112.617 287.614C113.031 287.614 113.499 287.452 113.679 287.362V288.838C113.499 288.91 112.977 289.108 112.329 289.108ZM126.502 289L126.394 287.398C125.98 288.334 125.098 289.198 123.424 289.198C120.976 289.198 119.734 287.848 119.734 284.176C119.734 280.81 121.03 279.334 123.352 279.334C124.918 279.334 125.98 280.018 126.394 281.098V275.446H127.978V289H126.502ZM121.354 284.176C121.354 286.876 122.218 287.74 123.874 287.74C125.404 287.74 126.394 286.732 126.394 284.824V283.618C126.394 281.908 125.584 280.792 123.802 280.792C122.182 280.792 121.354 281.674 121.354 284.176ZM134.564 289.198C131.81 289.198 130.352 287.722 130.352 284.266C130.352 280.918 131.936 279.334 134.564 279.334C137.372 279.334 138.776 280.738 138.776 284.266C138.776 287.722 137.282 289.198 134.564 289.198ZM134.564 287.74C136.292 287.74 137.156 286.876 137.156 284.266C137.156 281.656 136.292 280.792 134.564 280.792C132.908 280.792 131.972 281.728 131.972 284.266C131.972 286.876 132.836 287.74 134.564 287.74ZM145.099 289.198C142.075 289.198 140.617 287.74 140.617 284.176C140.617 280.864 142.147 279.334 144.973 279.334C146.251 279.334 147.133 279.64 147.457 279.784V281.494C146.917 281.116 146.089 280.792 145.099 280.792C143.227 280.792 142.237 281.782 142.237 284.176C142.237 286.714 143.263 287.74 145.279 287.74C146.161 287.74 147.115 287.398 147.619 286.984V288.622C147.277 288.82 146.413 289.198 145.099 289.198ZM152.724 289.198C150.69 289.198 149.61 288.172 149.61 285.634V279.532H151.194V285.112C151.194 287.11 151.806 287.74 153.264 287.74C154.74 287.74 155.64 286.84 155.64 285.112V279.532H157.224V289H155.748L155.64 287.398C155.118 288.478 154.236 289.198 152.724 289.198ZM160.142 289V279.532H161.618L161.726 281.098C162.212 279.928 163.04 279.334 164.354 279.334C165.794 279.334 166.604 280.072 166.838 281.278C167.36 279.82 168.278 279.334 169.646 279.334C171.302 279.334 172.346 280.378 172.346 282.7V289H170.762V283.186C170.762 281.44 170.132 280.792 168.98 280.792C167.81 280.792 167.036 281.566 167.036 283.186V289H165.452V283.186C165.452 281.44 164.822 280.792 163.706 280.792C162.5 280.792 161.726 281.566 161.726 283.186V289H160.142ZM179.059 289.198C176.017 289.198 174.631 287.668 174.631 284.212C174.631 280.882 176.179 279.334 178.753 279.334C181.489 279.334 182.695 280.72 182.695 283.942V284.68H176.215C176.251 286.804 177.169 287.794 179.167 287.794C180.355 287.794 181.453 287.344 182.101 286.786V288.37C181.507 288.766 180.517 289.198 179.059 289.198ZM178.753 280.684C177.133 280.684 176.269 281.53 176.215 283.528H181.111C181.111 281.728 180.571 280.684 178.753 280.684ZM185.067 289V279.532H186.543L186.651 281.134C187.173 280 188.073 279.334 189.585 279.334C191.709 279.334 192.771 280.36 192.771 282.898V289H191.187V283.42C191.187 281.422 190.575 280.792 189.045 280.792C187.551 280.792 186.651 281.692 186.651 283.42V289H185.067ZM199.125 289.108C197.271 289.108 196.461 288.244 196.461 286.192V280.954H194.769V279.532H196.461V277.642L198.045 277.102V279.532H201.069V280.954H198.045V286.066C198.045 287.218 198.423 287.632 199.359 287.632C200.097 287.632 200.637 287.38 201.069 287.074V288.658C200.727 288.892 199.971 289.108 199.125 289.108ZM206.047 289.198C204.985 289.198 204.049 289 203.239 288.64V286.876C203.923 287.47 204.913 287.794 206.011 287.794C207.289 287.794 207.793 287.29 207.793 286.39C207.793 284.086 203.149 285.616 203.149 282.106C203.149 280.288 204.103 279.334 206.497 279.334C207.451 279.334 208.423 279.55 208.963 279.766V281.476C208.279 281.008 207.469 280.738 206.515 280.738C205.219 280.738 204.769 281.188 204.769 281.98C204.769 284.158 209.413 282.61 209.413 286.282C209.413 288.226 208.423 289.198 206.047 289.198ZM216.822 289V279.532H218.406V289H216.822ZM217.614 277.624C216.93 277.624 216.606 277.282 216.606 276.652C216.606 276.022 216.93 275.68 217.614 275.68C218.298 275.68 218.622 276.022 218.622 276.652C218.622 277.282 218.298 277.624 217.614 277.624ZM221.683 289V279.532H223.159L223.267 281.134C223.789 280 224.689 279.334 226.201 279.334C228.325 279.334 229.387 280.36 229.387 282.898V289H227.803V283.42C227.803 281.422 227.191 280.792 225.661 280.792C224.167 280.792 223.267 281.692 223.267 283.42V289H221.683ZM240.384 289.198C237.63 289.198 236.172 287.722 236.172 284.266C236.172 280.918 237.756 279.334 240.384 279.334C243.192 279.334 244.596 280.738 244.596 284.266C244.596 287.722 243.102 289.198 240.384 289.198ZM240.384 287.74C242.112 287.74 242.976 286.876 242.976 284.266C242.976 281.656 242.112 280.792 240.384 280.792C238.728 280.792 237.792 281.728 237.792 284.266C237.792 286.876 238.656 287.74 240.384 287.74ZM246.978 289V279.532H248.454L248.562 281.134C249.084 280 249.984 279.334 251.496 279.334C253.62 279.334 254.682 280.36 254.682 282.898V289H253.098V283.42C253.098 281.422 252.486 280.792 250.956 280.792C249.462 280.792 248.562 281.692 248.562 283.42V289H246.978ZM261.395 289.198C258.353 289.198 256.967 287.668 256.967 284.212C256.967 280.882 258.515 279.334 261.089 279.334C263.825 279.334 265.031 280.72 265.031 283.942V284.68H258.551C258.587 286.804 259.505 287.794 261.503 287.794C262.691 287.794 263.789 287.344 264.437 286.786V288.37C263.843 288.766 262.853 289.198 261.395 289.198ZM261.089 280.684C259.469 280.684 258.605 281.53 258.551 283.528H263.447C263.447 281.728 262.907 280.684 261.089 280.684ZM271.903 292.24V279.532H273.379L273.487 281.062C274.027 280.108 274.855 279.334 276.601 279.334C278.959 279.334 280.147 280.63 280.147 284.176C280.147 287.812 278.869 289.198 276.403 289.198C274.729 289.198 273.901 288.352 273.487 287.434V292.24H271.903ZM278.527 284.176C278.527 281.62 277.699 280.792 276.079 280.792C274.405 280.792 273.487 281.728 273.487 283.672V284.86C273.487 286.732 274.477 287.74 276.025 287.74C277.699 287.74 278.527 286.912 278.527 284.176ZM284.753 289.108C283.151 289.108 282.431 288.352 282.431 286.732V275.446H284.015V286.426C284.015 287.362 284.303 287.614 285.041 287.614C285.455 287.614 285.923 287.452 286.103 287.362V288.838C285.923 288.91 285.401 289.108 284.753 289.108ZM290.61 289.198C288.666 289.198 287.658 288.172 287.658 286.354C287.658 284.446 288.612 283.492 291.438 283.492H293.418V282.646C293.418 281.296 292.914 280.792 291.222 280.792C290.106 280.792 289.062 281.152 288.396 281.602V279.946C289.08 279.604 290.25 279.334 291.438 279.334C294.048 279.334 295.002 280.288 295.002 282.682V289H293.58L293.49 287.38C293.058 288.37 292.14 289.198 290.61 289.198ZM291.024 287.794C292.5 287.794 293.418 286.876 293.418 285.256V284.608H291.546C289.818 284.608 289.278 285.148 289.278 286.282C289.278 287.272 289.8 287.794 291.024 287.794ZM301.773 289.198C298.749 289.198 297.291 287.74 297.291 284.176C297.291 280.864 298.821 279.334 301.647 279.334C302.925 279.334 303.807 279.64 304.131 279.784V281.494C303.591 281.116 302.763 280.792 301.773 280.792C299.901 280.792 298.911 281.782 298.911 284.176C298.911 286.714 299.937 287.74 301.953 287.74C302.835 287.74 303.789 287.398 304.293 286.984V288.622C303.951 288.82 303.087 289.198 301.773 289.198ZM310.121 289.198C307.079 289.198 305.693 287.668 305.693 284.212C305.693 280.882 307.241 279.334 309.815 279.334C312.551 279.334 313.757 280.72 313.757 283.942V284.68H307.277C307.313 286.804 308.231 287.794 310.229 287.794C311.417 287.794 312.515 287.344 313.163 286.786V288.37C312.569 288.766 311.579 289.198 310.121 289.198ZM309.815 280.684C308.195 280.684 307.331 281.53 307.277 283.528H312.173C312.173 281.728 311.633 280.684 309.815 280.684Z" fill="#1F1F22"/>
<path d="M47.414 336V326.27C47.414 326.27 48.8 326.116 50.158 326.116C52.944 326.116 53.98 327.152 53.98 329.434C53.98 331.702 52.804 332.878 50.158 332.878C49.29 332.878 48.702 332.808 48.702 332.808V336H47.414ZM52.636 329.434C52.636 327.922 52.048 327.334 50.158 327.334C49.29 327.334 48.702 327.404 48.702 327.404V331.59C48.702 331.59 49.29 331.66 50.158 331.66C51.964 331.66 52.636 331.002 52.636 329.434ZM55.8156 336V325.458H57.0476V329.882C57.4536 328.986 58.1536 328.482 59.3296 328.482C60.9816 328.482 61.8076 329.28 61.8076 331.254V336H60.5756V331.688C60.5756 330.106 60.0996 329.616 58.9096 329.616C57.7476 329.616 57.0476 330.316 57.0476 331.688V336H55.8156ZM66.8611 336.154C64.7191 336.154 63.5851 335.006 63.5851 332.318C63.5851 329.714 64.8171 328.482 66.8611 328.482C69.0451 328.482 70.1371 329.574 70.1371 332.318C70.1371 335.006 68.9751 336.154 66.8611 336.154ZM66.8611 335.02C68.2051 335.02 68.8771 334.348 68.8771 332.318C68.8771 330.288 68.2051 329.616 66.8611 329.616C65.5731 329.616 64.8451 330.344 64.8451 332.318C64.8451 334.348 65.5171 335.02 66.8611 335.02ZM71.9895 336V328.636H73.1375L73.2215 329.882C73.6275 329 74.3275 328.482 75.5035 328.482C77.1555 328.482 77.9815 329.28 77.9815 331.254V336H76.7495V331.66C76.7495 330.106 76.2735 329.616 75.0835 329.616C73.9215 329.616 73.2215 330.316 73.2215 331.66V336H71.9895ZM83.2029 336.154C80.8369 336.154 79.7589 334.964 79.7589 332.276C79.7589 329.686 80.9629 328.482 82.9649 328.482C85.0929 328.482 86.0309 329.56 86.0309 332.066V332.64H80.9909C81.0189 334.292 81.7329 335.062 83.2869 335.062C84.2109 335.062 85.0649 334.712 85.5689 334.278V335.51C85.1069 335.818 84.3369 336.154 83.2029 336.154ZM82.9649 329.532C81.7049 329.532 81.0329 330.19 80.9909 331.744H84.7989C84.7989 330.344 84.3789 329.532 82.9649 329.532ZM91.3762 336V328.636H92.5242L92.6082 329.882C93.0142 329 93.7142 328.482 94.8902 328.482C96.5422 328.482 97.3682 329.28 97.3682 331.254V336H96.1362V331.66C96.1362 330.106 95.6602 329.616 94.4702 329.616C93.3082 329.616 92.6082 330.316 92.6082 331.66V336H91.3762ZM101.918 336.154C100.336 336.154 99.4956 335.356 99.4956 333.382V328.636H100.728V332.976C100.728 334.53 101.204 335.02 102.338 335.02C103.486 335.02 104.186 334.32 104.186 332.976V328.636H105.418V336H104.27L104.186 334.754C103.78 335.594 103.094 336.154 101.918 336.154ZM107.687 336V328.636H108.835L108.919 329.854C109.297 328.944 109.941 328.482 110.963 328.482C112.083 328.482 112.713 329.056 112.895 329.994C113.301 328.86 114.015 328.482 115.079 328.482C116.367 328.482 117.179 329.294 117.179 331.1V336H115.947V331.478C115.947 330.12 115.457 329.616 114.561 329.616C113.651 329.616 113.049 330.218 113.049 331.478V336H111.817V331.478C111.817 330.12 111.327 329.616 110.459 329.616C109.521 329.616 108.919 330.218 108.919 331.478V336H107.687ZM122.876 336.154C121.574 336.154 120.93 335.496 120.608 334.782L120.524 336H119.376V325.458H120.608V329.826C121.028 329.084 121.672 328.482 123.03 328.482C124.864 328.482 125.788 329.49 125.788 332.248C125.788 335.076 124.794 336.154 122.876 336.154ZM122.568 335.02C123.884 335.02 124.528 334.376 124.528 332.248C124.528 330.26 123.884 329.616 122.624 329.616C121.322 329.616 120.608 330.344 120.608 331.856V332.78C120.608 334.236 121.378 335.02 122.568 335.02ZM130.658 336.154C128.292 336.154 127.214 334.964 127.214 332.276C127.214 329.686 128.418 328.482 130.42 328.482C132.548 328.482 133.486 329.56 133.486 332.066V332.64H128.446C128.474 334.292 129.188 335.062 130.742 335.062C131.666 335.062 132.52 334.712 133.024 334.278V335.51C132.562 335.818 131.792 336.154 130.658 336.154ZM130.42 329.532C129.16 329.532 128.488 330.19 128.446 331.744H132.254C132.254 330.344 131.834 329.532 130.42 329.532ZM135.331 336V328.636H136.409L136.493 329.896C136.843 328.888 137.557 328.482 138.495 328.482C138.817 328.482 139.111 328.538 139.223 328.58V329.91C138.985 329.742 138.649 329.616 138.173 329.616C137.165 329.616 136.563 330.232 136.563 331.744V336H135.331Z" fill="#1F1F22"/>
<rect x="46.5" y="343.5" width="317" height="51" rx="3.5" fill="white"/>
<rect x="46.5" y="343.5" width="317" height="51" rx="3.5" stroke="#D0D7DD"/>
<path d="M59.71 369.276V367.818H62.68V364.866H64.12V367.818H67.09V369.276H64.12V372.228H62.68V369.276H59.71ZM70.347 375L75.171 363.894H68.601V362.4H77.061V363.48L72.129 375H70.347ZM84.1406 369.834C84.1406 365.91 85.7966 363.264 87.7046 361.248L88.6586 362.022C87.1646 363.93 85.7606 366.18 85.7606 369.852C85.7606 373.506 87.1646 375.756 88.6586 377.664L87.7046 378.438C85.7966 376.422 84.1406 373.776 84.1406 369.834ZM89.3945 378.24V377.016H96.9545V378.24H89.3945ZM96.9531 378.24V377.016H104.513V378.24H96.9531ZM104.512 378.24V377.016H112.072V378.24H104.512ZM117.326 369.834C117.326 373.776 115.67 376.422 113.762 378.438L112.808 377.664C114.302 375.756 115.706 373.506 115.706 369.834C115.706 366.18 114.302 363.93 112.808 362.022L113.762 361.248C115.67 363.264 117.326 365.91 117.326 369.834ZM123.408 378.24V377.016H130.968V378.24H123.408ZM130.967 378.24V377.016H138.527V378.24H130.967ZM138.525 378.24V377.016H146.085V378.24H138.525ZM151.394 370.77V369.33H156.974V370.77H151.394ZM162.291 378.24V377.016H169.851V378.24H162.291ZM169.85 378.24V377.016H177.41V378.24H169.85ZM182.718 370.77V369.33H188.298V370.77H182.718ZM193.615 378.24V377.016H201.175V378.24H193.615ZM201.174 378.24V377.016H208.734V378.24H201.174Z" fill="#7D838A"/>
<rect x="46" y="411" width="317" height="52" rx="26" fill="#93B7ED"/>
<path d="M118.605 443L116.157 438.554H115.779H114.249V443H111.945V430.49C111.945 430.49 113.889 430.292 115.653 430.292C119.163 430.292 120.405 431.534 120.405 434.342C120.405 436.322 119.793 437.564 118.371 438.14L121.161 443H118.605ZM118.029 434.468C118.029 433.01 117.435 432.434 115.779 432.434C114.969 432.434 114.195 432.488 114.195 432.488V436.502H115.779C117.381 436.502 118.029 435.854 118.029 434.468ZM127.06 443.234C123.802 443.234 122.488 441.596 122.488 438.068C122.488 434.756 124.09 433.172 126.826 433.172C129.814 433.172 130.984 434.738 130.984 437.726V438.77H124.684C124.756 440.588 125.548 441.362 127.312 441.362C128.536 441.362 129.778 440.912 130.408 440.336V442.37C129.706 442.82 128.716 443.234 127.06 443.234ZM126.826 434.9C125.458 434.9 124.774 435.638 124.684 437.366H128.788C128.788 435.764 128.338 434.9 126.826 434.9ZM136.993 443.234C133.825 443.234 132.385 441.794 132.385 438.104C132.385 434.702 133.933 433.172 136.939 433.172C138.433 433.172 139.441 433.586 139.585 433.658V435.944C139.009 435.512 138.235 435.152 137.173 435.152C135.463 435.152 134.653 435.98 134.653 438.104C134.653 440.372 135.517 441.254 137.353 441.254C138.253 441.254 139.225 440.894 139.693 440.444V442.622C139.549 442.712 138.505 443.234 136.993 443.234ZM145.359 443.234C142.101 443.234 140.787 441.596 140.787 438.068C140.787 434.756 142.389 433.172 145.125 433.172C148.113 433.172 149.283 434.738 149.283 437.726V438.77H142.983C143.055 440.588 143.847 441.362 145.611 441.362C146.835 441.362 148.077 440.912 148.707 440.336V442.37C148.005 442.82 147.015 443.234 145.359 443.234ZM145.125 434.9C143.757 434.9 143.073 435.638 142.983 437.366H147.087C147.087 435.764 146.637 434.9 145.125 434.9ZM151.493 443V433.388H153.689V443H151.493ZM152.591 431.732C151.691 431.732 151.259 431.318 151.259 430.508C151.259 429.698 151.691 429.284 152.591 429.284C153.491 429.284 153.923 429.698 153.923 430.508C153.923 431.318 153.491 431.732 152.591 431.732ZM158.604 443L155.472 433.388H157.848L159.936 440.48L162.042 433.388H164.292L161.16 443H158.604ZM169.687 443.234C166.429 443.234 165.115 441.596 165.115 438.068C165.115 434.756 166.717 433.172 169.453 433.172C172.441 433.172 173.611 434.738 173.611 437.726V438.77H167.311C167.383 440.588 168.175 441.362 169.939 441.362C171.163 441.362 172.405 440.912 173.035 440.336V442.37C172.333 442.82 171.343 443.234 169.687 443.234ZM169.453 434.9C168.085 434.9 167.401 435.638 167.311 437.366H171.415C171.415 435.764 170.965 434.9 169.453 434.9ZM184.12 443.234C180.952 443.234 179.512 441.794 179.512 438.104C179.512 434.702 181.06 433.172 184.066 433.172C185.56 433.172 186.568 433.586 186.712 433.658V435.944C186.136 435.512 185.362 435.152 184.3 435.152C182.59 435.152 181.78 435.98 181.78 438.104C181.78 440.372 182.644 441.254 184.48 441.254C185.38 441.254 186.352 440.894 186.82 440.444V442.622C186.676 442.712 185.632 443.234 184.12 443.234ZM192.342 443.234C189.426 443.234 187.914 441.722 187.914 438.194C187.914 434.774 189.534 433.172 192.342 433.172C195.348 433.172 196.77 434.594 196.77 438.194C196.77 441.722 195.258 443.234 192.342 443.234ZM192.342 441.254C193.782 441.254 194.502 440.516 194.502 438.194C194.502 435.89 193.8 435.152 192.342 435.152C190.938 435.152 190.182 435.944 190.182 438.194C190.182 440.516 190.902 441.254 192.342 441.254ZM204.75 443L204.66 441.542C204.264 442.352 203.382 443.234 201.78 443.234C199.332 443.234 198.18 441.83 198.18 438.104C198.18 434.648 199.386 433.172 201.852 433.172C203.256 433.172 204.21 433.802 204.66 434.792V429.374H206.856V443H204.75ZM200.448 438.104C200.448 440.534 201.15 441.254 202.536 441.254C203.85 441.254 204.66 440.444 204.66 438.68V437.672C204.66 435.998 203.922 435.152 202.518 435.152C201.132 435.152 200.448 435.872 200.448 438.104ZM213.369 443.234C210.111 443.234 208.797 441.596 208.797 438.068C208.797 434.756 210.399 433.172 213.135 433.172C216.123 433.172 217.293 434.738 217.293 437.726V438.77H210.993C211.065 440.588 211.857 441.362 213.621 441.362C214.845 441.362 216.087 440.912 216.717 440.336V442.37C216.015 442.82 215.025 443.234 213.369 443.234ZM213.135 434.9C211.767 434.9 211.083 435.638 210.993 437.366H215.097C215.097 435.764 214.647 434.9 213.135 434.9ZM224.579 443V435.314H223.031V433.388H224.579V432.326C224.579 430.166 225.389 429.266 227.549 429.266C228.233 429.266 228.737 429.356 229.151 429.446V431.48C228.935 431.372 228.521 431.246 227.945 431.246C227.135 431.246 226.775 431.66 226.775 432.632V433.388H229.151V435.314H226.775V443H224.579ZM234.828 443.234C231.912 443.234 230.4 441.722 230.4 438.194C230.4 434.774 232.02 433.172 234.828 433.172C237.834 433.172 239.256 434.594 239.256 438.194C239.256 441.722 237.744 443.234 234.828 443.234ZM234.828 441.254C236.268 441.254 236.988 440.516 236.988 438.194C236.988 435.89 236.286 435.152 234.828 435.152C233.424 435.152 232.668 435.944 232.668 438.194C232.668 440.516 233.388 441.254 234.828 441.254ZM241.206 443V433.388H243.222L243.312 434.918C243.762 433.694 244.626 433.172 245.706 433.172C246.192 433.172 246.57 433.262 246.642 433.28V435.566C246.354 435.35 245.85 435.152 245.238 435.152C244.068 435.152 243.402 435.818 243.402 437.672V443H241.206ZM255.537 443.108C253.773 443.108 252.999 442.334 252.999 440.48V429.374H255.195V440.048C255.195 440.858 255.447 441.092 256.059 441.092C256.455 441.092 256.905 440.894 256.977 440.858V442.838C256.905 442.892 256.329 443.108 255.537 443.108ZM262.654 443.234C259.738 443.234 258.226 441.722 258.226 438.194C258.226 434.774 259.846 433.172 262.654 433.172C265.66 433.172 267.082 434.594 267.082 438.194C267.082 441.722 265.57 443.234 262.654 443.234ZM262.654 441.254C264.094 441.254 264.814 440.516 264.814 438.194C264.814 435.89 264.112 435.152 262.654 435.152C261.25 435.152 260.494 435.944 260.494 438.194C260.494 440.516 261.214 441.254 262.654 441.254ZM272.524 446.474C271.12 446.474 269.914 446.168 269.284 445.862V443.522C269.788 443.936 270.922 444.494 272.56 444.494C274.252 444.494 274.972 443.774 274.972 442.172V441.11C274.576 441.92 273.694 442.802 272.092 442.802C269.662 442.802 268.492 441.38 268.492 438.05C268.492 434.63 269.698 433.172 272.164 433.172C273.568 433.172 274.522 433.802 274.972 434.792L275.062 433.388H277.168V442.028C277.168 445.196 275.674 446.474 272.524 446.474ZM272.83 440.822C274.162 440.822 274.972 439.994 274.972 438.302V437.582C274.972 435.998 274.234 435.152 272.83 435.152C271.444 435.152 270.76 435.872 270.76 437.888C270.76 440.102 271.462 440.822 272.83 440.822ZM284.419 443V433.388H286.615V443H284.419ZM285.517 431.732C284.617 431.732 284.185 431.318 284.185 430.508C284.185 429.698 284.617 429.284 285.517 429.284C286.417 429.284 286.849 429.698 286.849 430.508C286.849 431.318 286.417 431.732 285.517 431.732ZM289.37 443V433.388H291.476L291.566 434.864C292.088 433.712 293.042 433.172 294.374 433.172C296.426 433.172 297.506 434.18 297.506 436.682V443H295.31V437.42C295.31 435.674 294.77 435.152 293.492 435.152C292.268 435.152 291.566 435.854 291.566 437.42V443H289.37Z" fill="white"/>
<line x1="45.5" y1="494.5" x2="183.5" y2="494.5" stroke="#D0D7DD"/>
<path d="M204.627 500.154C202.485 500.154 201.351 499.006 201.351 496.318C201.351 493.714 202.583 492.482 204.627 492.482C206.811 492.482 207.903 493.574 207.903 496.318C207.903 499.006 206.741 500.154 204.627 500.154ZM204.627 499.02C205.971 499.02 206.643 498.348 206.643 496.318C206.643 494.288 205.971 493.616 204.627 493.616C203.339 493.616 202.611 494.344 202.611 496.318C202.611 498.348 203.283 499.02 204.627 499.02ZM209.755 500V492.636H210.833L210.917 493.896C211.267 492.888 211.981 492.482 212.919 492.482C213.241 492.482 213.535 492.538 213.647 492.58V493.91C213.409 493.742 213.073 493.616 212.597 493.616C211.589 493.616 210.987 494.232 210.987 495.744V500H209.755Z" fill="#7D838A"/>
<line x1="231.5" y1="494.5" x2="363.5" y2="494.5" stroke="#D0D7DD"/>
<rect x="46" y="527" width="318" height="52" rx="26" fill="#107F8C"/>
<path d="M132.2 551.508C132.289 552 132.333 552.5 132.333 553C132.333 554.89 131.69 556.724 130.511 558.201C129.331 559.678 127.684 560.71 125.841 561.128C123.998 561.545 122.067 561.324 120.366 560.5C118.665 559.676 117.295 558.298 116.48 556.593C115.665 554.888 115.454 552.956 115.882 551.115C116.31 549.274 117.35 547.633 118.833 546.461C120.316 545.29 122.154 544.657 124.044 544.667C125.934 544.677 127.764 545.329 129.235 546.517L127.613 547.712C126.43 546.903 125.011 546.514 123.581 546.607C122.151 546.699 120.793 547.268 119.725 548.222C118.656 549.176 117.937 550.461 117.683 551.871C117.43 553.281 117.656 554.736 118.325 556.003C118.994 557.269 120.069 558.276 121.377 558.861C122.685 559.446 124.151 559.576 125.541 559.23C126.932 558.885 128.167 558.083 129.049 556.954C129.931 555.825 130.409 554.433 130.408 553V552.83L132.2 551.508Z" fill="white"/>
<path d="M131.593 549.563C131.326 548.974 130.991 548.418 130.594 547.907L124.001 552.761L120.829 550.778V553.17L124.001 555.158L131.593 549.563Z" fill="white"/>
<path d="M139.917 559V546.4H142.221V556.948H147.405V559H139.917ZM152.92 559.234C150.004 559.234 148.492 557.722 148.492 554.194C148.492 550.774 150.112 549.172 152.92 549.172C155.926 549.172 157.348 550.594 157.348 554.194C157.348 557.722 155.836 559.234 152.92 559.234ZM152.92 557.254C154.36 557.254 155.08 556.516 155.08 554.194C155.08 551.89 154.378 551.152 152.92 551.152C151.516 551.152 150.76 551.944 150.76 554.194C150.76 556.516 151.48 557.254 152.92 557.254ZM162.79 562.474C161.386 562.474 160.18 562.168 159.55 561.862V559.522C160.054 559.936 161.188 560.494 162.826 560.494C164.518 560.494 165.238 559.774 165.238 558.172V557.11C164.842 557.92 163.96 558.802 162.358 558.802C159.928 558.802 158.758 557.38 158.758 554.05C158.758 550.63 159.964 549.172 162.43 549.172C163.834 549.172 164.788 549.802 165.238 550.792L165.328 549.388H167.434V558.028C167.434 561.196 165.94 562.474 162.79 562.474ZM163.096 556.822C164.428 556.822 165.238 555.994 165.238 554.302V553.582C165.238 551.998 164.5 551.152 163.096 551.152C161.71 551.152 161.026 551.872 161.026 553.888C161.026 556.102 161.728 556.822 163.096 556.822ZM170.185 559V549.388H172.381V559H170.185ZM171.283 547.732C170.383 547.732 169.951 547.318 169.951 546.508C169.951 545.698 170.383 545.284 171.283 545.284C172.183 545.284 172.615 545.698 172.615 546.508C172.615 547.318 172.183 547.732 171.283 547.732ZM175.136 559V549.388H177.242L177.332 550.864C177.854 549.712 178.808 549.172 180.14 549.172C182.192 549.172 183.272 550.18 183.272 552.682V559H181.076V553.42C181.076 551.674 180.536 551.152 179.258 551.152C178.034 551.152 177.332 551.854 177.332 553.42V559H175.136ZM191.461 559L189.355 549.388H191.641L192.829 554.878C192.991 555.598 193.081 556.318 193.081 556.318H193.117C193.117 556.318 193.207 555.598 193.387 554.878L194.719 549.388H196.843L198.211 554.878C198.391 555.598 198.499 556.318 198.499 556.318H198.535C198.535 556.318 198.625 555.598 198.787 554.878L199.975 549.388H202.171L200.065 559H197.455L196.069 553.582C195.889 552.862 195.763 552.142 195.763 552.142H195.727C195.727 552.142 195.583 552.862 195.421 553.582L194.071 559H191.461ZM204.111 559V549.388H206.307V559H204.111ZM205.209 547.732C204.309 547.732 203.877 547.318 203.877 546.508C203.877 545.698 204.309 545.284 205.209 545.284C206.109 545.284 206.541 545.698 206.541 546.508C206.541 547.318 206.109 547.732 205.209 547.732ZM212.733 559.108C210.699 559.108 209.907 558.226 209.907 555.94V551.314H208.359V549.388H209.907V547.624L212.103 546.868V549.388H214.839V551.314H212.103V555.688C212.103 556.714 212.409 557.128 213.237 557.128C213.885 557.128 214.443 556.912 214.839 556.606V558.658C214.515 558.874 213.705 559.108 212.733 559.108ZM216.884 559V545.374H219.08V550.864C219.602 549.712 220.556 549.172 221.888 549.172C223.94 549.172 225.02 550.18 225.02 552.682V559H222.824V553.474C222.824 551.674 222.284 551.152 221.006 551.152C219.782 551.152 219.08 551.854 219.08 553.474V559H216.884ZM235.765 559.234C234.163 559.234 232.759 558.82 231.949 558.316V555.814C232.597 556.39 233.911 557.092 235.657 557.092C237.187 557.092 237.763 556.516 237.763 555.58C237.763 552.844 231.859 554.212 231.859 549.766C231.859 547.462 233.155 546.166 236.197 546.166C237.583 546.166 238.843 546.436 239.599 546.796V549.298C238.807 548.686 237.529 548.308 236.305 548.308C234.685 548.308 234.235 548.776 234.235 549.64C234.235 552.232 240.139 550.81 240.139 555.454C240.139 557.884 238.789 559.234 235.765 559.234ZM247.304 559.234C245.702 559.234 244.946 558.406 244.55 557.596L244.46 559H242.354V545.374H244.55V550.828C245.054 549.91 245.9 549.172 247.538 549.172C249.914 549.172 251.03 550.522 251.03 554.104C251.03 557.776 249.806 559.234 247.304 559.234ZM246.674 557.254C248.078 557.254 248.762 556.552 248.762 554.104C248.762 551.854 248.078 551.152 246.71 551.152C245.324 551.152 244.55 551.926 244.55 553.69V554.698C244.55 556.444 245.36 557.254 246.674 557.254ZM257.003 559.234C253.745 559.234 252.431 557.596 252.431 554.068C252.431 550.756 254.033 549.172 256.769 549.172C259.757 549.172 260.927 550.738 260.927 553.726V554.77H254.627C254.699 556.588 255.491 557.362 257.255 557.362C258.479 557.362 259.721 556.912 260.351 556.336V558.37C259.649 558.82 258.659 559.234 257.003 559.234ZM256.769 550.9C255.401 550.9 254.717 551.638 254.627 553.366H258.731C258.731 551.764 258.281 550.9 256.769 550.9ZM262.868 559V549.388H264.884L264.974 550.918C265.424 549.694 266.288 549.172 267.368 549.172C267.854 549.172 268.232 549.262 268.304 549.28V551.566C268.016 551.35 267.512 551.152 266.9 551.152C265.73 551.152 265.064 551.818 265.064 553.672V559H262.868ZM275.327 559V546.4H277.631V559H275.327ZM284.67 559.108C283.05 559.108 281.052 558.91 281.052 558.91V546.49C281.052 546.49 283.05 546.292 284.796 546.292C289.08 546.292 290.88 548.092 290.88 552.574C290.88 557.038 288.81 559.108 284.67 559.108ZM288.504 552.574C288.504 549.478 287.46 548.434 284.85 548.434C284.094 548.434 283.356 548.506 283.356 548.506V556.894C283.356 556.894 284.022 556.966 284.724 556.966C287.298 556.966 288.504 555.76 288.504 552.574Z" fill="white"/>
<path d="M98.184 239.768V245H95.184V228.2H100.776C103.432 228.2 105.352 228.68 106.536 229.64C107.736 230.584 108.336 232 108.336 233.888C108.336 235.856 107.696 237.328 106.416 238.304C105.136 239.28 103.256 239.768 100.776 239.768H98.184ZM98.184 230.96V237.008H100.992C102.4 237.008 103.456 236.768 104.16 236.288C104.864 235.792 105.216 234.968 105.216 233.816C105.216 232.776 104.888 232.04 104.232 231.608C103.576 231.176 102.512 230.96 101.04 230.96H98.184ZM122.365 237.728H114.637V242.24H123.517V245H111.637V228.2H123.253V230.96H114.637V234.968H122.365V237.728ZM133.874 239.696C133.394 239.744 132.898 239.768 132.386 239.768H130.082V245H127.082V228.2H132.386C135.042 228.2 136.962 228.68 138.146 229.64C139.346 230.584 139.946 232 139.946 233.888C139.946 236.384 138.89 238.096 136.778 239.024L141.074 245H137.474L133.874 239.696ZM130.082 230.96V237.008H132.602C134.01 237.008 135.066 236.768 135.77 236.288C136.474 235.792 136.826 234.968 136.826 233.816C136.826 232.776 136.498 232.04 135.842 231.608C135.186 231.176 134.122 230.96 132.65 230.96H130.082ZM155.189 233.6C154.949 233.232 154.637 232.872 154.253 232.52C153.885 232.168 153.461 231.856 152.981 231.584C152.517 231.312 152.005 231.096 151.445 230.936C150.901 230.776 150.317 230.696 149.693 230.696C148.509 230.712 147.653 230.888 147.125 231.224C146.613 231.56 146.357 232.016 146.357 232.592C146.357 233.024 146.493 233.376 146.765 233.648C147.053 233.92 147.421 234.144 147.869 234.32C148.317 234.496 148.829 234.656 149.405 234.8C149.981 234.928 150.573 235.072 151.181 235.232C151.789 235.392 152.381 235.592 152.957 235.832C153.533 236.056 154.045 236.352 154.493 236.72C154.941 237.088 155.301 237.552 155.573 238.112C155.861 238.672 156.005 239.36 156.005 240.176C156.005 240.88 155.877 241.544 155.621 242.168C155.365 242.792 154.965 243.336 154.421 243.8C153.877 244.248 153.189 244.608 152.357 244.88C151.541 245.136 150.573 245.264 149.453 245.264C148.717 245.264 148.021 245.2 147.365 245.072C146.725 244.944 146.141 244.784 145.613 244.592C145.085 244.384 144.621 244.16 144.221 243.92C143.837 243.664 143.533 243.408 143.309 243.152V239.456C143.565 239.888 143.893 240.288 144.293 240.656C144.693 241.024 145.149 241.344 145.661 241.616C146.189 241.888 146.773 242.104 147.413 242.264C148.053 242.424 148.741 242.504 149.477 242.504C150.661 242.504 151.533 242.312 152.093 241.928C152.653 241.544 152.933 241.008 152.933 240.32C152.933 239.728 152.693 239.288 152.213 239C151.749 238.696 151.157 238.448 150.437 238.256C149.717 238.064 148.941 237.872 148.109 237.68C147.293 237.488 146.525 237.208 145.805 236.84C145.085 236.472 144.485 235.968 144.005 235.328C143.541 234.672 143.309 233.784 143.309 232.664C143.309 231.16 143.869 230 144.989 229.184C146.109 228.352 147.677 227.936 149.693 227.936C150.989 227.952 152.109 228.12 153.053 228.44C153.997 228.744 154.709 229.08 155.189 229.448V233.6ZM158.32 236.576C158.32 235.312 158.528 234.152 158.944 233.096C159.376 232.04 159.984 231.128 160.768 230.36C161.552 229.592 162.496 229 163.6 228.584C164.704 228.152 165.944 227.936 167.32 227.936C168.664 227.936 169.888 228.136 170.992 228.536C172.112 228.936 173.064 229.512 173.848 230.264C174.632 231 175.24 231.904 175.672 232.976C176.104 234.048 176.32 235.264 176.32 236.624C176.32 237.888 176.104 239.048 175.672 240.104C175.256 241.16 174.656 242.072 173.872 242.84C173.088 243.608 172.136 244.208 171.016 244.64C169.912 245.056 168.68 245.264 167.32 245.264C165.976 245.264 164.744 245.072 163.624 244.688C162.52 244.288 161.576 243.72 160.792 242.984C160.008 242.232 159.4 241.32 158.968 240.248C158.536 239.16 158.32 237.936 158.32 236.576ZM161.488 236.6C161.488 237.416 161.608 238.184 161.848 238.904C162.104 239.624 162.48 240.248 162.976 240.776C163.472 241.304 164.08 241.728 164.8 242.048C165.536 242.352 166.384 242.504 167.344 242.504C168.24 242.504 169.04 242.36 169.744 242.072C170.464 241.784 171.072 241.384 171.568 240.872C172.08 240.36 172.472 239.744 172.744 239.024C173.016 238.288 173.152 237.48 173.152 236.6C173.152 235.784 173.024 235.016 172.768 234.296C172.528 233.576 172.16 232.952 171.664 232.424C171.168 231.896 170.552 231.48 169.816 231.176C169.096 230.856 168.256 230.696 167.296 230.696C166.4 230.696 165.592 230.84 164.872 231.128C164.152 231.416 163.536 231.824 163.024 232.352C162.528 232.864 162.144 233.48 161.872 234.2C161.616 234.92 161.488 235.72 161.488 236.6ZM182.465 232.832V245H179.465V228.2H182.801L191.897 240.368V228.2H194.897V245H191.537L182.465 232.832ZM202.27 232.832V245H199.27V228.2H202.606L211.702 240.368V228.2H214.702V245H211.342L202.27 232.832ZM229.803 237.728H222.075V242.24H230.955V245H219.075V228.2H230.691V230.96H222.075V234.968H229.803V237.728ZM237.52 242.24H246.64V245H234.52V228.2H237.52V242.24ZM266.225 237.728H258.497V242.24H267.377V245H255.497V228.2H267.113V230.96H258.497V234.968H266.225V237.728ZM276.726 228.2C279.846 228.2 282.166 228.896 283.686 230.288C285.206 231.68 285.966 233.672 285.966 236.264C285.966 237.8 285.734 239.12 285.27 240.224C284.822 241.328 284.182 242.232 283.35 242.936C282.534 243.64 281.55 244.16 280.398 244.496C279.262 244.832 278.014 245 276.654 245H270.942V228.2H276.726ZM276.654 242.24C278.75 242.24 280.302 241.752 281.31 240.776C282.318 239.8 282.822 238.392 282.822 236.552C282.822 234.68 282.326 233.28 281.334 232.352C280.358 231.424 278.806 230.96 276.678 230.96H273.942V242.24H276.654ZM292.129 245H289.129V228.2H292.129V245Z" fill="#00347A"/>
<path d="M77.793 616.047V626H76.4736V616.047H77.793ZM83.0977 618.604V619.574H79.0986V618.604H83.0977ZM80.4521 616.806H81.7168V624.168C81.7168 624.419 81.7555 624.608 81.833 624.735C81.9105 624.863 82.0107 624.947 82.1338 624.988C82.2568 625.029 82.389 625.05 82.5303 625.05C82.6351 625.05 82.7445 625.041 82.8584 625.022C82.9769 625 83.0658 624.981 83.125 624.968L83.1318 626C83.0316 626.032 82.8994 626.062 82.7354 626.089C82.5758 626.121 82.3822 626.137 82.1543 626.137C81.8444 626.137 81.5596 626.075 81.2998 625.952C81.04 625.829 80.8327 625.624 80.6777 625.337C80.5273 625.045 80.4521 624.653 80.4521 624.161V616.806ZM85.3535 615.5V616.252L85.21 618.768H84.3281L84.335 616.368V615.5H85.3535ZM90.7881 624.038C90.7881 623.856 90.7471 623.687 90.665 623.532C90.5876 623.373 90.4258 623.229 90.1797 623.102C89.9382 622.969 89.5736 622.855 89.0859 622.76C88.6758 622.673 88.3044 622.571 87.9717 622.452C87.6436 622.334 87.3633 622.19 87.1309 622.021C86.903 621.853 86.7275 621.655 86.6045 621.427C86.4814 621.199 86.4199 620.932 86.4199 620.627C86.4199 620.335 86.4837 620.06 86.6113 619.8C86.7435 619.54 86.9281 619.31 87.165 619.109C87.4066 618.909 87.696 618.752 88.0332 618.638C88.3704 618.524 88.7464 618.467 89.1611 618.467C89.7536 618.467 90.2594 618.572 90.6787 618.781C91.098 618.991 91.4193 619.271 91.6426 619.622C91.8659 619.968 91.9775 620.354 91.9775 620.777H90.7129C90.7129 620.572 90.6514 620.374 90.5283 620.183C90.4098 619.987 90.2344 619.825 90.002 619.697C89.7741 619.57 89.4938 619.506 89.1611 619.506C88.8102 619.506 88.5254 619.561 88.3066 619.67C88.0924 619.775 87.9352 619.909 87.835 620.073C87.7393 620.237 87.6914 620.41 87.6914 620.593C87.6914 620.729 87.7142 620.853 87.7598 620.962C87.8099 621.067 87.8965 621.165 88.0195 621.256C88.1426 621.342 88.3158 621.424 88.5391 621.502C88.7624 621.579 89.0472 621.657 89.3936 621.734C89.9997 621.871 90.4987 622.035 90.8906 622.227C91.2826 622.418 91.5742 622.653 91.7656 622.931C91.957 623.209 92.0527 623.546 92.0527 623.942C92.0527 624.266 91.9844 624.562 91.8477 624.831C91.7155 625.1 91.5218 625.332 91.2666 625.528C91.016 625.72 90.7152 625.87 90.3643 625.979C90.0179 626.084 89.6283 626.137 89.1953 626.137C88.5436 626.137 87.9922 626.021 87.541 625.788C87.0898 625.556 86.748 625.255 86.5156 624.886C86.2832 624.517 86.167 624.127 86.167 623.717H87.4385C87.4567 624.063 87.557 624.339 87.7393 624.544C87.9215 624.744 88.1449 624.888 88.4092 624.975C88.6735 625.057 88.9355 625.098 89.1953 625.098C89.5417 625.098 89.8311 625.052 90.0635 624.961C90.3005 624.87 90.4805 624.744 90.6035 624.585C90.7266 624.425 90.7881 624.243 90.7881 624.038ZM101.493 624.038C101.493 623.856 101.452 623.687 101.37 623.532C101.293 623.373 101.131 623.229 100.885 623.102C100.643 622.969 100.279 622.855 99.791 622.76C99.3809 622.673 99.0094 622.571 98.6768 622.452C98.3486 622.334 98.0684 622.19 97.8359 622.021C97.6081 621.853 97.4326 621.655 97.3096 621.427C97.1865 621.199 97.125 620.932 97.125 620.627C97.125 620.335 97.1888 620.06 97.3164 619.8C97.4486 619.54 97.6331 619.31 97.8701 619.109C98.1117 618.909 98.401 618.752 98.7383 618.638C99.0755 618.524 99.4515 618.467 99.8662 618.467C100.459 618.467 100.965 618.572 101.384 618.781C101.803 618.991 102.124 619.271 102.348 619.622C102.571 619.968 102.683 620.354 102.683 620.777H101.418C101.418 620.572 101.356 620.374 101.233 620.183C101.115 619.987 100.939 619.825 100.707 619.697C100.479 619.57 100.199 619.506 99.8662 619.506C99.5153 619.506 99.2305 619.561 99.0117 619.67C98.7975 619.775 98.6403 619.909 98.54 620.073C98.4443 620.237 98.3965 620.41 98.3965 620.593C98.3965 620.729 98.4193 620.853 98.4648 620.962C98.515 621.067 98.6016 621.165 98.7246 621.256C98.8477 621.342 99.0208 621.424 99.2441 621.502C99.4674 621.579 99.7523 621.657 100.099 621.734C100.705 621.871 101.204 622.035 101.596 622.227C101.988 622.418 102.279 622.653 102.471 622.931C102.662 623.209 102.758 623.546 102.758 623.942C102.758 624.266 102.689 624.562 102.553 624.831C102.421 625.1 102.227 625.332 101.972 625.528C101.721 625.72 101.42 625.87 101.069 625.979C100.723 626.084 100.333 626.137 99.9004 626.137C99.2487 626.137 98.6973 626.021 98.2461 625.788C97.7949 625.556 97.4531 625.255 97.2207 624.886C96.9883 624.517 96.8721 624.127 96.8721 623.717H98.1436C98.1618 624.063 98.262 624.339 98.4443 624.544C98.6266 624.744 98.8499 624.888 99.1143 624.975C99.3786 625.057 99.6406 625.098 99.9004 625.098C100.247 625.098 100.536 625.052 100.769 624.961C101.006 624.87 101.186 624.744 101.309 624.585C101.432 624.425 101.493 624.243 101.493 624.038ZM108.78 624.735V620.928C108.78 620.636 108.721 620.383 108.603 620.169C108.489 619.95 108.315 619.782 108.083 619.663C107.851 619.545 107.563 619.485 107.222 619.485C106.903 619.485 106.622 619.54 106.381 619.649C106.144 619.759 105.957 619.902 105.82 620.08C105.688 620.258 105.622 620.449 105.622 620.654H104.357C104.357 620.39 104.426 620.128 104.562 619.868C104.699 619.608 104.895 619.374 105.15 619.164C105.41 618.95 105.72 618.781 106.08 618.658C106.445 618.531 106.85 618.467 107.297 618.467C107.835 618.467 108.309 618.558 108.719 618.74C109.133 618.923 109.457 619.198 109.689 619.567C109.926 619.932 110.045 620.39 110.045 620.941V624.387C110.045 624.633 110.065 624.895 110.106 625.173C110.152 625.451 110.218 625.69 110.305 625.891V626H108.985C108.922 625.854 108.871 625.66 108.835 625.419C108.799 625.173 108.78 624.945 108.78 624.735ZM108.999 621.516L109.013 622.404H107.734C107.374 622.404 107.053 622.434 106.771 622.493C106.488 622.548 106.251 622.632 106.06 622.746C105.868 622.86 105.722 623.004 105.622 623.177C105.522 623.345 105.472 623.544 105.472 623.771C105.472 624.004 105.524 624.216 105.629 624.407C105.734 624.599 105.891 624.751 106.101 624.865C106.315 624.975 106.577 625.029 106.887 625.029C107.274 625.029 107.616 624.947 107.912 624.783C108.208 624.619 108.443 624.419 108.616 624.182C108.794 623.945 108.89 623.715 108.903 623.491L109.443 624.1C109.411 624.291 109.325 624.503 109.184 624.735C109.042 624.968 108.853 625.191 108.616 625.405C108.384 625.615 108.106 625.79 107.782 625.932C107.463 626.068 107.103 626.137 106.702 626.137C106.201 626.137 105.761 626.039 105.383 625.843C105.009 625.647 104.717 625.385 104.508 625.057C104.303 624.724 104.2 624.353 104.2 623.942C104.2 623.546 104.278 623.197 104.433 622.896C104.588 622.591 104.811 622.338 105.103 622.138C105.394 621.933 105.745 621.778 106.155 621.673C106.565 621.568 107.023 621.516 107.529 621.516H108.999ZM113.921 626H112.656V617.824C112.656 617.291 112.752 616.842 112.943 616.478C113.139 616.108 113.42 615.83 113.784 615.644C114.149 615.452 114.582 615.356 115.083 615.356C115.229 615.356 115.375 615.366 115.521 615.384C115.671 615.402 115.817 615.429 115.958 615.466L115.89 616.498C115.794 616.475 115.685 616.459 115.562 616.45C115.443 616.441 115.325 616.437 115.206 616.437C114.937 616.437 114.705 616.491 114.509 616.601C114.317 616.705 114.172 616.86 114.071 617.065C113.971 617.271 113.921 617.523 113.921 617.824V626ZM115.493 618.604V619.574H111.487V618.604H115.493ZM119.807 626.137C119.292 626.137 118.825 626.05 118.405 625.877C117.991 625.699 117.633 625.451 117.332 625.132C117.036 624.813 116.808 624.435 116.648 623.997C116.489 623.56 116.409 623.081 116.409 622.562V622.274C116.409 621.673 116.498 621.137 116.676 620.668C116.854 620.194 117.095 619.793 117.4 619.465C117.706 619.137 118.052 618.888 118.439 618.72C118.827 618.551 119.228 618.467 119.643 618.467C120.171 618.467 120.627 618.558 121.01 618.74C121.397 618.923 121.714 619.178 121.96 619.506C122.206 619.829 122.388 620.212 122.507 620.654C122.625 621.092 122.685 621.57 122.685 622.09V622.657H117.161V621.625H121.42V621.529C121.402 621.201 121.333 620.882 121.215 620.572C121.101 620.262 120.919 620.007 120.668 619.807C120.417 619.606 120.076 619.506 119.643 619.506C119.355 619.506 119.091 619.567 118.85 619.69C118.608 619.809 118.401 619.987 118.228 620.224C118.054 620.461 117.92 620.75 117.824 621.092C117.729 621.434 117.681 621.828 117.681 622.274V622.562C117.681 622.912 117.729 623.243 117.824 623.553C117.924 623.858 118.068 624.127 118.255 624.359C118.446 624.592 118.676 624.774 118.945 624.906C119.219 625.038 119.529 625.104 119.875 625.104C120.322 625.104 120.7 625.013 121.01 624.831C121.32 624.649 121.591 624.405 121.823 624.1L122.589 624.708C122.429 624.95 122.227 625.18 121.98 625.398C121.734 625.617 121.431 625.795 121.071 625.932C120.716 626.068 120.294 626.137 119.807 626.137ZM125.31 624.496V625.515C125.31 625.929 125.205 626.367 124.995 626.827C124.785 627.292 124.492 627.679 124.113 627.989L123.396 627.49C123.541 627.29 123.664 627.085 123.765 626.875C123.865 626.67 123.94 626.456 123.99 626.232C124.045 626.014 124.072 625.781 124.072 625.535V624.496H125.31ZM132.474 625.234L134.531 618.604H135.885L132.918 627.142C132.85 627.324 132.758 627.52 132.645 627.729C132.535 627.944 132.394 628.146 132.221 628.338C132.048 628.529 131.838 628.684 131.592 628.803C131.35 628.926 131.061 628.987 130.724 628.987C130.623 628.987 130.496 628.974 130.341 628.946C130.186 628.919 130.076 628.896 130.013 628.878L130.006 627.853C130.042 627.857 130.099 627.862 130.177 627.866C130.259 627.875 130.316 627.88 130.348 627.88C130.635 627.88 130.879 627.841 131.079 627.764C131.28 627.691 131.448 627.565 131.585 627.388C131.726 627.215 131.847 626.975 131.947 626.67L132.474 625.234ZM130.963 618.604L132.884 624.346L133.212 625.679L132.303 626.144L129.582 618.604H130.963ZM136.582 622.384V622.227C136.582 621.693 136.66 621.199 136.814 620.743C136.969 620.283 137.193 619.884 137.484 619.547C137.776 619.205 138.129 618.941 138.544 618.754C138.959 618.562 139.424 618.467 139.938 618.467C140.458 618.467 140.925 618.562 141.34 618.754C141.759 618.941 142.115 619.205 142.406 619.547C142.702 619.884 142.928 620.283 143.083 620.743C143.238 621.199 143.315 621.693 143.315 622.227V622.384C143.315 622.917 143.238 623.411 143.083 623.867C142.928 624.323 142.702 624.722 142.406 625.063C142.115 625.401 141.761 625.665 141.347 625.856C140.937 626.043 140.472 626.137 139.952 626.137C139.433 626.137 138.965 626.043 138.551 625.856C138.136 625.665 137.781 625.401 137.484 625.063C137.193 624.722 136.969 624.323 136.814 623.867C136.66 623.411 136.582 622.917 136.582 622.384ZM137.847 622.227V622.384C137.847 622.753 137.89 623.102 137.977 623.43C138.063 623.753 138.193 624.04 138.366 624.291C138.544 624.542 138.765 624.74 139.029 624.886C139.294 625.027 139.601 625.098 139.952 625.098C140.299 625.098 140.602 625.027 140.861 624.886C141.126 624.74 141.344 624.542 141.518 624.291C141.691 624.04 141.821 623.753 141.907 623.43C141.998 623.102 142.044 622.753 142.044 622.384V622.227C142.044 621.862 141.998 621.518 141.907 621.194C141.821 620.866 141.688 620.577 141.511 620.326C141.338 620.071 141.119 619.87 140.854 619.725C140.595 619.579 140.289 619.506 139.938 619.506C139.592 619.506 139.287 619.579 139.022 619.725C138.763 619.87 138.544 620.071 138.366 620.326C138.193 620.577 138.063 620.866 137.977 621.194C137.89 621.518 137.847 621.862 137.847 622.227ZM149.427 624.291V618.604H150.698V626H149.488L149.427 624.291ZM149.666 622.732L150.192 622.719C150.192 623.211 150.14 623.667 150.035 624.086C149.935 624.501 149.771 624.861 149.543 625.166C149.315 625.471 149.017 625.711 148.647 625.884C148.278 626.052 147.829 626.137 147.301 626.137C146.941 626.137 146.61 626.084 146.31 625.979C146.013 625.875 145.758 625.713 145.544 625.494C145.33 625.275 145.163 624.991 145.045 624.64C144.931 624.289 144.874 623.867 144.874 623.375V618.604H146.139V623.389C146.139 623.721 146.175 623.997 146.248 624.216C146.326 624.43 146.428 624.601 146.556 624.729C146.688 624.852 146.834 624.938 146.993 624.988C147.157 625.038 147.326 625.063 147.499 625.063C148.037 625.063 148.463 624.961 148.777 624.756C149.092 624.546 149.317 624.266 149.454 623.915C149.595 623.56 149.666 623.165 149.666 622.732ZM153.891 619.766V626H152.626V618.604H153.856L153.891 619.766ZM156.201 618.562L156.194 619.738C156.09 619.715 155.989 619.702 155.894 619.697C155.802 619.688 155.698 619.684 155.579 619.684C155.287 619.684 155.03 619.729 154.807 619.82C154.583 619.911 154.394 620.039 154.239 620.203C154.084 620.367 153.961 620.563 153.87 620.791C153.784 621.014 153.727 621.26 153.699 621.529L153.344 621.734C153.344 621.288 153.387 620.868 153.474 620.477C153.565 620.085 153.704 619.738 153.891 619.438C154.077 619.132 154.314 618.895 154.602 618.727C154.893 618.553 155.24 618.467 155.641 618.467C155.732 618.467 155.837 618.478 155.955 618.501C156.074 618.519 156.156 618.54 156.201 618.562ZM165.505 624.564V615.5H166.776V626H165.614L165.505 624.564ZM160.528 622.384V622.24C160.528 621.675 160.597 621.162 160.733 620.702C160.875 620.237 161.073 619.839 161.328 619.506C161.588 619.173 161.896 618.918 162.251 618.74C162.611 618.558 163.012 618.467 163.454 618.467C163.919 618.467 164.325 618.549 164.671 618.713C165.022 618.872 165.318 619.107 165.56 619.417C165.806 619.722 165.999 620.091 166.141 620.524C166.282 620.957 166.38 621.447 166.435 621.994V622.623C166.384 623.165 166.286 623.653 166.141 624.086C165.999 624.519 165.806 624.888 165.56 625.193C165.318 625.499 165.022 625.733 164.671 625.897C164.32 626.057 163.91 626.137 163.44 626.137C163.007 626.137 162.611 626.043 162.251 625.856C161.896 625.67 161.588 625.408 161.328 625.07C161.073 624.733 160.875 624.337 160.733 623.881C160.597 623.421 160.528 622.922 160.528 622.384ZM161.8 622.24V622.384C161.8 622.753 161.836 623.099 161.909 623.423C161.987 623.746 162.105 624.031 162.265 624.277C162.424 624.523 162.627 624.717 162.873 624.858C163.119 624.995 163.413 625.063 163.755 625.063C164.174 625.063 164.518 624.975 164.787 624.797C165.061 624.619 165.279 624.384 165.443 624.093C165.607 623.801 165.735 623.484 165.826 623.143V621.495C165.771 621.244 165.692 621.003 165.587 620.771C165.487 620.534 165.354 620.324 165.19 620.142C165.031 619.955 164.833 619.807 164.596 619.697C164.363 619.588 164.088 619.533 163.769 619.533C163.422 619.533 163.124 619.606 162.873 619.752C162.627 619.893 162.424 620.089 162.265 620.34C162.105 620.586 161.987 620.873 161.909 621.201C161.836 621.525 161.8 621.871 161.8 622.24ZM173.106 624.735V620.928C173.106 620.636 173.047 620.383 172.929 620.169C172.815 619.95 172.642 619.782 172.409 619.663C172.177 619.545 171.89 619.485 171.548 619.485C171.229 619.485 170.949 619.54 170.707 619.649C170.47 619.759 170.283 619.902 170.146 620.08C170.014 620.258 169.948 620.449 169.948 620.654H168.684C168.684 620.39 168.752 620.128 168.889 619.868C169.025 619.608 169.221 619.374 169.477 619.164C169.736 618.95 170.046 618.781 170.406 618.658C170.771 618.531 171.176 618.467 171.623 618.467C172.161 618.467 172.635 618.558 173.045 618.74C173.46 618.923 173.783 619.198 174.016 619.567C174.253 619.932 174.371 620.39 174.371 620.941V624.387C174.371 624.633 174.392 624.895 174.433 625.173C174.478 625.451 174.544 625.69 174.631 625.891V626H173.312C173.248 625.854 173.198 625.66 173.161 625.419C173.125 625.173 173.106 624.945 173.106 624.735ZM173.325 621.516L173.339 622.404H172.061C171.701 622.404 171.379 622.434 171.097 622.493C170.814 622.548 170.577 622.632 170.386 622.746C170.194 622.86 170.049 623.004 169.948 623.177C169.848 623.345 169.798 623.544 169.798 623.771C169.798 624.004 169.85 624.216 169.955 624.407C170.06 624.599 170.217 624.751 170.427 624.865C170.641 624.975 170.903 625.029 171.213 625.029C171.6 625.029 171.942 624.947 172.238 624.783C172.535 624.619 172.769 624.419 172.942 624.182C173.12 623.945 173.216 623.715 173.229 623.491L173.77 624.1C173.738 624.291 173.651 624.503 173.51 624.735C173.368 624.968 173.179 625.191 172.942 625.405C172.71 625.615 172.432 625.79 172.108 625.932C171.789 626.068 171.429 626.137 171.028 626.137C170.527 626.137 170.087 626.039 169.709 625.843C169.335 625.647 169.044 625.385 168.834 625.057C168.629 624.724 168.526 624.353 168.526 623.942C168.526 623.546 168.604 623.197 168.759 622.896C168.914 622.591 169.137 622.338 169.429 622.138C169.72 621.933 170.071 621.778 170.481 621.673C170.892 621.568 171.35 621.516 171.855 621.516H173.325ZM179.457 618.604V619.574H175.458V618.604H179.457ZM176.812 616.806H178.076V624.168C178.076 624.419 178.115 624.608 178.192 624.735C178.27 624.863 178.37 624.947 178.493 624.988C178.616 625.029 178.748 625.05 178.89 625.05C178.994 625.05 179.104 625.041 179.218 625.022C179.336 625 179.425 624.981 179.484 624.968L179.491 626C179.391 626.032 179.259 626.062 179.095 626.089C178.935 626.121 178.742 626.137 178.514 626.137C178.204 626.137 177.919 626.075 177.659 625.952C177.399 625.829 177.192 625.624 177.037 625.337C176.887 625.045 176.812 624.653 176.812 624.161V616.806ZM185.302 624.735V620.928C185.302 620.636 185.243 620.383 185.124 620.169C185.01 619.95 184.837 619.782 184.604 619.663C184.372 619.545 184.085 619.485 183.743 619.485C183.424 619.485 183.144 619.54 182.902 619.649C182.665 619.759 182.479 619.902 182.342 620.08C182.21 620.258 182.144 620.449 182.144 620.654H180.879C180.879 620.39 180.947 620.128 181.084 619.868C181.221 619.608 181.417 619.374 181.672 619.164C181.932 618.95 182.242 618.781 182.602 618.658C182.966 618.531 183.372 618.467 183.818 618.467C184.356 618.467 184.83 618.558 185.24 618.74C185.655 618.923 185.979 619.198 186.211 619.567C186.448 619.932 186.566 620.39 186.566 620.941V624.387C186.566 624.633 186.587 624.895 186.628 625.173C186.674 625.451 186.74 625.69 186.826 625.891V626H185.507C185.443 625.854 185.393 625.66 185.356 625.419C185.32 625.173 185.302 624.945 185.302 624.735ZM185.521 621.516L185.534 622.404H184.256C183.896 622.404 183.575 622.434 183.292 622.493C183.009 622.548 182.772 622.632 182.581 622.746C182.39 622.86 182.244 623.004 182.144 623.177C182.043 623.345 181.993 623.544 181.993 623.771C181.993 624.004 182.046 624.216 182.15 624.407C182.255 624.599 182.412 624.751 182.622 624.865C182.836 624.975 183.098 625.029 183.408 625.029C183.796 625.029 184.137 624.947 184.434 624.783C184.73 624.619 184.965 624.419 185.138 624.182C185.315 623.945 185.411 623.715 185.425 623.491L185.965 624.1C185.933 624.291 185.846 624.503 185.705 624.735C185.564 624.968 185.375 625.191 185.138 625.405C184.905 625.615 184.627 625.79 184.304 625.932C183.985 626.068 183.625 626.137 183.224 626.137C182.722 626.137 182.283 626.039 181.904 625.843C181.531 625.647 181.239 625.385 181.029 625.057C180.824 624.724 180.722 624.353 180.722 623.942C180.722 623.546 180.799 623.197 180.954 622.896C181.109 622.591 181.332 622.338 181.624 622.138C181.916 621.933 182.267 621.778 182.677 621.673C183.087 621.568 183.545 621.516 184.051 621.516H185.521ZM193.402 618.604V626H192.131V618.604H193.402ZM192.035 616.642C192.035 616.437 192.097 616.263 192.22 616.122C192.347 615.981 192.534 615.91 192.78 615.91C193.022 615.91 193.206 615.981 193.334 616.122C193.466 616.263 193.532 616.437 193.532 616.642C193.532 616.838 193.466 617.006 193.334 617.147C193.206 617.284 193.022 617.353 192.78 617.353C192.534 617.353 192.347 617.284 192.22 617.147C192.097 617.006 192.035 616.838 192.035 616.642ZM199.739 624.038C199.739 623.856 199.698 623.687 199.616 623.532C199.539 623.373 199.377 623.229 199.131 623.102C198.889 622.969 198.525 622.855 198.037 622.76C197.627 622.673 197.256 622.571 196.923 622.452C196.595 622.334 196.314 622.19 196.082 622.021C195.854 621.853 195.679 621.655 195.556 621.427C195.433 621.199 195.371 620.932 195.371 620.627C195.371 620.335 195.435 620.06 195.562 619.8C195.695 619.54 195.879 619.31 196.116 619.109C196.358 618.909 196.647 618.752 196.984 618.638C197.322 618.524 197.698 618.467 198.112 618.467C198.705 618.467 199.211 618.572 199.63 618.781C200.049 618.991 200.37 619.271 200.594 619.622C200.817 619.968 200.929 620.354 200.929 620.777H199.664C199.664 620.572 199.603 620.374 199.479 620.183C199.361 619.987 199.186 619.825 198.953 619.697C198.725 619.57 198.445 619.506 198.112 619.506C197.761 619.506 197.477 619.561 197.258 619.67C197.044 619.775 196.886 619.909 196.786 620.073C196.69 620.237 196.643 620.41 196.643 620.593C196.643 620.729 196.665 620.853 196.711 620.962C196.761 621.067 196.848 621.165 196.971 621.256C197.094 621.342 197.267 621.424 197.49 621.502C197.714 621.579 197.998 621.657 198.345 621.734C198.951 621.871 199.45 622.035 199.842 622.227C200.234 622.418 200.525 622.653 200.717 622.931C200.908 623.209 201.004 623.546 201.004 623.942C201.004 624.266 200.936 624.562 200.799 624.831C200.667 625.1 200.473 625.332 200.218 625.528C199.967 625.72 199.666 625.87 199.315 625.979C198.969 626.084 198.579 626.137 198.146 626.137C197.495 626.137 196.943 626.021 196.492 625.788C196.041 625.556 195.699 625.255 195.467 624.886C195.234 624.517 195.118 624.127 195.118 623.717H196.39C196.408 624.063 196.508 624.339 196.69 624.544C196.873 624.744 197.096 624.888 197.36 624.975C197.625 625.057 197.887 625.098 198.146 625.098C198.493 625.098 198.782 625.052 199.015 624.961C199.252 624.87 199.432 624.744 199.555 624.585C199.678 624.425 199.739 624.243 199.739 624.038ZM207.402 620.025V628.844H206.131V618.604H207.293L207.402 620.025ZM212.386 622.24V622.384C212.386 622.922 212.322 623.421 212.194 623.881C212.067 624.337 211.88 624.733 211.634 625.07C211.392 625.408 211.094 625.67 210.738 625.856C210.383 626.043 209.975 626.137 209.515 626.137C209.045 626.137 208.631 626.059 208.271 625.904C207.91 625.749 207.605 625.524 207.354 625.228C207.104 624.931 206.903 624.576 206.753 624.161C206.607 623.746 206.507 623.279 206.452 622.76V621.994C206.507 621.447 206.609 620.957 206.76 620.524C206.91 620.091 207.108 619.722 207.354 619.417C207.605 619.107 207.908 618.872 208.264 618.713C208.619 618.549 209.029 618.467 209.494 618.467C209.959 618.467 210.371 618.558 210.731 618.74C211.091 618.918 211.395 619.173 211.641 619.506C211.887 619.839 212.071 620.237 212.194 620.702C212.322 621.162 212.386 621.675 212.386 622.24ZM211.114 622.384V622.24C211.114 621.871 211.076 621.525 210.998 621.201C210.921 620.873 210.8 620.586 210.636 620.34C210.476 620.089 210.271 619.893 210.021 619.752C209.77 619.606 209.471 619.533 209.125 619.533C208.806 619.533 208.528 619.588 208.291 619.697C208.059 619.807 207.86 619.955 207.696 620.142C207.532 620.324 207.398 620.534 207.293 620.771C207.193 621.003 207.118 621.244 207.067 621.495V623.266C207.159 623.585 207.286 623.885 207.45 624.168C207.614 624.446 207.833 624.672 208.106 624.845C208.38 625.013 208.724 625.098 209.139 625.098C209.48 625.098 209.774 625.027 210.021 624.886C210.271 624.74 210.476 624.542 210.636 624.291C210.8 624.04 210.921 623.753 210.998 623.43C211.076 623.102 211.114 622.753 211.114 622.384ZM215.264 619.766V626H213.999V618.604H215.229L215.264 619.766ZM217.574 618.562L217.567 619.738C217.463 619.715 217.362 619.702 217.267 619.697C217.175 619.688 217.071 619.684 216.952 619.684C216.66 619.684 216.403 619.729 216.18 619.82C215.956 619.911 215.767 620.039 215.612 620.203C215.457 620.367 215.334 620.563 215.243 620.791C215.157 621.014 215.1 621.26 215.072 621.529L214.717 621.734C214.717 621.288 214.76 620.868 214.847 620.477C214.938 620.085 215.077 619.738 215.264 619.438C215.451 619.132 215.688 618.895 215.975 618.727C216.266 618.553 216.613 618.467 217.014 618.467C217.105 618.467 217.21 618.478 217.328 618.501C217.447 618.519 217.529 618.54 217.574 618.562ZM218.271 622.384V622.227C218.271 621.693 218.349 621.199 218.504 620.743C218.659 620.283 218.882 619.884 219.174 619.547C219.465 619.205 219.819 618.941 220.233 618.754C220.648 618.562 221.113 618.467 221.628 618.467C222.147 618.467 222.615 618.562 223.029 618.754C223.449 618.941 223.804 619.205 224.096 619.547C224.392 619.884 224.618 620.283 224.772 620.743C224.927 621.199 225.005 621.693 225.005 622.227V622.384C225.005 622.917 224.927 623.411 224.772 623.867C224.618 624.323 224.392 624.722 224.096 625.063C223.804 625.401 223.451 625.665 223.036 625.856C222.626 626.043 222.161 626.137 221.642 626.137C221.122 626.137 220.655 626.043 220.24 625.856C219.826 625.665 219.47 625.401 219.174 625.063C218.882 624.722 218.659 624.323 218.504 623.867C218.349 623.411 218.271 622.917 218.271 622.384ZM219.536 622.227V622.384C219.536 622.753 219.579 623.102 219.666 623.43C219.753 623.753 219.882 624.04 220.056 624.291C220.233 624.542 220.454 624.74 220.719 624.886C220.983 625.027 221.291 625.098 221.642 625.098C221.988 625.098 222.291 625.027 222.551 624.886C222.815 624.74 223.034 624.542 223.207 624.291C223.38 624.04 223.51 623.753 223.597 623.43C223.688 623.102 223.733 622.753 223.733 622.384V622.227C223.733 621.862 223.688 621.518 223.597 621.194C223.51 620.866 223.378 620.577 223.2 620.326C223.027 620.071 222.808 619.87 222.544 619.725C222.284 619.579 221.979 619.506 221.628 619.506C221.282 619.506 220.976 619.579 220.712 619.725C220.452 619.87 220.233 620.071 220.056 620.326C219.882 620.577 219.753 620.866 219.666 621.194C219.579 621.518 219.536 621.862 219.536 622.227ZM229.688 618.604V619.574H225.688V618.604H229.688ZM227.042 616.806H228.307V624.168C228.307 624.419 228.345 624.608 228.423 624.735C228.5 624.863 228.601 624.947 228.724 624.988C228.847 625.029 228.979 625.05 229.12 625.05C229.225 625.05 229.334 625.041 229.448 625.022C229.567 625 229.656 624.981 229.715 624.968L229.722 626C229.621 626.032 229.489 626.062 229.325 626.089C229.166 626.121 228.972 626.137 228.744 626.137C228.434 626.137 228.149 626.075 227.89 625.952C227.63 625.829 227.423 625.624 227.268 625.337C227.117 625.045 227.042 624.653 227.042 624.161V616.806ZM234.24 626.137C233.725 626.137 233.258 626.05 232.839 625.877C232.424 625.699 232.066 625.451 231.766 625.132C231.469 624.813 231.242 624.435 231.082 623.997C230.923 623.56 230.843 623.081 230.843 622.562V622.274C230.843 621.673 230.932 621.137 231.109 620.668C231.287 620.194 231.529 619.793 231.834 619.465C232.139 619.137 232.486 618.888 232.873 618.72C233.26 618.551 233.661 618.467 234.076 618.467C234.605 618.467 235.061 618.558 235.443 618.74C235.831 618.923 236.147 619.178 236.394 619.506C236.64 619.829 236.822 620.212 236.94 620.654C237.059 621.092 237.118 621.57 237.118 622.09V622.657H231.595V621.625H235.854V621.529C235.835 621.201 235.767 620.882 235.648 620.572C235.535 620.262 235.352 620.007 235.102 619.807C234.851 619.606 234.509 619.506 234.076 619.506C233.789 619.506 233.525 619.567 233.283 619.69C233.042 619.809 232.834 619.987 232.661 620.224C232.488 620.461 232.354 620.75 232.258 621.092C232.162 621.434 232.114 621.828 232.114 622.274V622.562C232.114 622.912 232.162 623.243 232.258 623.553C232.358 623.858 232.502 624.127 232.688 624.359C232.88 624.592 233.11 624.774 233.379 624.906C233.652 625.038 233.962 625.104 234.309 625.104C234.755 625.104 235.133 625.013 235.443 624.831C235.753 624.649 236.024 624.405 236.257 624.1L237.022 624.708C236.863 624.95 236.66 625.18 236.414 625.398C236.168 625.617 235.865 625.795 235.505 625.932C235.149 626.068 234.728 626.137 234.24 626.137ZM241.555 625.098C241.855 625.098 242.133 625.036 242.389 624.913C242.644 624.79 242.854 624.621 243.018 624.407C243.182 624.188 243.275 623.94 243.298 623.662H244.501C244.478 624.1 244.33 624.507 244.057 624.886C243.788 625.259 243.435 625.562 242.997 625.795C242.56 626.023 242.079 626.137 241.555 626.137C240.999 626.137 240.513 626.039 240.099 625.843C239.688 625.647 239.347 625.378 239.073 625.036C238.804 624.694 238.602 624.302 238.465 623.86C238.333 623.414 238.267 622.942 238.267 622.445V622.158C238.267 621.661 238.333 621.192 238.465 620.75C238.602 620.303 238.804 619.909 239.073 619.567C239.347 619.226 239.688 618.957 240.099 618.761C240.513 618.565 240.999 618.467 241.555 618.467C242.133 618.467 242.639 618.585 243.072 618.822C243.505 619.055 243.845 619.374 244.091 619.779C244.341 620.18 244.478 620.636 244.501 621.146H243.298C243.275 620.841 243.188 620.565 243.038 620.319C242.892 620.073 242.692 619.877 242.437 619.731C242.186 619.581 241.892 619.506 241.555 619.506C241.167 619.506 240.841 619.583 240.577 619.738C240.317 619.889 240.11 620.094 239.955 620.354C239.805 620.609 239.695 620.894 239.627 621.208C239.563 621.518 239.531 621.835 239.531 622.158V622.445C239.531 622.769 239.563 623.088 239.627 623.402C239.691 623.717 239.798 624.002 239.948 624.257C240.103 624.512 240.311 624.717 240.57 624.872C240.835 625.022 241.163 625.098 241.555 625.098ZM249.02 618.604V619.574H245.021V618.604H249.02ZM246.374 616.806H247.639V624.168C247.639 624.419 247.677 624.608 247.755 624.735C247.832 624.863 247.933 624.947 248.056 624.988C248.179 625.029 248.311 625.05 248.452 625.05C248.557 625.05 248.666 625.041 248.78 625.022C248.899 625 248.988 624.981 249.047 624.968L249.054 626C248.953 626.032 248.821 626.062 248.657 626.089C248.498 626.121 248.304 626.137 248.076 626.137C247.766 626.137 247.481 626.075 247.222 625.952C246.962 625.829 246.755 625.624 246.6 625.337C246.449 625.045 246.374 624.653 246.374 624.161V616.806ZM253.572 626.137C253.057 626.137 252.59 626.05 252.171 625.877C251.756 625.699 251.398 625.451 251.098 625.132C250.801 624.813 250.574 624.435 250.414 623.997C250.255 623.56 250.175 623.081 250.175 622.562V622.274C250.175 621.673 250.264 621.137 250.441 620.668C250.619 620.194 250.861 619.793 251.166 619.465C251.471 619.137 251.818 618.888 252.205 618.72C252.592 618.551 252.993 618.467 253.408 618.467C253.937 618.467 254.393 618.558 254.775 618.74C255.163 618.923 255.479 619.178 255.726 619.506C255.972 619.829 256.154 620.212 256.272 620.654C256.391 621.092 256.45 621.57 256.45 622.09V622.657H250.927V621.625H255.186V621.529C255.167 621.201 255.099 620.882 254.98 620.572C254.867 620.262 254.684 620.007 254.434 619.807C254.183 619.606 253.841 619.506 253.408 619.506C253.121 619.506 252.857 619.567 252.615 619.69C252.374 619.809 252.166 619.987 251.993 620.224C251.82 620.461 251.686 620.75 251.59 621.092C251.494 621.434 251.446 621.828 251.446 622.274V622.562C251.446 622.912 251.494 623.243 251.59 623.553C251.69 623.858 251.834 624.127 252.021 624.359C252.212 624.592 252.442 624.774 252.711 624.906C252.984 625.038 253.294 625.104 253.641 625.104C254.087 625.104 254.465 625.013 254.775 624.831C255.085 624.649 255.356 624.405 255.589 624.1L256.354 624.708C256.195 624.95 255.992 625.18 255.746 625.398C255.5 625.617 255.197 625.795 254.837 625.932C254.481 626.068 254.06 626.137 253.572 626.137ZM262.589 624.564V615.5H263.86V626H262.698L262.589 624.564ZM257.612 622.384V622.24C257.612 621.675 257.681 621.162 257.817 620.702C257.959 620.237 258.157 619.839 258.412 619.506C258.672 619.173 258.979 618.918 259.335 618.74C259.695 618.558 260.096 618.467 260.538 618.467C261.003 618.467 261.409 618.549 261.755 618.713C262.106 618.872 262.402 619.107 262.644 619.417C262.89 619.722 263.083 620.091 263.225 620.524C263.366 620.957 263.464 621.447 263.519 621.994V622.623C263.468 623.165 263.37 623.653 263.225 624.086C263.083 624.519 262.89 624.888 262.644 625.193C262.402 625.499 262.106 625.733 261.755 625.897C261.404 626.057 260.994 626.137 260.524 626.137C260.091 626.137 259.695 626.043 259.335 625.856C258.979 625.67 258.672 625.408 258.412 625.07C258.157 624.733 257.959 624.337 257.817 623.881C257.681 623.421 257.612 622.922 257.612 622.384ZM258.884 622.24V622.384C258.884 622.753 258.92 623.099 258.993 623.423C259.071 623.746 259.189 624.031 259.349 624.277C259.508 624.523 259.711 624.717 259.957 624.858C260.203 624.995 260.497 625.063 260.839 625.063C261.258 625.063 261.602 624.975 261.871 624.797C262.145 624.619 262.363 624.384 262.527 624.093C262.691 623.801 262.819 623.484 262.91 623.143V621.495C262.855 621.244 262.776 621.003 262.671 620.771C262.571 620.534 262.438 620.324 262.274 620.142C262.115 619.955 261.917 619.807 261.68 619.697C261.447 619.588 261.172 619.533 260.853 619.533C260.506 619.533 260.208 619.606 259.957 619.752C259.711 619.893 259.508 620.089 259.349 620.34C259.189 620.586 259.071 620.873 258.993 621.201C258.92 621.525 258.884 621.871 258.884 622.24ZM269.295 615.5H270.566V624.564L270.457 626H269.295V615.5ZM275.563 622.24V622.384C275.563 622.922 275.5 623.421 275.372 623.881C275.244 624.337 275.058 624.733 274.812 625.07C274.565 625.408 274.265 625.67 273.909 625.856C273.554 626.043 273.146 626.137 272.686 626.137C272.216 626.137 271.804 626.057 271.448 625.897C271.097 625.733 270.801 625.499 270.56 625.193C270.318 624.888 270.124 624.519 269.979 624.086C269.837 623.653 269.739 623.165 269.685 622.623V621.994C269.739 621.447 269.837 620.957 269.979 620.524C270.124 620.091 270.318 619.722 270.56 619.417C270.801 619.107 271.097 618.872 271.448 618.713C271.799 618.549 272.207 618.467 272.672 618.467C273.137 618.467 273.549 618.558 273.909 618.74C274.269 618.918 274.57 619.173 274.812 619.506C275.058 619.839 275.244 620.237 275.372 620.702C275.5 621.162 275.563 621.675 275.563 622.24ZM274.292 622.384V622.24C274.292 621.871 274.258 621.525 274.189 621.201C274.121 620.873 274.012 620.586 273.861 620.34C273.711 620.089 273.513 619.893 273.267 619.752C273.021 619.606 272.717 619.533 272.357 619.533C272.038 619.533 271.76 619.588 271.523 619.697C271.291 619.807 271.093 619.955 270.929 620.142C270.765 620.324 270.63 620.534 270.525 620.771C270.425 621.003 270.35 621.244 270.3 621.495V623.143C270.373 623.462 270.491 623.769 270.655 624.065C270.824 624.357 271.047 624.596 271.325 624.783C271.608 624.97 271.956 625.063 272.371 625.063C272.713 625.063 273.005 624.995 273.246 624.858C273.492 624.717 273.69 624.523 273.841 624.277C273.996 624.031 274.11 623.746 274.183 623.423C274.256 623.099 274.292 622.753 274.292 622.384ZM279.159 625.234L281.217 618.604H282.57L279.604 627.142C279.535 627.324 279.444 627.52 279.33 627.729C279.221 627.944 279.079 628.146 278.906 628.338C278.733 628.529 278.523 628.684 278.277 628.803C278.036 628.926 277.746 628.987 277.409 628.987C277.309 628.987 277.181 628.974 277.026 628.946C276.871 628.919 276.762 628.896 276.698 628.878L276.691 627.853C276.728 627.857 276.785 627.862 276.862 627.866C276.944 627.875 277.001 627.88 277.033 627.88C277.32 627.88 277.564 627.841 277.765 627.764C277.965 627.691 278.134 627.565 278.271 627.388C278.412 627.215 278.533 626.975 278.633 626.67L279.159 625.234ZM277.648 618.604L279.569 624.346L279.897 625.679L278.988 626.144L276.268 618.604H277.648ZM290.254 626.137C289.739 626.137 289.272 626.05 288.853 625.877C288.438 625.699 288.08 625.451 287.779 625.132C287.483 624.813 287.255 624.435 287.096 623.997C286.936 623.56 286.856 623.081 286.856 622.562V622.274C286.856 621.673 286.945 621.137 287.123 620.668C287.301 620.194 287.542 619.793 287.848 619.465C288.153 619.137 288.499 618.888 288.887 618.72C289.274 618.551 289.675 618.467 290.09 618.467C290.618 618.467 291.074 618.558 291.457 618.74C291.844 618.923 292.161 619.178 292.407 619.506C292.653 619.829 292.836 620.212 292.954 620.654C293.073 621.092 293.132 621.57 293.132 622.09V622.657H287.608V621.625H291.867V621.529C291.849 621.201 291.781 620.882 291.662 620.572C291.548 620.262 291.366 620.007 291.115 619.807C290.865 619.606 290.523 619.506 290.09 619.506C289.803 619.506 289.538 619.567 289.297 619.69C289.055 619.809 288.848 619.987 288.675 620.224C288.502 620.461 288.367 620.75 288.271 621.092C288.176 621.434 288.128 621.828 288.128 622.274V622.562C288.128 622.912 288.176 623.243 288.271 623.553C288.372 623.858 288.515 624.127 288.702 624.359C288.894 624.592 289.124 624.774 289.393 624.906C289.666 625.038 289.976 625.104 290.322 625.104C290.769 625.104 291.147 625.013 291.457 624.831C291.767 624.649 292.038 624.405 292.271 624.1L293.036 624.708C292.877 624.95 292.674 625.18 292.428 625.398C292.182 625.617 291.879 625.795 291.519 625.932C291.163 626.068 290.742 626.137 290.254 626.137ZM295.873 620.183V626H294.608V618.604H295.805L295.873 620.183ZM295.572 622.021L295.046 622.001C295.05 621.495 295.126 621.028 295.271 620.6C295.417 620.167 295.622 619.791 295.887 619.472C296.151 619.153 296.465 618.907 296.83 618.733C297.199 618.556 297.607 618.467 298.054 618.467C298.418 618.467 298.746 618.517 299.038 618.617C299.33 618.713 299.578 618.868 299.783 619.082C299.993 619.296 300.152 619.574 300.262 619.916C300.371 620.253 300.426 620.666 300.426 621.153V626H299.154V621.14C299.154 620.752 299.097 620.442 298.983 620.21C298.869 619.973 298.703 619.802 298.484 619.697C298.266 619.588 297.997 619.533 297.678 619.533C297.363 619.533 297.076 619.599 296.816 619.731C296.561 619.864 296.34 620.046 296.153 620.278C295.971 620.511 295.827 620.777 295.723 621.078C295.622 621.374 295.572 621.689 295.572 622.021ZM305.307 625.098C305.607 625.098 305.885 625.036 306.141 624.913C306.396 624.79 306.605 624.621 306.77 624.407C306.934 624.188 307.027 623.94 307.05 623.662H308.253C308.23 624.1 308.082 624.507 307.809 624.886C307.54 625.259 307.187 625.562 306.749 625.795C306.312 626.023 305.831 626.137 305.307 626.137C304.751 626.137 304.265 626.039 303.851 625.843C303.44 625.647 303.099 625.378 302.825 625.036C302.556 624.694 302.354 624.302 302.217 623.86C302.085 623.414 302.019 622.942 302.019 622.445V622.158C302.019 621.661 302.085 621.192 302.217 620.75C302.354 620.303 302.556 619.909 302.825 619.567C303.099 619.226 303.44 618.957 303.851 618.761C304.265 618.565 304.751 618.467 305.307 618.467C305.885 618.467 306.391 618.585 306.824 618.822C307.257 619.055 307.597 619.374 307.843 619.779C308.093 620.18 308.23 620.636 308.253 621.146H307.05C307.027 620.841 306.94 620.565 306.79 620.319C306.644 620.073 306.444 619.877 306.188 619.731C305.938 619.581 305.644 619.506 305.307 619.506C304.919 619.506 304.593 619.583 304.329 619.738C304.069 619.889 303.862 620.094 303.707 620.354C303.557 620.609 303.447 620.894 303.379 621.208C303.315 621.518 303.283 621.835 303.283 622.158V622.445C303.283 622.769 303.315 623.088 303.379 623.402C303.443 623.717 303.55 624.002 303.7 624.257C303.855 624.512 304.062 624.717 304.322 624.872C304.587 625.022 304.915 625.098 305.307 625.098ZM310.939 619.766V626H309.675V618.604H310.905L310.939 619.766ZM313.25 618.562L313.243 619.738C313.138 619.715 313.038 619.702 312.942 619.697C312.851 619.688 312.746 619.684 312.628 619.684C312.336 619.684 312.079 619.729 311.855 619.82C311.632 619.911 311.443 620.039 311.288 620.203C311.133 620.367 311.01 620.563 310.919 620.791C310.832 621.014 310.775 621.26 310.748 621.529L310.393 621.734C310.393 621.288 310.436 620.868 310.522 620.477C310.614 620.085 310.753 619.738 310.939 619.438C311.126 619.132 311.363 618.895 311.65 618.727C311.942 618.553 312.288 618.467 312.689 618.467C312.781 618.467 312.885 618.478 313.004 618.501C313.122 618.519 313.204 618.54 313.25 618.562ZM316.62 625.234L318.678 618.604H320.031L317.064 627.142C316.996 627.324 316.905 627.52 316.791 627.729C316.682 627.944 316.54 628.146 316.367 628.338C316.194 628.529 315.984 628.684 315.738 628.803C315.497 628.926 315.207 628.987 314.87 628.987C314.77 628.987 314.642 628.974 314.487 628.946C314.332 628.919 314.223 628.896 314.159 628.878L314.152 627.853C314.189 627.857 314.246 627.862 314.323 627.866C314.405 627.875 314.462 627.88 314.494 627.88C314.781 627.88 315.025 627.841 315.226 627.764C315.426 627.691 315.595 627.565 315.731 627.388C315.873 627.215 315.993 626.975 316.094 626.67L316.62 625.234ZM315.109 618.604L317.03 624.346L317.358 625.679L316.449 626.144L313.729 618.604H315.109ZM322.438 620.025V628.844H321.166V618.604H322.328L322.438 620.025ZM327.421 622.24V622.384C327.421 622.922 327.357 623.421 327.229 623.881C327.102 624.337 326.915 624.733 326.669 625.07C326.427 625.408 326.129 625.67 325.773 625.856C325.418 626.043 325.01 626.137 324.55 626.137C324.08 626.137 323.666 626.059 323.306 625.904C322.946 625.749 322.64 625.524 322.39 625.228C322.139 624.931 321.938 624.576 321.788 624.161C321.642 623.746 321.542 623.279 321.487 622.76V621.994C321.542 621.447 321.645 620.957 321.795 620.524C321.945 620.091 322.144 619.722 322.39 619.417C322.64 619.107 322.943 618.872 323.299 618.713C323.654 618.549 324.064 618.467 324.529 618.467C324.994 618.467 325.407 618.558 325.767 618.74C326.127 618.918 326.43 619.173 326.676 619.506C326.922 619.839 327.106 620.237 327.229 620.702C327.357 621.162 327.421 621.675 327.421 622.24ZM326.149 622.384V622.24C326.149 621.871 326.111 621.525 326.033 621.201C325.956 620.873 325.835 620.586 325.671 620.34C325.511 620.089 325.306 619.893 325.056 619.752C324.805 619.606 324.507 619.533 324.16 619.533C323.841 619.533 323.563 619.588 323.326 619.697C323.094 619.807 322.896 619.955 322.731 620.142C322.567 620.324 322.433 620.534 322.328 620.771C322.228 621.003 322.153 621.244 322.103 621.495V623.266C322.194 623.585 322.321 623.885 322.485 624.168C322.649 624.446 322.868 624.672 323.142 624.845C323.415 625.013 323.759 625.098 324.174 625.098C324.516 625.098 324.81 625.027 325.056 624.886C325.306 624.74 325.511 624.542 325.671 624.291C325.835 624.04 325.956 623.753 326.033 623.43C326.111 623.102 326.149 622.753 326.149 622.384ZM332.131 618.604V619.574H328.132V618.604H332.131ZM329.485 616.806H330.75V624.168C330.75 624.419 330.789 624.608 330.866 624.735C330.944 624.863 331.044 624.947 331.167 624.988C331.29 625.029 331.422 625.05 331.563 625.05C331.668 625.05 331.778 625.041 331.892 625.022C332.01 625 332.099 624.981 332.158 624.968L332.165 626C332.065 626.032 331.933 626.062 331.769 626.089C331.609 626.121 331.415 626.137 331.188 626.137C330.878 626.137 330.593 626.075 330.333 625.952C330.073 625.829 329.866 625.624 329.711 625.337C329.561 625.045 329.485 624.653 329.485 624.161V616.806ZM334.988 618.604V626H333.717V618.604H334.988ZM333.621 616.642C333.621 616.437 333.683 616.263 333.806 616.122C333.933 615.981 334.12 615.91 334.366 615.91C334.608 615.91 334.792 615.981 334.92 616.122C335.052 616.263 335.118 616.437 335.118 616.642C335.118 616.838 335.052 617.006 334.92 617.147C334.792 617.284 334.608 617.353 334.366 617.353C334.12 617.353 333.933 617.284 333.806 617.147C333.683 617.006 333.621 616.838 333.621 616.642ZM336.684 622.384V622.227C336.684 621.693 336.761 621.199 336.916 620.743C337.071 620.283 337.294 619.884 337.586 619.547C337.878 619.205 338.231 618.941 338.646 618.754C339.06 618.562 339.525 618.467 340.04 618.467C340.56 618.467 341.027 618.562 341.441 618.754C341.861 618.941 342.216 619.205 342.508 619.547C342.804 619.884 343.03 620.283 343.185 620.743C343.34 621.199 343.417 621.693 343.417 622.227V622.384C343.417 622.917 343.34 623.411 343.185 623.867C343.03 624.323 342.804 624.722 342.508 625.063C342.216 625.401 341.863 625.665 341.448 625.856C341.038 626.043 340.573 626.137 340.054 626.137C339.534 626.137 339.067 626.043 338.652 625.856C338.238 625.665 337.882 625.401 337.586 625.063C337.294 624.722 337.071 624.323 336.916 623.867C336.761 623.411 336.684 622.917 336.684 622.384ZM337.948 622.227V622.384C337.948 622.753 337.992 623.102 338.078 623.43C338.165 623.753 338.295 624.04 338.468 624.291C338.646 624.542 338.867 624.74 339.131 624.886C339.395 625.027 339.703 625.098 340.054 625.098C340.4 625.098 340.703 625.027 340.963 624.886C341.227 624.74 341.446 624.542 341.619 624.291C341.792 624.04 341.922 623.753 342.009 623.43C342.1 623.102 342.146 622.753 342.146 622.384V622.227C342.146 621.862 342.1 621.518 342.009 621.194C341.922 620.866 341.79 620.577 341.612 620.326C341.439 620.071 341.22 619.87 340.956 619.725C340.696 619.579 340.391 619.506 340.04 619.506C339.694 619.506 339.388 619.579 339.124 619.725C338.864 619.87 338.646 620.071 338.468 620.326C338.295 620.577 338.165 620.866 338.078 621.194C337.992 621.518 337.948 621.862 337.948 622.227ZM346.268 620.183V626H345.003V618.604H346.199L346.268 620.183ZM345.967 622.021L345.44 622.001C345.445 621.495 345.52 621.028 345.666 620.6C345.812 620.167 346.017 619.791 346.281 619.472C346.546 619.153 346.86 618.907 347.225 618.733C347.594 618.556 348.002 618.467 348.448 618.467C348.813 618.467 349.141 618.517 349.433 618.617C349.724 618.713 349.973 618.868 350.178 619.082C350.387 619.296 350.547 619.574 350.656 619.916C350.766 620.253 350.82 620.666 350.82 621.153V626H349.549V621.14C349.549 620.752 349.492 620.442 349.378 620.21C349.264 619.973 349.098 619.802 348.879 619.697C348.66 619.588 348.391 619.533 348.072 619.533C347.758 619.533 347.471 619.599 347.211 619.731C346.956 619.864 346.735 620.046 346.548 620.278C346.366 620.511 346.222 620.777 346.117 621.078C346.017 621.374 345.967 621.689 345.967 622.021Z" fill="#9E9E9E"/>
<path d="M66.1415 618.938C66.73 618.938 67.207 619.441 67.207 620.062V625.688C67.207 626.309 66.73 626.812 66.1415 626.812H59.749C59.1606 626.812 58.6836 626.309 58.6836 625.688V620.062C58.6836 619.438 59.163 618.938 59.749 618.938H60.2817V617.812C60.2817 616.259 61.4742 615 62.9453 615C63.6517 615 64.3292 615.296 64.8287 615.824C65.3282 616.351 65.6088 617.067 65.6088 617.812V618.938H66.1415ZM62.9453 616.125C62.0627 616.125 61.3471 616.881 61.3471 617.812V618.938H64.5434V617.812C64.5434 616.881 63.8279 616.125 62.9453 616.125Z" fill="#999999"/>
</g>
<defs>
<clipPath id="clip0_2213_24654">
<rect width="411" height="848" fill="white"/>
</clipPath>
</defs>
</svg>
