<svg width="2849" height="1162" viewBox="0 0 2849 1162" fill="none" xmlns="http://www.w3.org/2000/svg">
<rect width="2849" height="1162" fill="white"/>
<rect x="2015.02" y="436.457" width="268.573" height="287.486" fill="#FFF5CC"/>
<path d="M2201.26 339C2209.19 339 2215.74 340.819 2220.81 344.544C2225.89 348.268 2229.4 353.823 2231.39 361.109L2238.79 385.438L2239.21 386.784C2241.37 393.428 2244.17 398.859 2247.57 403.105C2251.13 407.226 2255.67 410.849 2261.19 413.967L2262.31 414.584L2262.33 414.59C2275.21 421.741 2285 431.719 2291.67 444.512H2291.67C2298.49 457.298 2301.88 472.482 2301.88 490.027V492.406H2304.02C2310.08 492.406 2315 494.369 2318.66 498.356C2322.47 502.193 2324.31 507.497 2324.31 514.131V544.542C2324.31 551.191 2322.46 556.567 2318.65 560.55C2314.99 564.386 2310.07 566.267 2304.02 566.267H2301.88V672.269C2301.88 689.814 2298.49 704.997 2291.67 717.783C2284.99 730.576 2275.21 740.555 2262.33 747.706L2262.31 747.712C2256.28 750.963 2251.37 754.789 2247.58 759.181C2243.95 763.708 2241.01 769.662 2238.79 777.078L2238.79 777.086L2231.39 801.176L2231.39 801.177C2229.25 808.471 2225.67 814.028 2220.59 817.752C2215.52 821.475 2209.05 823.296 2201.26 823.296H2097.61C2089.76 823.296 2083.23 821.475 2078.12 817.754C2073.01 814.031 2069.41 808.475 2067.26 801.181L2060.08 777.078C2057.87 769.663 2054.86 763.712 2051.08 759.187L2051.08 759.184C2047.43 754.794 2042.6 750.966 2036.56 747.712L2036.55 747.706C2023.67 740.556 2013.81 730.58 2006.99 717.792L2006.99 717.784C2000.31 704.998 1997 689.814 1997 672.269V490.027C1997 472.331 2000.39 457.071 2007.21 444.282C2014.03 431.344 2023.82 421.437 2036.56 414.584L2036.59 414.57C2042.76 411.47 2047.66 407.65 2051.29 403.124L2051.3 403.117L2051.3 403.109C2055.08 398.586 2058.02 392.713 2060.08 385.455L2060.08 385.446L2067.26 361.117C2069.41 353.822 2073.01 348.266 2078.12 344.542C2083.23 340.821 2089.76 339 2097.61 339H2201.26ZM2083.03 442.145C2066.78 442.145 2054.2 446.884 2045.16 456.256C2036.26 465.483 2031.76 478.347 2031.76 494.983V667.538C2031.76 684.02 2036.26 696.89 2045.17 706.271H2045.17C2054.21 715.488 2066.78 720.151 2083.03 720.151H2215.85C2232.1 720.151 2244.6 715.484 2253.49 706.266V706.265C2262.54 696.883 2267.12 684.016 2267.12 667.538V494.983C2267.12 478.351 2262.54 465.489 2253.5 456.262L2253.49 456.256L2253.49 456.25C2244.6 446.884 2232.1 442.145 2215.85 442.145H2083.03Z" fill="white" stroke="#8E8E93" stroke-width="2"/>
<path d="M881.412 132C914.367 132 940.855 142.234 960.767 162.768L961.705 163.722C981.257 183.859 991 210.333 991 243.043V918.957C991 952.181 980.948 978.971 960.775 999.222L960.776 999.223C940.863 1019.76 914.372 1030 881.412 1030H585.588C552.891 1030 526.404 1019.76 506.229 999.228V999.227C486.053 978.975 476 952.184 476 918.957V243.043C476 209.813 486.054 183.02 506.233 162.768C526.409 142.237 552.893 132 585.588 132H881.412Z" stroke="#8E8E93" stroke-width="2"/>
<path d="M874.703 145C906.069 145 931.281 154.919 950.232 174.821L951.125 175.746C969.732 195.261 979 220.914 979 252.604V907.396C979 939.589 969.436 965.552 950.232 985.179L950.231 985.178C931.28 1005.08 906.069 1015 874.703 1015H593.297C562.179 1015 536.969 1005.08 517.768 985.178C498.565 965.551 489 939.589 489 907.396V252.604L489.007 251.1C489.301 219.601 498.864 194.142 517.768 174.821C536.969 154.923 562.179 145 593.297 145H874.703Z" fill="#FFF5CC" stroke="#8E8E93" stroke-width="2"/>
<path d="M660.467 225.212C666.394 230.855 673.591 233.677 682.058 233.677H784.507C792.692 233.677 799.607 230.855 805.251 225.212C811.178 219.287 814.142 212.092 814.142 203.627C814.142 195.444 811.178 188.531 805.251 182.888C799.607 176.963 792.692 174 784.507 174H682.058C673.591 174 666.394 176.963 660.467 182.888C654.822 188.531 652 195.444 652 203.627C652 212.092 654.822 219.287 660.467 225.212Z" fill="black"/>
<path d="M1348.35 366V327.952H1355.15V360.278H1372.4V366H1348.35ZM1377.23 366V338.051H1383.79V366H1377.23ZM1380.49 334.043C1379.48 334.043 1378.61 333.691 1377.91 332.988C1377.21 332.285 1376.86 331.441 1376.86 330.457C1376.86 329.455 1377.21 328.611 1377.91 327.926C1378.61 327.223 1379.48 326.871 1380.49 326.871C1381.53 326.871 1382.4 327.223 1383.11 327.926C1383.81 328.611 1384.16 329.455 1384.16 330.457C1384.16 331.441 1383.81 332.285 1383.11 332.988C1382.4 333.691 1381.53 334.043 1380.49 334.043ZM1397.32 366L1387.43 338.051H1394.42L1400.91 359.909H1401.07L1407.55 338.051H1414.38L1404.55 366H1397.32ZM1429.1 366.554C1426.3 366.554 1423.9 365.965 1421.87 364.787C1419.87 363.609 1418.33 361.939 1417.26 359.777C1416.19 357.615 1415.65 355.058 1415.65 352.104V352.078C1415.65 349.143 1416.19 346.585 1417.26 344.405C1418.35 342.208 1419.87 340.503 1421.82 339.29C1423.79 338.077 1426.11 337.471 1428.78 337.471C1431.44 337.471 1433.73 338.06 1435.66 339.237C1437.62 340.397 1439.11 342.032 1440.15 344.142C1441.2 346.251 1441.73 348.712 1441.73 351.524V353.634H1418.89V349.257H1438.59L1435.43 353.344V350.812C1435.43 348.984 1435.15 347.464 1434.58 346.251C1434.02 345.038 1433.25 344.133 1432.26 343.535C1431.28 342.92 1430.14 342.612 1428.86 342.612C1427.56 342.612 1426.4 342.929 1425.38 343.562C1424.38 344.177 1423.59 345.1 1423.01 346.33C1422.45 347.561 1422.16 349.055 1422.16 350.812V353.344C1422.16 355.049 1422.45 356.508 1423.01 357.721C1423.59 358.916 1424.41 359.839 1425.46 360.489C1426.51 361.122 1427.77 361.438 1429.23 361.438C1430.32 361.438 1431.28 361.271 1432.1 360.938C1432.93 360.586 1433.61 360.138 1434.13 359.593C1434.68 359.048 1435.06 358.459 1435.27 357.826L1435.32 357.642H1441.44L1441.39 357.932C1441.16 359.004 1440.74 360.059 1440.12 361.096C1439.5 362.115 1438.68 363.038 1437.64 363.864C1436.6 364.69 1435.37 365.35 1433.95 365.842C1432.53 366.316 1430.91 366.554 1429.1 366.554ZM1469.92 366.554C1467.16 366.554 1464.77 365.965 1462.75 364.787C1460.73 363.609 1459.17 361.931 1458.06 359.751C1456.97 357.571 1456.42 354.987 1456.42 351.999V351.973C1456.42 349.002 1456.98 346.436 1458.08 344.273C1459.19 342.094 1460.75 340.415 1462.75 339.237C1464.77 338.06 1467.14 337.471 1469.84 337.471C1472.31 337.471 1474.43 337.945 1476.23 338.895C1478.02 339.826 1479.42 341.065 1480.44 342.612C1481.46 344.159 1482.04 345.864 1482.18 347.728V347.912H1476.01L1475.96 347.701C1475.7 346.348 1475.06 345.196 1474.04 344.247C1473.04 343.28 1471.66 342.797 1469.92 342.797C1468.55 342.797 1467.35 343.175 1466.31 343.931C1465.29 344.669 1464.5 345.724 1463.94 347.095C1463.38 348.466 1463.09 350.109 1463.09 352.025V352.052C1463.09 353.985 1463.38 355.638 1463.94 357.009C1464.52 358.38 1465.32 359.435 1466.34 360.173C1467.38 360.894 1468.58 361.254 1469.95 361.254C1471.62 361.254 1472.96 360.806 1473.98 359.909C1475.02 358.995 1475.69 357.809 1475.99 356.35L1476.04 356.112H1482.24L1482.21 356.297C1482.04 358.23 1481.42 359.971 1480.37 361.518C1479.31 363.064 1477.9 364.295 1476.12 365.209C1474.34 366.105 1472.28 366.554 1469.92 366.554ZM1486.75 366V327.952H1493.32V342.744H1493.45C1494.19 341.057 1495.28 339.756 1496.74 338.842C1498.22 337.928 1500 337.471 1502.07 337.471C1504.09 337.471 1505.84 337.937 1507.32 338.868C1508.79 339.782 1509.94 341.074 1510.74 342.744C1511.55 344.396 1511.96 346.348 1511.96 348.598V366H1505.39V349.89C1505.39 347.745 1504.87 346.066 1503.84 344.854C1502.8 343.623 1501.34 343.008 1499.46 343.008C1498.23 343.008 1497.15 343.307 1496.22 343.904C1495.3 344.484 1494.59 345.293 1494.08 346.33C1493.57 347.35 1493.32 348.536 1493.32 349.89V366H1486.75ZM1525.91 366.475C1524.06 366.475 1522.43 366.123 1521.01 365.42C1519.6 364.699 1518.5 363.706 1517.71 362.44C1516.94 361.157 1516.55 359.689 1516.55 358.037V357.984C1516.55 356.314 1516.96 354.891 1517.79 353.713C1518.63 352.518 1519.85 351.577 1521.43 350.892C1523.01 350.188 1524.93 349.767 1527.18 349.626L1537.85 348.967V353.317L1528.1 353.924C1526.48 354.029 1525.24 354.416 1524.38 355.084C1523.52 355.752 1523.09 356.64 1523.09 357.747V357.773C1523.09 358.916 1523.52 359.821 1524.38 360.489C1525.26 361.14 1526.42 361.465 1527.86 361.465C1529.13 361.465 1530.25 361.21 1531.24 360.7C1532.24 360.19 1533.03 359.496 1533.61 358.617C1534.19 357.738 1534.48 356.745 1534.48 355.638V347.253C1534.48 345.847 1534.03 344.739 1533.13 343.931C1532.26 343.104 1530.98 342.691 1529.31 342.691C1527.76 342.691 1526.53 343.025 1525.59 343.693C1524.66 344.344 1524.08 345.188 1523.85 346.225L1523.8 346.462H1517.74L1517.76 346.146C1517.9 344.493 1518.46 343.017 1519.42 341.716C1520.39 340.397 1521.73 339.36 1523.43 338.604C1525.15 337.849 1527.19 337.471 1529.55 337.471C1531.89 337.471 1533.91 337.857 1535.61 338.631C1537.34 339.404 1538.66 340.485 1539.59 341.874C1540.54 343.263 1541.02 344.897 1541.02 346.778V366H1534.48V361.702H1534.32C1533.79 362.669 1533.11 363.513 1532.26 364.233C1531.42 364.954 1530.45 365.508 1529.36 365.895C1528.29 366.281 1527.14 366.475 1525.91 366.475ZM1546.74 366V338.051H1553.28V342.428H1553.44C1554.16 340.916 1555.24 339.712 1556.66 338.815C1558.1 337.919 1559.88 337.471 1561.99 337.471C1565.06 337.471 1567.43 338.402 1569.1 340.266C1570.79 342.129 1571.64 344.678 1571.64 347.912V366H1565.07V349.23C1565.07 347.244 1564.6 345.715 1563.67 344.643C1562.74 343.553 1561.34 343.008 1559.48 343.008C1558.23 343.008 1557.14 343.298 1556.21 343.878C1555.28 344.44 1554.56 345.231 1554.05 346.251C1553.54 347.253 1553.28 348.431 1553.28 349.784V366H1546.74ZM1577.31 366V338.051H1583.85V342.428H1584.01C1584.73 340.916 1585.8 339.712 1587.22 338.815C1588.66 337.919 1590.44 337.471 1592.55 337.471C1595.63 337.471 1598 338.402 1599.67 340.266C1601.36 342.129 1602.2 344.678 1602.2 347.912V366H1595.63V349.23C1595.63 347.244 1595.17 345.715 1594.24 344.643C1593.31 343.553 1591.91 343.008 1590.04 343.008C1588.8 343.008 1587.71 343.298 1586.77 343.878C1585.84 344.44 1585.12 345.231 1584.61 346.251C1584.1 347.253 1583.85 348.431 1583.85 349.784V366H1577.31ZM1620.16 366.554C1617.37 366.554 1614.96 365.965 1612.94 364.787C1610.93 363.609 1609.39 361.939 1608.32 359.777C1607.25 357.615 1606.71 355.058 1606.71 352.104V352.078C1606.71 349.143 1607.25 346.585 1608.32 344.405C1609.41 342.208 1610.93 340.503 1612.88 339.29C1614.85 338.077 1617.17 337.471 1619.84 337.471C1622.5 337.471 1624.79 338.06 1626.73 339.237C1628.68 340.397 1630.17 342.032 1631.21 344.142C1632.26 346.251 1632.79 348.712 1632.79 351.524V353.634H1609.96V349.257H1629.65L1626.49 353.344V350.812C1626.49 348.984 1626.21 347.464 1625.64 346.251C1625.08 345.038 1624.31 344.133 1623.32 343.535C1622.34 342.92 1621.21 342.612 1619.92 342.612C1618.62 342.612 1617.46 342.929 1616.44 343.562C1615.44 344.177 1614.65 345.1 1614.07 346.33C1613.51 347.561 1613.23 349.055 1613.23 350.812V353.344C1613.23 355.049 1613.51 356.508 1614.07 357.721C1614.65 358.916 1615.47 359.839 1616.52 360.489C1617.58 361.122 1618.83 361.438 1620.29 361.438C1621.38 361.438 1622.34 361.271 1623.17 360.938C1623.99 360.586 1624.67 360.138 1625.2 359.593C1625.74 359.048 1626.12 358.459 1626.33 357.826L1626.38 357.642H1632.5L1632.45 357.932C1632.22 359.004 1631.8 360.059 1631.18 361.096C1630.57 362.115 1629.74 363.038 1628.7 363.864C1627.67 364.69 1626.44 365.35 1625.01 365.842C1623.59 366.316 1621.97 366.554 1620.16 366.554ZM1637.57 366V327.952H1644.13V366H1637.57Z" fill="black"/>
<path d="M1292.35 854V815.952H1306.24C1310.04 815.952 1313.28 816.69 1315.97 818.167C1318.66 819.644 1320.73 821.788 1322.17 824.601C1323.61 827.413 1324.33 830.823 1324.33 834.831V834.884C1324.33 838.892 1323.61 842.328 1322.17 845.193C1320.75 848.041 1318.68 850.221 1315.97 851.732C1313.28 853.244 1310.04 854 1306.24 854H1292.35ZM1299.15 848.278H1305.53C1308.1 848.278 1310.26 847.769 1312.02 846.749C1313.78 845.712 1315.11 844.209 1316.03 842.24C1316.94 840.254 1317.4 837.811 1317.4 834.91V834.857C1317.4 832.027 1316.93 829.628 1316 827.659C1315.09 825.69 1313.74 824.205 1311.97 823.203C1310.21 822.184 1308.06 821.674 1305.53 821.674H1299.15V848.278ZM1341.77 854.554C1338.97 854.554 1336.56 853.965 1334.54 852.787C1332.54 851.609 1331 849.939 1329.93 847.777C1328.85 845.615 1328.32 843.058 1328.32 840.104V840.078C1328.32 837.143 1328.85 834.585 1329.93 832.405C1331.02 830.208 1332.54 828.503 1334.49 827.29C1336.46 826.077 1338.78 825.471 1341.45 825.471C1344.1 825.471 1346.4 826.06 1348.33 827.237C1350.28 828.397 1351.78 830.032 1352.81 832.142C1353.87 834.251 1354.4 836.712 1354.4 839.524V841.634H1331.56V837.257H1351.26L1348.09 841.344V838.812C1348.09 836.984 1347.81 835.464 1347.25 834.251C1346.69 833.038 1345.91 832.133 1344.93 831.535C1343.94 830.92 1342.81 830.612 1341.53 830.612C1340.23 830.612 1339.07 830.929 1338.05 831.562C1337.05 832.177 1336.25 833.1 1335.67 834.33C1335.11 835.561 1334.83 837.055 1334.83 838.812V841.344C1334.83 843.049 1335.11 844.508 1335.67 845.721C1336.25 846.916 1337.07 847.839 1338.13 848.489C1339.18 849.122 1340.44 849.438 1341.9 849.438C1342.99 849.438 1343.94 849.271 1344.77 848.938C1345.6 848.586 1346.27 848.138 1346.8 847.593C1347.35 847.048 1347.72 846.459 1347.94 845.826L1347.99 845.642H1354.11L1354.05 845.932C1353.82 847.004 1353.4 848.059 1352.79 849.096C1352.17 850.115 1351.35 851.038 1350.31 851.864C1349.27 852.69 1348.04 853.35 1346.62 853.842C1345.19 854.316 1343.58 854.554 1341.77 854.554ZM1360.81 854V831.113H1356.98V826.051H1360.81V823.388C1360.81 821.56 1361.11 820.057 1361.7 818.879C1362.32 817.701 1363.26 816.831 1364.52 816.269C1365.79 815.688 1367.43 815.398 1369.46 815.398C1370.11 815.398 1370.75 815.425 1371.38 815.478C1372.03 815.53 1372.56 815.592 1372.96 815.662V820.25C1372.68 820.215 1372.36 820.188 1372.01 820.171C1371.68 820.136 1371.34 820.118 1370.98 820.118C1369.7 820.118 1368.75 820.408 1368.14 820.988C1367.54 821.568 1367.24 822.43 1367.24 823.572V826.051H1372.86V831.113H1367.37V854H1360.81ZM1387.65 854.554C1384.86 854.554 1382.45 853.965 1380.43 852.787C1378.42 851.609 1376.89 849.939 1375.81 847.777C1374.74 845.615 1374.21 843.058 1374.21 840.104V840.078C1374.21 837.143 1374.74 834.585 1375.81 832.405C1376.9 830.208 1378.42 828.503 1380.38 827.29C1382.34 826.077 1384.66 825.471 1387.34 825.471C1389.99 825.471 1392.28 826.06 1394.22 827.237C1396.17 828.397 1397.66 830.032 1398.7 832.142C1399.76 834.251 1400.28 836.712 1400.28 839.524V841.634H1377.45V837.257H1397.15L1393.98 841.344V838.812C1393.98 836.984 1393.7 835.464 1393.14 834.251C1392.57 833.038 1391.8 832.133 1390.82 831.535C1389.83 830.92 1388.7 830.612 1387.42 830.612C1386.12 830.612 1384.95 830.929 1383.94 831.562C1382.93 832.177 1382.14 833.1 1381.56 834.33C1381 835.561 1380.72 837.055 1380.72 838.812V841.344C1380.72 843.049 1381 844.508 1381.56 845.721C1382.14 846.916 1382.96 847.839 1384.01 848.489C1385.07 849.122 1386.33 849.438 1387.78 849.438C1388.87 849.438 1389.83 849.271 1390.66 848.938C1391.49 848.586 1392.16 848.138 1392.69 847.593C1393.23 847.048 1393.61 846.459 1393.82 845.826L1393.88 845.642H1399.99L1399.94 845.932C1399.71 847.004 1399.29 848.059 1398.67 849.096C1398.06 850.115 1397.23 851.038 1396.2 851.864C1395.16 852.69 1393.93 853.35 1392.5 853.842C1391.08 854.316 1389.46 854.554 1387.65 854.554ZM1404.88 854V826.051H1411.41V830.876H1411.57C1411.99 829.188 1412.76 827.87 1413.87 826.921C1414.99 825.954 1416.36 825.471 1417.98 825.471C1418.38 825.471 1418.77 825.497 1419.14 825.55C1419.51 825.603 1419.82 825.664 1420.06 825.734V831.667C1419.8 831.562 1419.42 831.474 1418.93 831.403C1418.45 831.333 1417.94 831.298 1417.37 831.298C1416.14 831.298 1415.08 831.553 1414.18 832.062C1413.29 832.555 1412.6 833.284 1412.13 834.251C1411.65 835.218 1411.41 836.396 1411.41 837.784V854H1404.88ZM1423.84 854V826.051H1430.38V830.876H1430.54C1430.96 829.188 1431.72 827.87 1432.83 826.921C1433.95 825.954 1435.33 825.471 1436.94 825.471C1437.35 825.471 1437.73 825.497 1438.1 825.55C1438.47 825.603 1438.78 825.664 1439.03 825.734V831.667C1438.76 831.562 1438.38 831.474 1437.89 831.403C1437.42 831.333 1436.9 831.298 1436.34 831.298C1435.11 831.298 1434.04 831.553 1433.15 832.062C1432.25 832.555 1431.56 833.284 1431.09 834.251C1430.61 835.218 1430.38 836.396 1430.38 837.784V854H1423.84ZM1454.03 854.554C1451.24 854.554 1448.83 853.965 1446.81 852.787C1444.8 851.609 1443.27 849.939 1442.19 847.777C1441.12 845.615 1440.59 843.058 1440.59 840.104V840.078C1440.59 837.143 1441.12 834.585 1442.19 832.405C1443.28 830.208 1444.8 828.503 1446.76 827.29C1448.72 826.077 1451.04 825.471 1453.72 825.471C1456.37 825.471 1458.66 826.06 1460.6 827.237C1462.55 828.397 1464.04 830.032 1465.08 832.142C1466.14 834.251 1466.66 836.712 1466.66 839.524V841.634H1443.83V837.257H1463.52L1460.36 841.344V838.812C1460.36 836.984 1460.08 835.464 1459.52 834.251C1458.95 833.038 1458.18 832.133 1457.2 831.535C1456.21 830.92 1455.08 830.612 1453.8 830.612C1452.49 830.612 1451.33 830.929 1450.32 831.562C1449.31 832.177 1448.52 833.1 1447.94 834.33C1447.38 835.561 1447.1 837.055 1447.1 838.812V841.344C1447.1 843.049 1447.38 844.508 1447.94 845.721C1448.52 846.916 1449.34 847.839 1450.39 848.489C1451.45 849.122 1452.71 849.438 1454.16 849.438C1455.25 849.438 1456.21 849.271 1457.04 848.938C1457.86 848.586 1458.54 848.138 1459.07 847.593C1459.61 847.048 1459.99 846.459 1460.2 845.826L1460.26 845.642H1466.37L1466.32 845.932C1466.09 847.004 1465.67 848.059 1465.05 849.096C1464.44 850.115 1463.61 851.038 1462.58 851.864C1461.54 852.69 1460.31 853.35 1458.88 853.842C1457.46 854.316 1455.84 854.554 1454.03 854.554ZM1481.64 854.554C1479.29 854.554 1477.24 853.974 1475.5 852.813C1473.78 851.636 1472.44 849.957 1471.49 847.777C1470.56 845.598 1470.09 843.014 1470.09 840.025V839.999C1470.09 836.993 1470.57 834.409 1471.52 832.247C1472.47 830.067 1473.8 828.397 1475.53 827.237C1477.25 826.06 1479.28 825.471 1481.62 825.471C1482.95 825.471 1484.18 825.69 1485.28 826.13C1486.41 826.552 1487.4 827.167 1488.26 827.976C1489.12 828.767 1489.82 829.725 1490.34 830.85H1490.5V815.952H1497.04V854H1490.5V849.254H1490.34C1489.84 850.361 1489.15 851.311 1488.29 852.102C1487.44 852.875 1486.46 853.481 1485.34 853.921C1484.23 854.343 1483 854.554 1481.64 854.554ZM1483.62 849.043C1484.97 849.043 1486.17 848.674 1487.21 847.936C1488.24 847.197 1489.05 846.151 1489.63 844.798C1490.21 843.444 1490.5 841.854 1490.5 840.025V839.999C1490.5 838.171 1490.2 836.589 1489.61 835.253C1489.03 833.899 1488.22 832.854 1487.18 832.115C1486.16 831.377 1484.97 831.008 1483.62 831.008C1482.22 831.008 1480.99 831.377 1479.96 832.115C1478.94 832.836 1478.15 833.864 1477.58 835.2C1477.04 836.536 1476.77 838.136 1476.77 839.999V840.025C1476.77 841.871 1477.04 843.471 1477.58 844.824C1478.15 846.178 1478.94 847.224 1479.96 847.962C1480.99 848.683 1482.22 849.043 1483.62 849.043ZM1526.58 854.554C1523.82 854.554 1521.43 853.965 1519.41 852.787C1517.39 851.609 1515.82 849.931 1514.72 847.751C1513.63 845.571 1513.08 842.987 1513.08 839.999V839.973C1513.08 837.002 1513.64 834.436 1514.74 832.273C1515.85 830.094 1517.41 828.415 1519.41 827.237C1521.43 826.06 1523.8 825.471 1526.5 825.471C1528.96 825.471 1531.09 825.945 1532.88 826.895C1534.68 827.826 1536.08 829.065 1537.1 830.612C1538.12 832.159 1538.7 833.864 1538.84 835.728V835.912H1532.67L1532.62 835.701C1532.36 834.348 1531.72 833.196 1530.7 832.247C1529.69 831.28 1528.32 830.797 1526.58 830.797C1525.21 830.797 1524.01 831.175 1522.97 831.931C1521.95 832.669 1521.16 833.724 1520.6 835.095C1520.03 836.466 1519.75 838.109 1519.75 840.025V840.052C1519.75 841.985 1520.03 843.638 1520.6 845.009C1521.18 846.38 1521.98 847.435 1523 848.173C1524.03 848.894 1525.24 849.254 1526.61 849.254C1528.28 849.254 1529.62 848.806 1530.64 847.909C1531.68 846.995 1532.35 845.809 1532.65 844.35L1532.7 844.112H1538.9L1538.87 844.297C1538.69 846.23 1538.08 847.971 1537.02 849.518C1535.97 851.064 1534.55 852.295 1532.78 853.209C1531 854.105 1528.94 854.554 1526.58 854.554ZM1543.41 854V815.952H1549.97V830.744H1550.11C1550.84 829.057 1551.94 827.756 1553.4 826.842C1554.88 825.928 1556.65 825.471 1558.73 825.471C1560.75 825.471 1562.5 825.937 1563.98 826.868C1565.45 827.782 1566.59 829.074 1567.4 830.744C1568.21 832.396 1568.62 834.348 1568.62 836.598V854H1562.05V837.89C1562.05 835.745 1561.53 834.066 1560.5 832.854C1559.46 831.623 1558 831.008 1556.12 831.008C1554.89 831.008 1553.81 831.307 1552.88 831.904C1551.96 832.484 1551.25 833.293 1550.74 834.33C1550.23 835.35 1549.97 836.536 1549.97 837.89V854H1543.41ZM1582.57 854.475C1580.72 854.475 1579.09 854.123 1577.66 853.42C1576.26 852.699 1575.16 851.706 1574.37 850.44C1573.6 849.157 1573.21 847.689 1573.21 846.037V845.984C1573.21 844.314 1573.62 842.891 1574.45 841.713C1575.29 840.518 1576.5 839.577 1578.09 838.892C1579.67 838.188 1581.58 837.767 1583.83 837.626L1594.51 836.967V841.317L1584.76 841.924C1583.14 842.029 1581.9 842.416 1581.04 843.084C1580.18 843.752 1579.75 844.64 1579.75 845.747V845.773C1579.75 846.916 1580.18 847.821 1581.04 848.489C1581.92 849.14 1583.08 849.465 1584.52 849.465C1585.79 849.465 1586.91 849.21 1587.9 848.7C1588.9 848.19 1589.69 847.496 1590.27 846.617C1590.85 845.738 1591.14 844.745 1591.14 843.638V835.253C1591.14 833.847 1590.69 832.739 1589.79 831.931C1588.91 831.104 1587.64 830.691 1585.97 830.691C1584.42 830.691 1583.18 831.025 1582.25 831.693C1581.32 832.344 1580.74 833.188 1580.51 834.225L1580.46 834.462H1574.4L1574.42 834.146C1574.56 832.493 1575.12 831.017 1576.08 829.716C1577.05 828.397 1578.39 827.36 1580.09 826.604C1581.81 825.849 1583.85 825.471 1586.21 825.471C1588.55 825.471 1590.57 825.857 1592.27 826.631C1593.99 827.404 1595.32 828.485 1596.25 829.874C1597.2 831.263 1597.68 832.897 1597.68 834.778V854H1591.14V849.702H1590.98C1590.45 850.669 1589.77 851.513 1588.92 852.233C1588.08 852.954 1587.11 853.508 1586.02 853.895C1584.95 854.281 1583.8 854.475 1582.57 854.475ZM1603.4 854V826.051H1609.94V830.428H1610.1C1610.82 828.916 1611.89 827.712 1613.32 826.815C1614.76 825.919 1616.53 825.471 1618.64 825.471C1621.72 825.471 1624.09 826.402 1625.76 828.266C1627.45 830.129 1628.29 832.678 1628.29 835.912V854H1621.73V837.23C1621.73 835.244 1621.26 833.715 1620.33 832.643C1619.4 831.553 1618 831.008 1616.14 831.008C1614.89 831.008 1613.8 831.298 1612.87 831.878C1611.94 832.44 1611.22 833.231 1610.71 834.251C1610.2 835.253 1609.94 836.431 1609.94 837.784V854H1603.4ZM1633.97 854V826.051H1640.51V830.428H1640.66C1641.39 828.916 1642.46 827.712 1643.88 826.815C1645.32 825.919 1647.1 825.471 1649.21 825.471C1652.28 825.471 1654.66 826.402 1656.33 828.266C1658.01 830.129 1658.86 832.678 1658.86 835.912V854H1652.29V837.23C1652.29 835.244 1651.83 833.715 1650.9 832.643C1649.96 831.553 1648.57 831.008 1646.7 831.008C1645.45 831.008 1644.37 831.298 1643.43 831.878C1642.5 832.44 1641.78 833.231 1641.27 834.251C1640.76 835.253 1640.51 836.431 1640.51 837.784V854H1633.97ZM1676.82 854.554C1674.02 854.554 1671.62 853.965 1669.59 852.787C1667.59 851.609 1666.05 849.939 1664.98 847.777C1663.91 845.615 1663.37 843.058 1663.37 840.104V840.078C1663.37 837.143 1663.91 834.585 1664.98 832.405C1666.07 830.208 1667.59 828.503 1669.54 827.29C1671.51 826.077 1673.83 825.471 1676.5 825.471C1679.16 825.471 1681.45 826.06 1683.38 827.237C1685.34 828.397 1686.83 830.032 1687.87 832.142C1688.92 834.251 1689.45 836.712 1689.45 839.524V841.634H1666.61V837.257H1686.31L1683.15 841.344V838.812C1683.15 836.984 1682.87 835.464 1682.3 834.251C1681.74 833.038 1680.97 832.133 1679.98 831.535C1679 830.92 1677.86 830.612 1676.58 830.612C1675.28 830.612 1674.12 830.929 1673.1 831.562C1672.1 832.177 1671.31 833.1 1670.73 834.33C1670.17 835.561 1669.88 837.055 1669.88 838.812V841.344C1669.88 843.049 1670.17 844.508 1670.73 845.721C1671.31 846.916 1672.13 847.839 1673.18 848.489C1674.23 849.122 1675.49 849.438 1676.95 849.438C1678.04 849.438 1679 849.271 1679.82 848.938C1680.65 848.586 1681.33 848.138 1681.85 847.593C1682.4 847.048 1682.78 846.459 1682.99 845.826L1683.04 845.642H1689.16L1689.11 845.932C1688.88 847.004 1688.46 848.059 1687.84 849.096C1687.23 850.115 1686.4 851.038 1685.36 851.864C1684.32 852.69 1683.09 853.35 1681.67 853.842C1680.25 854.316 1678.63 854.554 1676.82 854.554ZM1694.23 854V815.952H1700.79V854H1694.23Z" fill="black"/>
<g clip-path="url(#clip0_4547_8071)">
<rect x="1386" y="478" width="212" height="212" rx="44" fill="black"/>
</g>
<rect x="1386" y="478" width="212" height="212" rx="44" stroke="black" stroke-linejoin="bevel"/>
<path d="M1537.02 577C1536.41 577 1535.68 576.78 1534.83 576.339C1533.97 575.898 1533.13 575.395 1532.31 574.832C1525.61 570.422 1519.76 565.779 1514.74 560.904C1509.75 556.004 1505.88 550.969 1503.13 545.8C1500.38 540.606 1499 535.387 1499 530.144C1499 526.518 1499.57 523.236 1500.72 520.296C1501.89 517.331 1503.48 514.783 1505.5 512.652C1507.52 510.52 1509.85 508.879 1512.48 507.727C1515.13 506.576 1517.95 506 1520.95 506C1524.67 506 1527.88 506.943 1530.55 508.83C1533.26 510.692 1535.41 513.117 1537.02 516.106C1538.63 513.117 1540.77 510.692 1543.45 508.83C1546.15 506.943 1549.36 506 1553.09 506C1556.06 506 1558.87 506.576 1561.52 507.727C1564.18 508.879 1566.5 510.52 1568.5 512.652C1570.52 514.783 1572.1 517.331 1573.25 520.296C1574.42 523.236 1575 526.518 1575 530.144C1575 535.387 1573.62 540.606 1570.87 545.8C1568.12 550.969 1564.25 556.004 1559.26 560.904C1554.27 565.779 1548.42 570.422 1541.73 574.832C1540.9 575.395 1540.06 575.898 1539.21 576.339C1538.36 576.78 1537.63 577 1537.02 577Z" fill="#FFCC00"/>
<path d="M1335 522L1295 498.906V545.094L1335 522ZM1035 522V526H1299V522V518H1035V522Z" fill="#FFCC00"/>
<path d="M1035 727.012L1075 750.106L1075 703.918L1035 727.012ZM1335 727.012L1335 723.012L1071 723.012L1071 727.012L1071 731.012L1335 731.012L1335 727.012Z" fill="#FFCC00"/>
<path d="M1948 522L1908 498.906V545.094L1948 522ZM1648 522V526H1912V522V518H1648V522Z" fill="#FFCC00"/>
<path d="M1648 727.012L1688 750.106L1688 703.918L1648 727.012ZM1948 727.012L1948 723.012L1684 723.012L1684 727.012L1684 731.012L1948 731.012L1948 727.012Z" fill="#FFCC00"/>
<path opacity="0.6" d="M1219.11 438.203C1217.58 436.266 1216.32 434.203 1215.34 432.016C1214.37 429.844 1213.64 427.523 1213.16 425.055C1212.69 422.586 1212.45 419.961 1212.45 417.18C1212.45 414.398 1212.69 411.781 1213.16 409.328C1213.64 406.859 1214.38 404.539 1215.36 402.367C1216.34 400.18 1217.59 398.117 1219.11 396.18H1222.53C1221.69 397.164 1220.91 398.438 1220.19 400C1219.47 401.562 1218.84 403.305 1218.29 405.227C1217.76 407.133 1217.34 409.117 1217.05 411.18C1216.75 413.227 1216.6 415.227 1216.6 417.18C1216.6 419.133 1216.75 421.141 1217.05 423.203C1217.34 425.266 1217.76 427.258 1218.29 429.18C1218.84 431.086 1219.47 432.82 1220.19 434.383C1220.91 435.945 1221.69 437.219 1222.53 438.203H1219.11ZM1234.13 430L1224.92 396.18H1229.33L1236.15 423.953H1236.24L1243.91 396.18H1248.17L1255.84 423.953H1255.93L1262.75 396.18H1267.16L1257.95 430H1253.96L1246.09 402.906H1245.99L1238.12 430H1234.13ZM1284.85 430.562C1281.73 430.562 1279 429.844 1276.67 428.406C1274.36 426.969 1272.57 424.945 1271.31 422.336C1270.04 419.711 1269.41 416.625 1269.41 413.078V413.055C1269.41 409.508 1270.04 406.43 1271.31 403.82C1272.57 401.211 1274.36 399.195 1276.67 397.773C1278.99 396.336 1281.71 395.617 1284.85 395.617C1287.2 395.617 1289.33 396.062 1291.25 396.953C1293.17 397.844 1294.78 399.086 1296.06 400.68C1297.35 402.273 1298.21 404.141 1298.64 406.281L1298.68 406.516H1294.42L1294.25 406C1293.82 404.625 1293.16 403.461 1292.28 402.508C1291.42 401.539 1290.37 400.797 1289.12 400.281C1287.87 399.766 1286.45 399.508 1284.85 399.508C1282.6 399.508 1280.64 400.07 1278.97 401.195C1277.32 402.305 1276.03 403.875 1275.1 405.906C1274.2 407.922 1273.75 410.305 1273.75 413.055V413.078C1273.75 415.812 1274.2 418.203 1275.1 420.25C1276.03 422.281 1277.32 423.859 1279 424.984C1280.67 426.109 1282.62 426.672 1284.85 426.672C1286.43 426.672 1287.84 426.414 1289.07 425.898C1290.32 425.383 1291.39 424.625 1292.28 423.625C1293.17 422.609 1293.86 421.359 1294.35 419.875L1294.42 419.664H1298.68L1298.64 419.898C1298.21 422.055 1297.36 423.938 1296.08 425.547C1294.8 427.141 1293.2 428.375 1291.28 429.25C1289.35 430.125 1287.21 430.562 1284.85 430.562ZM1315.14 430.562C1312.7 430.562 1310.55 430.188 1308.69 429.438C1306.85 428.672 1305.38 427.586 1304.29 426.18C1303.21 424.773 1302.6 423.109 1302.46 421.188L1302.43 420.859H1306.65L1306.7 421.188C1306.87 422.312 1307.33 423.289 1308.08 424.117C1308.83 424.93 1309.82 425.562 1311.06 426.016C1312.31 426.453 1313.75 426.672 1315.37 426.672C1317 426.672 1318.4 426.445 1319.59 425.992C1320.78 425.523 1321.69 424.859 1322.33 424C1322.99 423.141 1323.32 422.133 1323.32 420.977V420.953C1323.32 419.469 1322.8 418.281 1321.77 417.391C1320.74 416.5 1319.06 415.797 1316.73 415.281L1312.98 414.461C1309.68 413.727 1307.24 412.602 1305.65 411.086C1304.07 409.555 1303.28 407.555 1303.28 405.086V405.062C1303.29 403.203 1303.81 401.57 1304.82 400.164C1305.84 398.742 1307.24 397.633 1309.02 396.836C1310.82 396.023 1312.87 395.617 1315.18 395.617C1317.39 395.617 1319.36 396.016 1321.09 396.812C1322.82 397.594 1324.21 398.688 1325.24 400.094C1326.29 401.5 1326.87 403.125 1327 404.969L1327.02 405.32H1322.8L1322.75 404.992C1322.58 403.836 1322.16 402.852 1321.49 402.039C1320.82 401.227 1319.93 400.602 1318.84 400.164C1317.76 399.727 1316.5 399.508 1315.07 399.508C1313.57 399.508 1312.25 399.734 1311.13 400.188C1310 400.641 1309.13 401.273 1308.5 402.086C1307.9 402.898 1307.59 403.852 1307.59 404.945V404.969C1307.59 406.344 1308.11 407.477 1309.16 408.367C1310.21 409.258 1311.83 409.945 1314.04 410.43L1317.79 411.25C1320.1 411.75 1321.97 412.414 1323.41 413.242C1324.86 414.07 1325.93 415.102 1326.6 416.336C1327.29 417.555 1327.63 419.023 1327.63 420.742V420.766C1327.63 422.766 1327.12 424.5 1326.11 425.969C1325.11 427.438 1323.67 428.57 1321.79 429.367C1319.93 430.164 1317.72 430.562 1315.14 430.562ZM1342.37 430.469C1340.05 430.469 1338.04 429.953 1336.35 428.922C1334.68 427.891 1333.39 426.438 1332.48 424.562C1331.59 422.672 1331.15 420.453 1331.15 417.906V417.883C1331.15 415.367 1331.6 413.156 1332.51 411.25C1333.41 409.328 1334.69 407.836 1336.33 406.773C1337.97 405.695 1339.9 405.156 1342.12 405.156C1344.33 405.156 1346.24 405.672 1347.83 406.703C1349.44 407.719 1350.68 409.148 1351.54 410.992C1352.4 412.836 1352.83 414.977 1352.83 417.414V418.914H1333.19V415.727H1350.81L1348.75 418.68V417.109C1348.75 415.219 1348.46 413.656 1347.88 412.422C1347.32 411.188 1346.54 410.273 1345.54 409.68C1344.54 409.07 1343.39 408.766 1342.09 408.766C1340.8 408.766 1339.63 409.086 1338.6 409.727C1337.57 410.352 1336.76 411.289 1336.16 412.539C1335.57 413.773 1335.27 415.297 1335.27 417.109V418.68C1335.27 420.398 1335.56 421.867 1336.14 423.086C1336.73 424.305 1337.57 425.242 1338.65 425.898C1339.72 426.539 1341 426.859 1342.47 426.859C1343.5 426.859 1344.42 426.703 1345.23 426.391C1346.05 426.078 1346.72 425.648 1347.27 425.102C1347.82 424.555 1348.21 423.93 1348.44 423.227L1348.51 423.016H1352.52L1352.47 423.25C1352.27 424.25 1351.88 425.188 1351.3 426.062C1350.74 426.938 1350.01 427.711 1349.12 428.383C1348.23 429.039 1347.22 429.555 1346.08 429.93C1344.94 430.289 1343.7 430.469 1342.37 430.469ZM1366 430.469C1364.09 430.469 1362.45 430.164 1361.05 429.555C1359.66 428.945 1358.56 428.094 1357.75 427C1356.95 425.906 1356.47 424.633 1356.3 423.18L1356.27 422.969H1360.35L1360.4 423.203C1360.65 424.422 1361.23 425.375 1362.16 426.062C1363.08 426.734 1364.37 427.07 1366.02 427.07C1367.13 427.07 1368.08 426.93 1368.86 426.648C1369.64 426.352 1370.24 425.938 1370.66 425.406C1371.09 424.859 1371.3 424.219 1371.3 423.484V423.461C1371.3 422.586 1371.03 421.883 1370.5 421.352C1369.97 420.82 1369.01 420.383 1367.62 420.039L1363.75 419.102C1362.22 418.727 1360.95 418.242 1359.93 417.648C1358.93 417.039 1358.18 416.297 1357.68 415.422C1357.18 414.547 1356.93 413.523 1356.93 412.352V412.328C1356.93 410.922 1357.3 409.68 1358.05 408.602C1358.82 407.523 1359.88 406.68 1361.22 406.07C1362.58 405.461 1364.13 405.156 1365.88 405.156C1367.66 405.156 1369.21 405.477 1370.52 406.117C1371.85 406.742 1372.89 407.602 1373.64 408.695C1374.41 409.773 1374.84 410.992 1374.93 412.352L1374.95 412.656H1371.06L1371.04 412.492C1370.88 411.305 1370.36 410.352 1369.47 409.633C1368.59 408.914 1367.4 408.555 1365.88 408.555C1364.9 408.555 1364.05 408.703 1363.33 409C1362.61 409.297 1362.05 409.719 1361.66 410.266C1361.29 410.797 1361.1 411.422 1361.1 412.141V412.164C1361.1 412.711 1361.23 413.211 1361.48 413.664C1361.74 414.102 1362.16 414.484 1362.72 414.812C1363.28 415.141 1364.01 415.414 1364.9 415.633L1368.77 416.57C1371.23 417.164 1372.97 417.984 1373.97 419.031C1374.97 420.062 1375.47 421.445 1375.47 423.18V423.203C1375.47 424.625 1375.05 425.883 1374.23 426.977C1373.41 428.07 1372.29 428.93 1370.85 429.555C1369.43 430.164 1367.81 430.469 1366 430.469ZM1388.76 430.469C1386.85 430.469 1385.2 430.164 1383.81 429.555C1382.42 428.945 1381.32 428.094 1380.51 427C1379.71 425.906 1379.23 424.633 1379.06 423.18L1379.03 422.969H1383.11L1383.16 423.203C1383.41 424.422 1383.99 425.375 1384.92 426.062C1385.84 426.734 1387.13 427.07 1388.78 427.07C1389.89 427.07 1390.84 426.93 1391.62 426.648C1392.4 426.352 1393 425.938 1393.42 425.406C1393.85 424.859 1394.06 424.219 1394.06 423.484V423.461C1394.06 422.586 1393.79 421.883 1393.26 421.352C1392.73 420.82 1391.77 420.383 1390.38 420.039L1386.51 419.102C1384.98 418.727 1383.7 418.242 1382.69 417.648C1381.69 417.039 1380.94 416.297 1380.44 415.422C1379.94 414.547 1379.69 413.523 1379.69 412.352V412.328C1379.69 410.922 1380.06 409.68 1380.81 408.602C1381.58 407.523 1382.63 406.68 1383.98 406.07C1385.34 405.461 1386.89 405.156 1388.64 405.156C1390.42 405.156 1391.97 405.477 1393.28 406.117C1394.61 406.742 1395.65 407.602 1396.4 408.695C1397.17 409.773 1397.6 410.992 1397.69 412.352L1397.71 412.656H1393.82L1393.8 412.492C1393.64 411.305 1393.12 410.352 1392.23 409.633C1391.35 408.914 1390.16 408.555 1388.64 408.555C1387.66 408.555 1386.81 408.703 1386.09 409C1385.37 409.297 1384.81 409.719 1384.42 410.266C1384.05 410.797 1383.86 411.422 1383.86 412.141V412.164C1383.86 412.711 1383.99 413.211 1384.24 413.664C1384.5 414.102 1384.92 414.484 1385.48 414.812C1386.04 415.141 1386.77 415.414 1387.66 415.633L1391.52 416.57C1393.99 417.164 1395.73 417.984 1396.73 419.031C1397.73 420.062 1398.23 421.445 1398.23 423.18V423.203C1398.23 424.625 1397.81 425.883 1396.99 426.977C1396.17 428.07 1395.05 428.93 1393.61 429.555C1392.19 430.164 1390.57 430.469 1388.76 430.469ZM1403.13 430V405.625H1407.21V430H1403.13ZM1405.17 401.5C1404.46 401.5 1403.86 401.25 1403.36 400.75C1402.86 400.25 1402.61 399.648 1402.61 398.945C1402.61 398.227 1402.86 397.625 1403.36 397.141C1403.86 396.641 1404.46 396.391 1405.17 396.391C1405.89 396.391 1406.49 396.641 1406.97 397.141C1407.47 397.625 1407.72 398.227 1407.72 398.945C1407.72 399.648 1407.47 400.25 1406.97 400.75C1406.49 401.25 1405.89 401.5 1405.17 401.5ZM1423.26 430.469C1421.01 430.469 1419.04 429.953 1417.33 428.922C1415.65 427.891 1414.32 426.43 1413.37 424.539C1412.43 422.633 1411.97 420.391 1411.97 417.812V417.766C1411.97 415.172 1412.43 412.938 1413.37 411.062C1414.32 409.172 1415.65 407.719 1417.33 406.703C1419.04 405.672 1421 405.156 1423.24 405.156C1425.49 405.156 1427.46 405.672 1429.15 406.703C1430.85 407.719 1432.17 409.172 1433.11 411.062C1434.06 412.938 1434.54 415.172 1434.54 417.766V417.812C1434.54 420.406 1434.06 422.648 1433.11 424.539C1432.17 426.43 1430.86 427.891 1429.17 428.922C1427.48 429.953 1425.51 430.469 1423.26 430.469ZM1423.29 426.859C1424.72 426.859 1425.97 426.508 1427.01 425.805C1428.07 425.086 1428.9 424.055 1429.47 422.711C1430.07 421.352 1430.36 419.719 1430.36 417.812V417.766C1430.36 415.859 1430.07 414.234 1429.47 412.891C1428.9 411.547 1428.07 410.523 1426.99 409.82C1425.93 409.117 1424.68 408.766 1423.24 408.766C1421.83 408.766 1420.59 409.125 1419.51 409.844C1418.45 410.547 1417.62 411.57 1417.03 412.914C1416.43 414.242 1416.14 415.859 1416.14 417.766V417.812C1416.14 419.719 1416.43 421.352 1417.03 422.711C1417.62 424.055 1418.45 425.086 1419.51 425.805C1420.59 426.508 1421.85 426.859 1423.29 426.859ZM1439.06 430V405.625H1443.14V409.094H1443.23C1443.89 407.953 1444.84 407.016 1446.09 406.281C1447.34 405.531 1448.89 405.156 1450.73 405.156C1453.4 405.156 1455.48 405.969 1456.94 407.594C1458.43 409.203 1459.17 411.398 1459.17 414.18V430H1455.09V414.906C1455.09 412.922 1454.62 411.406 1453.69 410.359C1452.76 409.297 1451.37 408.766 1449.49 408.766C1448.21 408.766 1447.09 409.055 1446.14 409.633C1445.19 410.195 1444.44 410.992 1443.91 412.023C1443.4 413.055 1443.14 414.266 1443.14 415.656V430H1439.06ZM1467.28 430.328C1466.53 430.328 1465.9 430.07 1465.38 429.555C1464.87 429.039 1464.61 428.406 1464.61 427.656C1464.61 426.906 1464.87 426.273 1465.38 425.758C1465.9 425.242 1466.53 424.984 1467.28 424.984C1468.03 424.984 1468.66 425.242 1469.18 425.758C1469.7 426.273 1469.95 426.906 1469.95 427.656C1469.95 428.406 1469.7 429.039 1469.18 429.555C1468.66 430.07 1468.03 430.328 1467.28 430.328ZM1492.03 430.469C1490.13 430.469 1488.48 430.164 1487.09 429.555C1485.7 428.945 1484.6 428.094 1483.78 427C1482.99 425.906 1482.5 424.633 1482.33 423.18L1482.31 422.969H1486.39L1486.43 423.203C1486.68 424.422 1487.27 425.375 1488.19 426.062C1489.11 426.734 1490.4 427.07 1492.06 427.07C1493.17 427.07 1494.11 426.93 1494.89 426.648C1495.67 426.352 1496.28 425.938 1496.7 425.406C1497.12 424.859 1497.33 424.219 1497.33 423.484V423.461C1497.33 422.586 1497.07 421.883 1496.53 421.352C1496 420.82 1495.04 420.383 1493.65 420.039L1489.78 419.102C1488.25 418.727 1486.98 418.242 1485.96 417.648C1484.96 417.039 1484.21 416.297 1483.71 415.422C1483.21 414.547 1482.96 413.523 1482.96 412.352V412.328C1482.96 410.922 1483.34 409.68 1484.09 408.602C1484.85 407.523 1485.91 406.68 1487.25 406.07C1488.61 405.461 1490.17 405.156 1491.92 405.156C1493.7 405.156 1495.25 405.477 1496.56 406.117C1497.89 406.742 1498.92 407.602 1499.67 408.695C1500.44 409.773 1500.87 410.992 1500.96 412.352L1500.99 412.656H1497.1L1497.07 412.492C1496.92 411.305 1496.39 410.352 1495.5 409.633C1494.63 408.914 1493.43 408.555 1491.92 408.555C1490.93 408.555 1490.08 408.703 1489.36 409C1488.64 409.297 1488.09 409.719 1487.7 410.266C1487.32 410.797 1487.14 411.422 1487.14 412.141V412.164C1487.14 412.711 1487.26 413.211 1487.51 413.664C1487.78 414.102 1488.19 414.484 1488.75 414.812C1489.32 415.141 1490.04 415.414 1490.93 415.633L1494.8 416.57C1497.27 417.164 1499 417.984 1500 419.031C1501 420.062 1501.5 421.445 1501.5 423.18V423.203C1501.5 424.625 1501.09 425.883 1500.26 426.977C1499.45 428.07 1498.32 428.93 1496.89 429.555C1495.46 430.164 1493.85 430.469 1492.03 430.469ZM1516.18 430.469C1513.85 430.469 1511.84 429.953 1510.15 428.922C1508.48 427.891 1507.19 426.438 1506.29 424.562C1505.4 422.672 1504.95 420.453 1504.95 417.906V417.883C1504.95 415.367 1505.4 413.156 1506.31 411.25C1507.22 409.328 1508.49 407.836 1510.13 406.773C1511.77 405.695 1513.7 405.156 1515.92 405.156C1518.14 405.156 1520.04 405.672 1521.64 406.703C1523.25 407.719 1524.48 409.148 1525.34 410.992C1526.2 412.836 1526.63 414.977 1526.63 417.414V418.914H1506.99V415.727H1524.61L1522.55 418.68V417.109C1522.55 415.219 1522.26 413.656 1521.68 412.422C1521.12 411.188 1520.34 410.273 1519.34 409.68C1518.34 409.07 1517.19 408.766 1515.9 408.766C1514.6 408.766 1513.43 409.086 1512.4 409.727C1511.37 410.352 1510.56 411.289 1509.97 412.539C1509.37 413.773 1509.08 415.297 1509.08 417.109V418.68C1509.08 420.398 1509.36 421.867 1509.94 423.086C1510.54 424.305 1511.37 425.242 1512.45 425.898C1513.53 426.539 1514.8 426.859 1516.27 426.859C1517.3 426.859 1518.22 426.703 1519.04 426.391C1519.85 426.078 1520.53 425.648 1521.08 425.102C1521.62 424.555 1522.01 423.93 1522.25 423.227L1522.32 423.016H1526.33L1526.28 423.25C1526.08 424.25 1525.68 425.188 1525.11 426.062C1524.54 426.938 1523.82 427.711 1522.93 428.383C1522.04 429.039 1521.02 429.555 1519.88 429.93C1518.74 430.289 1517.5 430.469 1516.18 430.469ZM1531.15 430V405.625H1535.23V409.094H1535.33C1535.98 407.953 1536.94 407.016 1538.19 406.281C1539.44 405.531 1540.98 405.156 1542.83 405.156C1545.5 405.156 1547.57 405.969 1549.04 407.594C1550.52 409.203 1551.26 411.398 1551.26 414.18V430H1547.19V414.906C1547.19 412.922 1546.72 411.406 1545.78 410.359C1544.86 409.297 1543.46 408.766 1541.58 408.766C1540.3 408.766 1539.19 409.055 1538.23 409.633C1537.28 410.195 1536.54 410.992 1536.01 412.023C1535.49 413.055 1535.23 414.266 1535.23 415.656V430H1531.15ZM1566.03 430.469C1563.95 430.469 1562.13 429.953 1560.57 428.922C1559.02 427.875 1557.82 426.406 1556.96 424.516C1556.1 422.609 1555.67 420.375 1555.67 417.812V417.789C1555.67 415.227 1556.1 413 1556.96 411.109C1557.84 409.219 1559.05 407.758 1560.59 406.727C1562.14 405.68 1563.93 405.156 1565.96 405.156C1567.12 405.156 1568.19 405.344 1569.17 405.719C1570.17 406.078 1571.06 406.602 1571.84 407.289C1572.62 407.961 1573.27 408.766 1573.77 409.703H1573.86V396.18H1577.94V430H1573.86V425.875H1573.77C1573.27 426.828 1572.63 427.648 1571.87 428.336C1571.1 429.008 1570.23 429.531 1569.24 429.906C1568.27 430.281 1567.2 430.469 1566.03 430.469ZM1566.83 426.859C1568.2 426.859 1569.42 426.484 1570.48 425.734C1571.55 424.984 1572.38 423.93 1572.97 422.57C1573.58 421.211 1573.88 419.625 1573.88 417.812V417.789C1573.88 415.977 1573.58 414.398 1572.97 413.055C1572.36 411.695 1571.52 410.641 1570.46 409.891C1569.41 409.141 1568.2 408.766 1566.83 408.766C1565.39 408.766 1564.15 409.133 1563.1 409.867C1562.05 410.602 1561.25 411.641 1560.69 412.984C1560.12 414.328 1559.84 415.93 1559.84 417.789V417.812C1559.84 419.672 1560.12 421.281 1560.69 422.641C1561.25 424 1562.05 425.047 1563.1 425.781C1564.15 426.5 1565.39 426.859 1566.83 426.859ZM1584.48 430V396.18H1589.35L1601.07 424.68H1601.21L1612.93 396.18H1617.81V430H1613.87V403.867H1611.95L1616.52 397.117L1602.92 430H1599.36L1585.77 397.117L1590.34 403.867H1588.42V430H1584.48ZM1634.17 430.469C1631.84 430.469 1629.83 429.953 1628.14 428.922C1626.47 427.891 1625.18 426.438 1624.28 424.562C1623.39 422.672 1622.94 420.453 1622.94 417.906V417.883C1622.94 415.367 1623.39 413.156 1624.3 411.25C1625.21 409.328 1626.48 407.836 1628.12 406.773C1629.76 405.695 1631.69 405.156 1633.91 405.156C1636.13 405.156 1638.03 405.672 1639.63 406.703C1641.24 407.719 1642.47 409.148 1643.33 410.992C1644.19 412.836 1644.62 414.977 1644.62 417.414V418.914H1624.98V415.727H1642.6L1640.54 418.68V417.109C1640.54 415.219 1640.25 413.656 1639.67 412.422C1639.11 411.188 1638.33 410.273 1637.33 409.68C1636.33 409.07 1635.18 408.766 1633.89 408.766C1632.59 408.766 1631.42 409.086 1630.39 409.727C1629.36 410.352 1628.55 411.289 1627.96 412.539C1627.36 413.773 1627.07 415.297 1627.07 417.109V418.68C1627.07 420.398 1627.35 421.867 1627.93 423.086C1628.53 424.305 1629.36 425.242 1630.44 425.898C1631.52 426.539 1632.79 426.859 1634.26 426.859C1635.29 426.859 1636.21 426.703 1637.03 426.391C1637.84 426.078 1638.52 425.648 1639.07 425.102C1639.61 424.555 1640 423.93 1640.24 423.227L1640.31 423.016H1644.32L1644.27 423.25C1644.07 424.25 1643.67 425.188 1643.1 426.062C1642.53 426.938 1641.81 427.711 1640.92 428.383C1640.03 429.039 1639.01 429.555 1637.87 429.93C1636.73 430.289 1635.5 430.469 1634.17 430.469ZM1657.79 430.469C1655.89 430.469 1654.24 430.164 1652.85 429.555C1651.46 428.945 1650.36 428.094 1649.54 427C1648.75 425.906 1648.26 424.633 1648.09 423.18L1648.07 422.969H1652.15L1652.19 423.203C1652.44 424.422 1653.03 425.375 1653.95 426.062C1654.87 426.734 1656.16 427.07 1657.82 427.07C1658.93 427.07 1659.87 426.93 1660.65 426.648C1661.43 426.352 1662.04 425.938 1662.46 425.406C1662.88 424.859 1663.09 424.219 1663.09 423.484V423.461C1663.09 422.586 1662.83 421.883 1662.29 421.352C1661.76 420.82 1660.8 420.383 1659.41 420.039L1655.54 419.102C1654.01 418.727 1652.74 418.242 1651.72 417.648C1650.72 417.039 1649.97 416.297 1649.47 415.422C1648.97 414.547 1648.72 413.523 1648.72 412.352V412.328C1648.72 410.922 1649.1 409.68 1649.85 408.602C1650.61 407.523 1651.67 406.68 1653.01 406.07C1654.37 405.461 1655.93 405.156 1657.68 405.156C1659.46 405.156 1661 405.477 1662.32 406.117C1663.65 406.742 1664.68 407.602 1665.43 408.695C1666.2 409.773 1666.63 410.992 1666.72 412.352L1666.75 412.656H1662.86L1662.83 412.492C1662.68 411.305 1662.15 410.352 1661.26 409.633C1660.39 408.914 1659.19 408.555 1657.68 408.555C1656.69 408.555 1655.84 408.703 1655.12 409C1654.4 409.297 1653.85 409.719 1653.46 410.266C1653.08 410.797 1652.9 411.422 1652.9 412.141V412.164C1652.9 412.711 1653.02 413.211 1653.27 413.664C1653.54 414.102 1653.95 414.484 1654.51 414.812C1655.08 415.141 1655.8 415.414 1656.69 415.633L1660.56 416.57C1663.03 417.164 1664.76 417.984 1665.76 419.031C1666.76 420.062 1667.26 421.445 1667.26 423.18V423.203C1667.26 424.625 1666.85 425.883 1666.02 426.977C1665.21 428.07 1664.08 428.93 1662.65 429.555C1661.22 430.164 1659.61 430.469 1657.79 430.469ZM1680.55 430.469C1678.65 430.469 1677 430.164 1675.61 429.555C1674.22 428.945 1673.12 428.094 1672.3 427C1671.51 425.906 1671.02 424.633 1670.85 423.18L1670.83 422.969H1674.9L1674.95 423.203C1675.2 424.422 1675.79 425.375 1676.71 426.062C1677.63 426.734 1678.92 427.07 1680.58 427.07C1681.69 427.07 1682.63 426.93 1683.41 426.648C1684.19 426.352 1684.8 425.938 1685.22 425.406C1685.64 424.859 1685.85 424.219 1685.85 423.484V423.461C1685.85 422.586 1685.58 421.883 1685.05 421.352C1684.52 420.82 1683.56 420.383 1682.17 420.039L1678.3 419.102C1676.77 418.727 1675.5 418.242 1674.48 417.648C1673.48 417.039 1672.73 416.297 1672.23 415.422C1671.73 414.547 1671.48 413.523 1671.48 412.352V412.328C1671.48 410.922 1671.86 409.68 1672.61 408.602C1673.37 407.523 1674.43 406.68 1675.77 406.07C1677.13 405.461 1678.69 405.156 1680.44 405.156C1682.22 405.156 1683.76 405.477 1685.08 406.117C1686.4 406.742 1687.44 407.602 1688.19 408.695C1688.96 409.773 1689.39 410.992 1689.48 412.352L1689.51 412.656H1685.62L1685.59 412.492C1685.44 411.305 1684.91 410.352 1684.02 409.633C1683.15 408.914 1681.95 408.555 1680.44 408.555C1679.45 408.555 1678.6 408.703 1677.88 409C1677.16 409.297 1676.61 409.719 1676.22 410.266C1675.84 410.797 1675.65 411.422 1675.65 412.141V412.164C1675.65 412.711 1675.78 413.211 1676.03 413.664C1676.3 414.102 1676.71 414.484 1677.27 414.812C1677.83 415.141 1678.56 415.414 1679.45 415.633L1683.32 416.57C1685.79 417.164 1687.52 417.984 1688.52 419.031C1689.52 420.062 1690.02 421.445 1690.02 423.18V423.203C1690.02 424.625 1689.61 425.883 1688.78 426.977C1687.97 428.07 1686.84 428.93 1685.4 429.555C1683.98 430.164 1682.37 430.469 1680.55 430.469ZM1701.79 430.469C1700.18 430.469 1698.77 430.164 1697.55 429.555C1696.33 428.945 1695.38 428.086 1694.69 426.977C1694.02 425.867 1693.68 424.578 1693.68 423.109V423.062C1693.68 421.672 1694.02 420.469 1694.71 419.453C1695.41 418.438 1696.42 417.633 1697.73 417.039C1699.06 416.445 1700.66 416.094 1702.52 415.984L1711.54 415.469V418.633L1702.98 419.148C1701.36 419.242 1700.09 419.633 1699.19 420.32C1698.3 421.008 1697.85 421.922 1697.85 423.062V423.109C1697.85 424.281 1698.29 425.211 1699.16 425.898C1700.05 426.586 1701.23 426.93 1702.7 426.93C1703.98 426.93 1705.13 426.664 1706.15 426.133C1707.18 425.586 1707.99 424.844 1708.59 423.906C1709.2 422.969 1709.5 421.914 1709.5 420.742V413.547C1709.5 412.062 1709.03 410.898 1708.09 410.055C1707.17 409.195 1705.86 408.766 1704.16 408.766C1702.59 408.766 1701.33 409.109 1700.36 409.797C1699.41 410.469 1698.81 411.352 1698.58 412.445L1698.53 412.656H1694.59L1694.62 412.398C1694.74 411.055 1695.2 409.836 1695.98 408.742C1696.77 407.648 1697.87 406.781 1699.26 406.141C1700.65 405.484 1702.3 405.156 1704.2 405.156C1706.12 405.156 1707.78 405.484 1709.17 406.141C1710.58 406.797 1711.66 407.727 1712.43 408.93C1713.2 410.117 1713.58 411.523 1713.58 413.148V430H1709.5V426.039H1709.41C1708.94 426.93 1708.31 427.711 1707.53 428.383C1706.75 429.039 1705.87 429.555 1704.88 429.93C1703.91 430.289 1702.88 430.469 1701.79 430.469ZM1729.47 438.672C1727.47 438.672 1725.72 438.383 1724.22 437.805C1722.74 437.242 1721.53 436.469 1720.61 435.484C1719.7 434.516 1719.12 433.43 1718.85 432.227L1718.81 432.016H1722.91L1723 432.227C1723.39 433.102 1724.14 433.789 1725.25 434.289C1726.38 434.805 1727.77 435.062 1729.42 435.062C1731.56 435.062 1733.22 434.508 1734.39 433.398C1735.56 432.305 1736.15 430.812 1736.15 428.922V425.805H1736.06C1735.57 426.711 1734.95 427.492 1734.18 428.148C1733.42 428.805 1732.53 429.32 1731.53 429.695C1730.55 430.055 1729.47 430.234 1728.3 430.234C1726.25 430.234 1724.45 429.719 1722.88 428.688C1721.34 427.641 1720.13 426.18 1719.25 424.305C1718.39 422.414 1717.96 420.203 1717.96 417.672V417.648C1717.96 415.117 1718.4 412.922 1719.27 411.062C1720.17 409.188 1721.39 407.734 1722.95 406.703C1724.52 405.672 1726.33 405.156 1728.39 405.156C1729.55 405.156 1730.61 405.352 1731.58 405.742C1732.55 406.133 1733.41 406.672 1734.16 407.359C1734.92 408.047 1735.56 408.844 1736.06 409.75H1736.15V405.625H1740.23V429.32C1740.23 431.211 1739.79 432.852 1738.92 434.242C1738.04 435.648 1736.8 436.734 1735.19 437.5C1733.58 438.281 1731.67 438.672 1729.47 438.672ZM1729.19 426.625C1730.58 426.625 1731.79 426.258 1732.82 425.523C1733.87 424.773 1734.68 423.727 1735.26 422.383C1735.85 421.039 1736.15 419.469 1736.15 417.672V417.648C1736.15 415.852 1735.85 414.289 1735.26 412.961C1734.68 411.633 1733.87 410.602 1732.82 409.867C1731.77 409.133 1730.56 408.766 1729.19 408.766C1727.75 408.766 1726.5 409.133 1725.44 409.867C1724.38 410.586 1723.56 411.609 1722.98 412.938C1722.42 414.266 1722.13 415.836 1722.13 417.648V417.672C1722.13 419.516 1722.42 421.109 1722.98 422.453C1723.56 423.781 1724.38 424.812 1725.44 425.547C1726.5 426.266 1727.75 426.625 1729.19 426.625ZM1755.93 430.469C1753.6 430.469 1751.6 429.953 1749.91 428.922C1748.24 427.891 1746.95 426.438 1746.04 424.562C1745.15 422.672 1744.71 420.453 1744.71 417.906V417.883C1744.71 415.367 1745.16 413.156 1746.07 411.25C1746.97 409.328 1748.25 407.836 1749.89 406.773C1751.53 405.695 1753.46 405.156 1755.67 405.156C1757.89 405.156 1759.8 405.672 1761.39 406.703C1763 407.719 1764.24 409.148 1765.1 410.992C1765.96 412.836 1766.39 414.977 1766.39 417.414V418.914H1746.75V415.727H1764.37L1762.31 418.68V417.109C1762.31 415.219 1762.02 413.656 1761.44 412.422C1760.88 411.188 1760.1 410.273 1759.1 409.68C1758.1 409.07 1756.95 408.766 1755.65 408.766C1754.35 408.766 1753.19 409.086 1752.16 409.727C1751.13 410.352 1750.32 411.289 1749.72 412.539C1749.13 413.773 1748.83 415.297 1748.83 417.109V418.68C1748.83 420.398 1749.12 421.867 1749.7 423.086C1750.29 424.305 1751.13 425.242 1752.21 425.898C1753.28 426.539 1754.56 426.859 1756.03 426.859C1757.06 426.859 1757.98 426.703 1758.79 426.391C1759.6 426.078 1760.28 425.648 1760.83 425.102C1761.38 424.555 1761.77 423.93 1762 423.227L1762.07 423.016H1766.08L1766.03 423.25C1765.83 424.25 1765.44 425.188 1764.86 426.062C1764.3 426.938 1763.57 427.711 1762.68 428.383C1761.79 429.039 1760.78 429.555 1759.64 429.93C1758.5 430.289 1757.26 430.469 1755.93 430.469ZM1772.62 438.203H1769.2C1770.04 437.219 1770.83 435.945 1771.54 434.383C1772.26 432.82 1772.89 431.078 1773.42 429.156C1773.97 427.234 1774.39 425.25 1774.68 423.203C1774.98 421.141 1775.13 419.133 1775.13 417.18C1775.13 415.227 1774.98 413.227 1774.68 411.18C1774.39 409.117 1773.97 407.133 1773.42 405.227C1772.89 403.305 1772.26 401.562 1771.54 400C1770.83 398.438 1770.04 397.164 1769.2 396.18H1772.62C1774.15 398.117 1775.4 400.18 1776.37 402.367C1777.36 404.539 1778.08 406.859 1778.55 409.328C1779.04 411.781 1779.28 414.398 1779.28 417.18C1779.28 419.961 1779.04 422.586 1778.55 425.055C1778.08 427.523 1777.36 429.852 1776.37 432.039C1775.4 434.227 1774.15 436.281 1772.62 438.203Z" fill="black"/>
<path opacity="0.6" d="M1199.11 924.203C1197.58 922.266 1196.32 920.203 1195.34 918.016C1194.37 915.844 1193.64 913.523 1193.16 911.055C1192.69 908.586 1192.45 905.961 1192.45 903.18C1192.45 900.398 1192.69 897.781 1193.16 895.328C1193.64 892.859 1194.38 890.539 1195.36 888.367C1196.34 886.18 1197.59 884.117 1199.11 882.18H1202.53C1201.69 883.164 1200.91 884.438 1200.19 886C1199.47 887.562 1198.84 889.305 1198.29 891.227C1197.76 893.133 1197.34 895.117 1197.05 897.18C1196.75 899.227 1196.6 901.227 1196.6 903.18C1196.6 905.133 1196.75 907.141 1197.05 909.203C1197.34 911.266 1197.76 913.258 1198.29 915.18C1198.84 917.086 1199.47 918.82 1200.19 920.383C1200.91 921.945 1201.69 923.219 1202.53 924.203H1199.11ZM1214.13 916L1204.92 882.18H1209.33L1216.15 909.953H1216.24L1223.91 882.18H1228.17L1235.84 909.953H1235.93L1242.75 882.18H1247.16L1237.95 916H1233.96L1226.09 888.906H1225.99L1218.12 916H1214.13ZM1264.85 916.562C1261.73 916.562 1259 915.844 1256.67 914.406C1254.36 912.969 1252.57 910.945 1251.31 908.336C1250.04 905.711 1249.41 902.625 1249.41 899.078V899.055C1249.41 895.508 1250.04 892.43 1251.31 889.82C1252.57 887.211 1254.36 885.195 1256.67 883.773C1258.99 882.336 1261.71 881.617 1264.85 881.617C1267.2 881.617 1269.33 882.062 1271.25 882.953C1273.17 883.844 1274.78 885.086 1276.06 886.68C1277.35 888.273 1278.21 890.141 1278.64 892.281L1278.68 892.516H1274.42L1274.25 892C1273.82 890.625 1273.16 889.461 1272.28 888.508C1271.42 887.539 1270.37 886.797 1269.12 886.281C1267.87 885.766 1266.45 885.508 1264.85 885.508C1262.6 885.508 1260.64 886.07 1258.97 887.195C1257.32 888.305 1256.03 889.875 1255.1 891.906C1254.2 893.922 1253.75 896.305 1253.75 899.055V899.078C1253.75 901.812 1254.2 904.203 1255.1 906.25C1256.03 908.281 1257.32 909.859 1259 910.984C1260.67 912.109 1262.62 912.672 1264.85 912.672C1266.43 912.672 1267.84 912.414 1269.07 911.898C1270.32 911.383 1271.39 910.625 1272.28 909.625C1273.17 908.609 1273.86 907.359 1274.35 905.875L1274.42 905.664H1278.68L1278.64 905.898C1278.21 908.055 1277.36 909.938 1276.08 911.547C1274.8 913.141 1273.2 914.375 1271.28 915.25C1269.35 916.125 1267.21 916.562 1264.85 916.562ZM1295.14 916.562C1292.7 916.562 1290.55 916.188 1288.69 915.438C1286.85 914.672 1285.38 913.586 1284.29 912.18C1283.21 910.773 1282.6 909.109 1282.46 907.188L1282.43 906.859H1286.65L1286.7 907.188C1286.87 908.312 1287.33 909.289 1288.08 910.117C1288.83 910.93 1289.82 911.562 1291.06 912.016C1292.31 912.453 1293.75 912.672 1295.37 912.672C1297 912.672 1298.4 912.445 1299.59 911.992C1300.78 911.523 1301.69 910.859 1302.33 910C1302.99 909.141 1303.32 908.133 1303.32 906.977V906.953C1303.32 905.469 1302.8 904.281 1301.77 903.391C1300.74 902.5 1299.06 901.797 1296.73 901.281L1292.98 900.461C1289.68 899.727 1287.24 898.602 1285.65 897.086C1284.07 895.555 1283.28 893.555 1283.28 891.086V891.062C1283.29 889.203 1283.81 887.57 1284.82 886.164C1285.84 884.742 1287.24 883.633 1289.02 882.836C1290.82 882.023 1292.87 881.617 1295.18 881.617C1297.39 881.617 1299.36 882.016 1301.09 882.812C1302.82 883.594 1304.21 884.688 1305.24 886.094C1306.29 887.5 1306.87 889.125 1307 890.969L1307.02 891.32H1302.8L1302.75 890.992C1302.58 889.836 1302.16 888.852 1301.49 888.039C1300.82 887.227 1299.93 886.602 1298.84 886.164C1297.76 885.727 1296.5 885.508 1295.07 885.508C1293.57 885.508 1292.25 885.734 1291.13 886.188C1290 886.641 1289.13 887.273 1288.5 888.086C1287.9 888.898 1287.59 889.852 1287.59 890.945V890.969C1287.59 892.344 1288.11 893.477 1289.16 894.367C1290.21 895.258 1291.83 895.945 1294.04 896.43L1297.79 897.25C1300.1 897.75 1301.97 898.414 1303.41 899.242C1304.86 900.07 1305.93 901.102 1306.6 902.336C1307.29 903.555 1307.63 905.023 1307.63 906.742V906.766C1307.63 908.766 1307.12 910.5 1306.11 911.969C1305.11 913.438 1303.67 914.57 1301.79 915.367C1299.93 916.164 1297.72 916.562 1295.14 916.562ZM1322.37 916.469C1320.05 916.469 1318.04 915.953 1316.35 914.922C1314.68 913.891 1313.39 912.438 1312.48 910.562C1311.59 908.672 1311.15 906.453 1311.15 903.906V903.883C1311.15 901.367 1311.6 899.156 1312.51 897.25C1313.41 895.328 1314.69 893.836 1316.33 892.773C1317.97 891.695 1319.9 891.156 1322.12 891.156C1324.33 891.156 1326.24 891.672 1327.83 892.703C1329.44 893.719 1330.68 895.148 1331.54 896.992C1332.4 898.836 1332.83 900.977 1332.83 903.414V904.914H1313.19V901.727H1330.81L1328.75 904.68V903.109C1328.75 901.219 1328.46 899.656 1327.88 898.422C1327.32 897.188 1326.54 896.273 1325.54 895.68C1324.54 895.07 1323.39 894.766 1322.09 894.766C1320.8 894.766 1319.63 895.086 1318.6 895.727C1317.57 896.352 1316.76 897.289 1316.16 898.539C1315.57 899.773 1315.27 901.297 1315.27 903.109V904.68C1315.27 906.398 1315.56 907.867 1316.14 909.086C1316.73 910.305 1317.57 911.242 1318.65 911.898C1319.72 912.539 1321 912.859 1322.47 912.859C1323.5 912.859 1324.42 912.703 1325.23 912.391C1326.05 912.078 1326.72 911.648 1327.27 911.102C1327.82 910.555 1328.21 909.93 1328.44 909.227L1328.51 909.016H1332.52L1332.47 909.25C1332.27 910.25 1331.88 911.188 1331.3 912.062C1330.74 912.938 1330.01 913.711 1329.12 914.383C1328.23 915.039 1327.22 915.555 1326.08 915.93C1324.94 916.289 1323.7 916.469 1322.37 916.469ZM1346 916.469C1344.09 916.469 1342.45 916.164 1341.05 915.555C1339.66 914.945 1338.56 914.094 1337.75 913C1336.95 911.906 1336.47 910.633 1336.3 909.18L1336.27 908.969H1340.35L1340.4 909.203C1340.65 910.422 1341.23 911.375 1342.16 912.062C1343.08 912.734 1344.37 913.07 1346.02 913.07C1347.13 913.07 1348.08 912.93 1348.86 912.648C1349.64 912.352 1350.24 911.938 1350.66 911.406C1351.09 910.859 1351.3 910.219 1351.3 909.484V909.461C1351.3 908.586 1351.03 907.883 1350.5 907.352C1349.97 906.82 1349.01 906.383 1347.62 906.039L1343.75 905.102C1342.22 904.727 1340.95 904.242 1339.93 903.648C1338.93 903.039 1338.18 902.297 1337.68 901.422C1337.18 900.547 1336.93 899.523 1336.93 898.352V898.328C1336.93 896.922 1337.3 895.68 1338.05 894.602C1338.82 893.523 1339.88 892.68 1341.22 892.07C1342.58 891.461 1344.13 891.156 1345.88 891.156C1347.66 891.156 1349.21 891.477 1350.52 892.117C1351.85 892.742 1352.89 893.602 1353.64 894.695C1354.41 895.773 1354.84 896.992 1354.93 898.352L1354.95 898.656H1351.06L1351.04 898.492C1350.88 897.305 1350.36 896.352 1349.47 895.633C1348.59 894.914 1347.4 894.555 1345.88 894.555C1344.9 894.555 1344.05 894.703 1343.33 895C1342.61 895.297 1342.05 895.719 1341.66 896.266C1341.29 896.797 1341.1 897.422 1341.1 898.141V898.164C1341.1 898.711 1341.23 899.211 1341.48 899.664C1341.74 900.102 1342.16 900.484 1342.72 900.812C1343.28 901.141 1344.01 901.414 1344.9 901.633L1348.77 902.57C1351.23 903.164 1352.97 903.984 1353.97 905.031C1354.97 906.062 1355.47 907.445 1355.47 909.18V909.203C1355.47 910.625 1355.05 911.883 1354.23 912.977C1353.41 914.07 1352.29 914.93 1350.85 915.555C1349.43 916.164 1347.81 916.469 1346 916.469ZM1368.76 916.469C1366.85 916.469 1365.2 916.164 1363.81 915.555C1362.42 914.945 1361.32 914.094 1360.51 913C1359.71 911.906 1359.23 910.633 1359.06 909.18L1359.03 908.969H1363.11L1363.16 909.203C1363.41 910.422 1363.99 911.375 1364.92 912.062C1365.84 912.734 1367.13 913.07 1368.78 913.07C1369.89 913.07 1370.84 912.93 1371.62 912.648C1372.4 912.352 1373 911.938 1373.42 911.406C1373.85 910.859 1374.06 910.219 1374.06 909.484V909.461C1374.06 908.586 1373.79 907.883 1373.26 907.352C1372.73 906.82 1371.77 906.383 1370.38 906.039L1366.51 905.102C1364.98 904.727 1363.7 904.242 1362.69 903.648C1361.69 903.039 1360.94 902.297 1360.44 901.422C1359.94 900.547 1359.69 899.523 1359.69 898.352V898.328C1359.69 896.922 1360.06 895.68 1360.81 894.602C1361.58 893.523 1362.63 892.68 1363.98 892.07C1365.34 891.461 1366.89 891.156 1368.64 891.156C1370.42 891.156 1371.97 891.477 1373.28 892.117C1374.61 892.742 1375.65 893.602 1376.4 894.695C1377.17 895.773 1377.6 896.992 1377.69 898.352L1377.71 898.656H1373.82L1373.8 898.492C1373.64 897.305 1373.12 896.352 1372.23 895.633C1371.35 894.914 1370.16 894.555 1368.64 894.555C1367.66 894.555 1366.81 894.703 1366.09 895C1365.37 895.297 1364.81 895.719 1364.42 896.266C1364.05 896.797 1363.86 897.422 1363.86 898.141V898.164C1363.86 898.711 1363.99 899.211 1364.24 899.664C1364.5 900.102 1364.92 900.484 1365.48 900.812C1366.04 901.141 1366.77 901.414 1367.66 901.633L1371.52 902.57C1373.99 903.164 1375.73 903.984 1376.73 905.031C1377.73 906.062 1378.23 907.445 1378.23 909.18V909.203C1378.23 910.625 1377.81 911.883 1376.99 912.977C1376.17 914.07 1375.05 914.93 1373.61 915.555C1372.19 916.164 1370.57 916.469 1368.76 916.469ZM1383.13 916V891.625H1387.21V916H1383.13ZM1385.17 887.5C1384.46 887.5 1383.86 887.25 1383.36 886.75C1382.86 886.25 1382.61 885.648 1382.61 884.945C1382.61 884.227 1382.86 883.625 1383.36 883.141C1383.86 882.641 1384.46 882.391 1385.17 882.391C1385.89 882.391 1386.49 882.641 1386.97 883.141C1387.47 883.625 1387.72 884.227 1387.72 884.945C1387.72 885.648 1387.47 886.25 1386.97 886.75C1386.49 887.25 1385.89 887.5 1385.17 887.5ZM1403.26 916.469C1401.01 916.469 1399.04 915.953 1397.33 914.922C1395.65 913.891 1394.32 912.43 1393.37 910.539C1392.43 908.633 1391.97 906.391 1391.97 903.812V903.766C1391.97 901.172 1392.43 898.938 1393.37 897.062C1394.32 895.172 1395.65 893.719 1397.33 892.703C1399.04 891.672 1401 891.156 1403.24 891.156C1405.49 891.156 1407.46 891.672 1409.15 892.703C1410.85 893.719 1412.17 895.172 1413.11 897.062C1414.06 898.938 1414.54 901.172 1414.54 903.766V903.812C1414.54 906.406 1414.06 908.648 1413.11 910.539C1412.17 912.43 1410.86 913.891 1409.17 914.922C1407.48 915.953 1405.51 916.469 1403.26 916.469ZM1403.29 912.859C1404.72 912.859 1405.97 912.508 1407.01 911.805C1408.07 911.086 1408.9 910.055 1409.47 908.711C1410.07 907.352 1410.36 905.719 1410.36 903.812V903.766C1410.36 901.859 1410.07 900.234 1409.47 898.891C1408.9 897.547 1408.07 896.523 1406.99 895.82C1405.93 895.117 1404.68 894.766 1403.24 894.766C1401.83 894.766 1400.59 895.125 1399.51 895.844C1398.45 896.547 1397.62 897.57 1397.03 898.914C1396.43 900.242 1396.14 901.859 1396.14 903.766V903.812C1396.14 905.719 1396.43 907.352 1397.03 908.711C1397.62 910.055 1398.45 911.086 1399.51 911.805C1400.59 912.508 1401.85 912.859 1403.29 912.859ZM1419.06 916V891.625H1423.14V895.094H1423.23C1423.89 893.953 1424.84 893.016 1426.09 892.281C1427.34 891.531 1428.89 891.156 1430.73 891.156C1433.4 891.156 1435.48 891.969 1436.94 893.594C1438.43 895.203 1439.17 897.398 1439.17 900.18V916H1435.09V900.906C1435.09 898.922 1434.62 897.406 1433.69 896.359C1432.76 895.297 1431.37 894.766 1429.49 894.766C1428.21 894.766 1427.09 895.055 1426.14 895.633C1425.19 896.195 1424.44 896.992 1423.91 898.023C1423.4 899.055 1423.14 900.266 1423.14 901.656V916H1419.06ZM1447.28 916.328C1446.53 916.328 1445.9 916.07 1445.38 915.555C1444.87 915.039 1444.61 914.406 1444.61 913.656C1444.61 912.906 1444.87 912.273 1445.38 911.758C1445.9 911.242 1446.53 910.984 1447.28 910.984C1448.03 910.984 1448.66 911.242 1449.18 911.758C1449.7 912.273 1449.95 912.906 1449.95 913.656C1449.95 914.406 1449.7 915.039 1449.18 915.555C1448.66 916.07 1448.03 916.328 1447.28 916.328ZM1471.31 916.469C1469.07 916.469 1467.4 915.938 1466.29 914.875C1465.18 913.812 1464.63 912.117 1464.63 909.789V895H1461.07V891.625H1464.63V885.039H1468.85V891.625H1473.49V895H1468.85V909.766C1468.85 911.062 1469.13 911.945 1469.69 912.414C1470.25 912.867 1471.08 913.094 1472.17 913.094C1472.42 913.094 1472.66 913.086 1472.88 913.07C1473.11 913.039 1473.32 913.016 1473.49 913V916.305C1473.24 916.336 1472.91 916.367 1472.5 916.398C1472.11 916.445 1471.71 916.469 1471.31 916.469ZM1478.27 916V891.625H1482.35V895.75H1482.44C1482.85 894.344 1483.55 893.227 1484.55 892.398C1485.55 891.57 1486.74 891.156 1488.11 891.156C1488.47 891.156 1488.79 891.18 1489.08 891.227C1489.37 891.258 1489.6 891.289 1489.75 891.32V895.281C1489.6 895.219 1489.32 895.164 1488.91 895.117C1488.52 895.07 1488.08 895.047 1487.58 895.047C1486.53 895.047 1485.61 895.281 1484.81 895.75C1484.03 896.219 1483.42 896.898 1482.98 897.789C1482.56 898.664 1482.35 899.719 1482.35 900.953V916H1478.27ZM1500.14 916.469C1498.53 916.469 1497.12 916.164 1495.9 915.555C1494.68 914.945 1493.73 914.086 1493.04 912.977C1492.37 911.867 1492.03 910.578 1492.03 909.109V909.062C1492.03 907.672 1492.37 906.469 1493.06 905.453C1493.76 904.438 1494.77 903.633 1496.08 903.039C1497.41 902.445 1499.01 902.094 1500.87 901.984L1509.89 901.469V904.633L1501.33 905.148C1499.71 905.242 1498.44 905.633 1497.54 906.32C1496.65 907.008 1496.2 907.922 1496.2 909.062V909.109C1496.2 910.281 1496.64 911.211 1497.51 911.898C1498.4 912.586 1499.58 912.93 1501.05 912.93C1502.33 912.93 1503.48 912.664 1504.5 912.133C1505.53 911.586 1506.34 910.844 1506.94 909.906C1507.55 908.969 1507.85 907.914 1507.85 906.742V899.547C1507.85 898.062 1507.38 896.898 1506.44 896.055C1505.52 895.195 1504.21 894.766 1502.51 894.766C1500.94 894.766 1499.68 895.109 1498.71 895.797C1497.76 896.469 1497.16 897.352 1496.93 898.445L1496.88 898.656H1492.94L1492.97 898.398C1493.09 897.055 1493.55 895.836 1494.33 894.742C1495.12 893.648 1496.22 892.781 1497.61 892.141C1499 891.484 1500.65 891.156 1502.55 891.156C1504.48 891.156 1506.13 891.484 1507.52 892.141C1508.93 892.797 1510.01 893.727 1510.78 894.93C1511.55 896.117 1511.93 897.523 1511.93 899.148V916H1507.85V912.039H1507.76C1507.29 912.93 1506.66 913.711 1505.88 914.383C1505.1 915.039 1504.22 915.555 1503.23 915.93C1502.26 916.289 1501.23 916.469 1500.14 916.469ZM1517.51 916V891.625H1521.59V895.094H1521.68C1522.34 893.953 1523.29 893.016 1524.54 892.281C1525.79 891.531 1527.34 891.156 1529.18 891.156C1531.85 891.156 1533.92 891.969 1535.39 893.594C1536.88 895.203 1537.62 897.398 1537.62 900.18V916H1533.54V900.906C1533.54 898.922 1533.07 897.406 1532.13 896.359C1531.21 895.297 1529.81 894.766 1527.94 894.766C1526.66 894.766 1525.54 895.055 1524.59 895.633C1523.63 896.195 1522.89 896.992 1522.36 898.023C1521.84 899.055 1521.59 900.266 1521.59 901.656V916H1517.51ZM1551.87 916.469C1549.96 916.469 1548.31 916.164 1546.92 915.555C1545.53 914.945 1544.43 914.094 1543.62 913C1542.82 911.906 1542.34 910.633 1542.17 909.18L1542.14 908.969H1546.22L1546.27 909.203C1546.52 910.422 1547.1 911.375 1548.02 912.062C1548.95 912.734 1550.24 913.07 1551.89 913.07C1553 913.07 1553.95 912.93 1554.73 912.648C1555.51 912.352 1556.11 911.938 1556.53 911.406C1556.95 910.859 1557.17 910.219 1557.17 909.484V909.461C1557.17 908.586 1556.9 907.883 1556.37 907.352C1555.84 906.82 1554.88 906.383 1553.49 906.039L1549.62 905.102C1548.09 904.727 1546.81 904.242 1545.8 903.648C1544.8 903.039 1544.05 902.297 1543.55 901.422C1543.05 900.547 1542.8 899.523 1542.8 898.352V898.328C1542.8 896.922 1543.17 895.68 1543.92 894.602C1544.69 893.523 1545.74 892.68 1547.09 892.07C1548.45 891.461 1550 891.156 1551.75 891.156C1553.53 891.156 1555.08 891.477 1556.39 892.117C1557.72 892.742 1558.76 893.602 1559.51 894.695C1560.27 895.773 1560.7 896.992 1560.8 898.352L1560.82 898.656H1556.93L1556.91 898.492C1556.75 897.305 1556.23 896.352 1555.34 895.633C1554.46 894.914 1553.27 894.555 1551.75 894.555C1550.77 894.555 1549.92 894.703 1549.2 895C1548.48 895.297 1547.92 895.719 1547.53 896.266C1547.16 896.797 1546.97 897.422 1546.97 898.141V898.164C1546.97 898.711 1547.1 899.211 1547.35 899.664C1547.61 900.102 1548.02 900.484 1548.59 900.812C1549.15 901.141 1549.88 901.414 1550.77 901.633L1554.63 902.57C1557.1 903.164 1558.84 903.984 1559.84 905.031C1560.84 906.062 1561.34 907.445 1561.34 909.18V909.203C1561.34 910.625 1560.92 911.883 1560.1 912.977C1559.28 914.07 1558.16 914.93 1556.72 915.555C1555.3 916.164 1553.68 916.469 1551.87 916.469ZM1567.29 916V895H1563.89V891.625H1567.29V888.625C1567.29 887.062 1567.53 885.773 1568.02 884.758C1568.52 883.727 1569.26 882.961 1570.25 882.461C1571.23 881.961 1572.47 881.711 1573.97 881.711C1574.42 881.711 1574.88 881.727 1575.33 881.758C1575.78 881.789 1576.16 881.828 1576.46 881.875V885.18C1576.21 885.148 1575.92 885.125 1575.61 885.109C1575.32 885.094 1575.01 885.086 1574.7 885.086C1573.57 885.086 1572.73 885.383 1572.17 885.977C1571.6 886.555 1571.32 887.445 1571.32 888.648V891.625H1576.34V895H1571.37V916H1567.29ZM1588.65 916.469C1586.32 916.469 1584.31 915.953 1582.62 914.922C1580.95 913.891 1579.66 912.438 1578.75 910.562C1577.86 908.672 1577.42 906.453 1577.42 903.906V903.883C1577.42 901.367 1577.87 899.156 1578.78 897.25C1579.68 895.328 1580.96 893.836 1582.6 892.773C1584.24 891.695 1586.17 891.156 1588.39 891.156C1590.61 891.156 1592.51 891.672 1594.11 892.703C1595.72 893.719 1596.95 895.148 1597.81 896.992C1598.67 898.836 1599.1 900.977 1599.1 903.414V904.914H1579.46V901.727H1597.08L1595.02 904.68V903.109C1595.02 901.219 1594.73 899.656 1594.15 898.422C1593.59 897.188 1592.81 896.273 1591.81 895.68C1590.81 895.07 1589.66 894.766 1588.36 894.766C1587.07 894.766 1585.9 895.086 1584.87 895.727C1583.84 896.352 1583.03 897.289 1582.43 898.539C1581.84 899.773 1581.54 901.297 1581.54 903.109V904.68C1581.54 906.398 1581.83 907.867 1582.41 909.086C1583 910.305 1583.84 911.242 1584.92 911.898C1586 912.539 1587.27 912.859 1588.74 912.859C1589.77 912.859 1590.69 912.703 1591.5 912.391C1592.32 912.078 1593 911.648 1593.54 911.102C1594.09 910.555 1594.48 909.93 1594.72 909.227L1594.79 909.016H1598.79L1598.75 909.25C1598.54 910.25 1598.15 911.188 1597.58 912.062C1597.01 912.938 1596.29 913.711 1595.4 914.383C1594.5 915.039 1593.49 915.555 1592.35 915.93C1591.21 916.289 1589.97 916.469 1588.65 916.469ZM1603.62 916V891.625H1607.7V895.75H1607.8C1608.2 894.344 1608.9 893.227 1609.9 892.398C1610.9 891.57 1612.09 891.156 1613.47 891.156C1613.83 891.156 1614.15 891.18 1614.43 891.227C1614.73 891.258 1614.95 891.289 1615.11 891.32V895.281C1614.95 895.219 1614.67 895.164 1614.26 895.117C1613.87 895.07 1613.43 895.047 1612.93 895.047C1611.88 895.047 1610.96 895.281 1610.16 895.75C1609.38 896.219 1608.77 896.898 1608.33 897.789C1607.91 898.664 1607.7 899.719 1607.7 900.953V916H1603.62ZM1632.92 916.562C1630.12 916.562 1627.72 916.039 1625.7 914.992C1623.7 913.945 1622.16 912.492 1621.09 910.633C1620.01 908.758 1619.47 906.594 1619.47 904.141V882.18H1623.69V903.859C1623.69 905.594 1624.05 907.125 1624.77 908.453C1625.5 909.766 1626.55 910.797 1627.93 911.547C1629.3 912.297 1630.97 912.672 1632.92 912.672C1634.88 912.672 1636.53 912.297 1637.89 911.547C1639.27 910.797 1640.31 909.766 1641.03 908.453C1641.75 907.125 1642.11 905.594 1642.11 903.859V882.18H1646.33V904.141C1646.33 906.594 1645.79 908.758 1644.71 910.633C1643.65 912.492 1642.12 913.945 1640.12 914.992C1638.12 916.039 1635.72 916.562 1632.92 916.562ZM1660.84 916.469C1658.93 916.469 1657.28 916.164 1655.89 915.555C1654.5 914.945 1653.4 914.094 1652.59 913C1651.79 911.906 1651.31 910.633 1651.13 909.18L1651.11 908.969H1655.19L1655.24 909.203C1655.49 910.422 1656.07 911.375 1656.99 912.062C1657.92 912.734 1659.2 913.07 1660.86 913.07C1661.97 913.07 1662.92 912.93 1663.7 912.648C1664.48 912.352 1665.08 911.938 1665.5 911.406C1665.92 910.859 1666.13 910.219 1666.13 909.484V909.461C1666.13 908.586 1665.87 907.883 1665.34 907.352C1664.81 906.82 1663.85 906.383 1662.45 906.039L1658.59 905.102C1657.06 904.727 1655.78 904.242 1654.77 903.648C1653.77 903.039 1653.02 902.297 1652.52 901.422C1652.02 900.547 1651.77 899.523 1651.77 898.352V898.328C1651.77 896.922 1652.14 895.68 1652.89 894.602C1653.66 893.523 1654.71 892.68 1656.06 892.07C1657.42 891.461 1658.97 891.156 1660.72 891.156C1662.5 891.156 1664.05 891.477 1665.36 892.117C1666.69 892.742 1667.73 893.602 1668.48 894.695C1669.24 895.773 1669.67 896.992 1669.77 898.352L1669.79 898.656H1665.9L1665.88 898.492C1665.72 897.305 1665.2 896.352 1664.31 895.633C1663.43 894.914 1662.24 894.555 1660.72 894.555C1659.74 894.555 1658.88 894.703 1658.17 895C1657.45 895.297 1656.89 895.719 1656.5 896.266C1656.13 896.797 1655.94 897.422 1655.94 898.141V898.164C1655.94 898.711 1656.06 899.211 1656.31 899.664C1656.58 900.102 1656.99 900.484 1657.56 900.812C1658.12 901.141 1658.85 901.414 1659.74 901.633L1663.6 902.57C1666.07 903.164 1667.81 903.984 1668.81 905.031C1669.81 906.062 1670.31 907.445 1670.31 909.18V909.203C1670.31 910.625 1669.89 911.883 1669.06 912.977C1668.25 914.07 1667.13 914.93 1665.69 915.555C1664.27 916.164 1662.65 916.469 1660.84 916.469ZM1684.98 916.469C1682.65 916.469 1680.64 915.953 1678.96 914.922C1677.28 913.891 1676 912.438 1675.09 910.562C1674.2 908.672 1673.75 906.453 1673.75 903.906V903.883C1673.75 901.367 1674.21 899.156 1675.11 897.25C1676.02 895.328 1677.29 893.836 1678.93 892.773C1680.57 891.695 1682.5 891.156 1684.72 891.156C1686.94 891.156 1688.85 891.672 1690.44 892.703C1692.05 893.719 1693.28 895.148 1694.14 896.992C1695 898.836 1695.43 900.977 1695.43 903.414V904.914H1675.79V901.727H1693.42L1691.35 904.68V903.109C1691.35 901.219 1691.07 899.656 1690.49 898.422C1689.92 897.188 1689.14 896.273 1688.14 895.68C1687.14 895.07 1686 894.766 1684.7 894.766C1683.4 894.766 1682.24 895.086 1681.21 895.727C1680.17 896.352 1679.36 897.289 1678.77 898.539C1678.17 899.773 1677.88 901.297 1677.88 903.109V904.68C1677.88 906.398 1678.17 907.867 1678.75 909.086C1679.34 910.305 1680.17 911.242 1681.25 911.898C1682.33 912.539 1683.6 912.859 1685.07 912.859C1686.1 912.859 1687.03 912.703 1687.84 912.391C1688.65 912.078 1689.33 911.648 1689.88 911.102C1690.42 910.555 1690.82 909.93 1691.05 909.227L1691.12 909.016H1695.13L1695.08 909.25C1694.88 910.25 1694.49 911.188 1693.91 912.062C1693.35 912.938 1692.62 913.711 1691.73 914.383C1690.84 915.039 1689.82 915.555 1688.68 915.93C1687.54 916.289 1686.31 916.469 1684.98 916.469ZM1699.96 916V891.625H1704.04V895.75H1704.13C1704.54 894.344 1705.24 893.227 1706.24 892.398C1707.24 891.57 1708.43 891.156 1709.8 891.156C1710.16 891.156 1710.48 891.18 1710.76 891.227C1711.06 891.258 1711.29 891.289 1711.44 891.32V895.281C1711.29 895.219 1711 895.164 1710.6 895.117C1710.21 895.07 1709.76 895.047 1709.26 895.047C1708.22 895.047 1707.29 895.281 1706.5 895.75C1705.72 896.219 1705.11 896.898 1704.67 897.789C1704.25 898.664 1704.04 899.719 1704.04 900.953V916H1699.96ZM1715.8 916V882.18H1720.02V916H1715.8ZM1726.35 916V891.625H1730.43V895.094H1730.52C1731.18 893.953 1732.13 893.016 1733.38 892.281C1734.63 891.531 1736.18 891.156 1738.02 891.156C1740.7 891.156 1742.77 891.969 1744.23 893.594C1745.72 895.203 1746.46 897.398 1746.46 900.18V916H1742.38V900.906C1742.38 898.922 1741.91 897.406 1740.98 896.359C1740.05 895.297 1738.66 894.766 1736.78 894.766C1735.5 894.766 1734.38 895.055 1733.43 895.633C1732.48 896.195 1731.73 896.992 1731.2 898.023C1730.69 899.055 1730.43 900.266 1730.43 901.656V916H1726.35ZM1753.38 916V895H1749.98V891.625H1753.38V888.625C1753.38 887.062 1753.62 885.773 1754.1 884.758C1754.6 883.727 1755.35 882.961 1756.33 882.461C1757.31 881.961 1758.56 881.711 1760.06 881.711C1760.51 881.711 1760.96 881.727 1761.42 881.758C1761.87 881.789 1762.24 881.828 1762.54 881.875V885.18C1762.29 885.148 1762.01 885.125 1761.7 885.109C1761.4 885.094 1761.1 885.086 1760.78 885.086C1759.66 885.086 1758.81 885.383 1758.25 885.977C1757.69 886.555 1757.41 887.445 1757.41 888.648V891.625H1762.42V895H1757.45V916H1753.38ZM1774.8 916.469C1772.55 916.469 1770.57 915.953 1768.87 914.922C1767.18 913.891 1765.86 912.43 1764.91 910.539C1763.97 908.633 1763.5 906.391 1763.5 903.812V903.766C1763.5 901.172 1763.97 898.938 1764.91 897.062C1765.86 895.172 1767.18 893.719 1768.87 892.703C1770.57 891.672 1772.54 891.156 1774.78 891.156C1777.03 891.156 1779 891.672 1780.68 892.703C1782.39 893.719 1783.71 895.172 1784.64 897.062C1785.6 898.938 1786.07 901.172 1786.07 903.766V903.812C1786.07 906.406 1785.6 908.648 1784.64 910.539C1783.71 912.43 1782.39 913.891 1780.71 914.922C1779.02 915.953 1777.05 916.469 1774.8 916.469ZM1774.82 912.859C1776.26 912.859 1777.5 912.508 1778.55 911.805C1779.61 911.086 1780.43 910.055 1781.01 908.711C1781.6 907.352 1781.9 905.719 1781.9 903.812V903.766C1781.9 901.859 1781.6 900.234 1781.01 898.891C1780.43 897.547 1779.6 896.523 1778.53 895.82C1777.46 895.117 1776.21 894.766 1774.78 894.766C1773.37 894.766 1772.13 895.125 1771.05 895.844C1769.99 896.547 1769.16 897.57 1768.57 898.914C1767.97 900.242 1767.67 901.859 1767.67 903.766V903.812C1767.67 905.719 1767.97 907.352 1768.57 908.711C1769.16 910.055 1769.99 911.086 1771.05 911.805C1772.13 912.508 1773.39 912.859 1774.82 912.859ZM1792.31 924.203H1788.89C1789.73 923.219 1790.51 921.945 1791.23 920.383C1791.95 918.82 1792.58 917.078 1793.11 915.156C1793.65 913.234 1794.08 911.25 1794.37 909.203C1794.67 907.141 1794.82 905.133 1794.82 903.18C1794.82 901.227 1794.67 899.227 1794.37 897.18C1794.08 895.117 1793.65 893.133 1793.11 891.227C1792.58 889.305 1791.95 887.562 1791.23 886C1790.51 884.438 1789.73 883.164 1788.89 882.18H1792.31C1793.84 884.117 1795.09 886.18 1796.06 888.367C1797.04 890.539 1797.77 892.859 1798.24 895.328C1798.72 897.781 1798.97 900.398 1798.97 903.18C1798.97 905.961 1798.72 908.586 1798.24 911.055C1797.77 913.523 1797.04 915.852 1796.06 918.039C1795.09 920.227 1793.84 922.281 1792.31 924.203Z" fill="black"/>
<path opacity="0.6" d="M1400.28 744V710.18H1404.5V724.805H1423.06V710.18H1427.28V744H1423.06V728.602H1404.5V744H1400.28ZM1443.64 744.469C1441.31 744.469 1439.31 743.953 1437.62 742.922C1435.95 741.891 1434.66 740.438 1433.75 738.562C1432.86 736.672 1432.42 734.453 1432.42 731.906V731.883C1432.42 729.367 1432.87 727.156 1433.78 725.25C1434.68 723.328 1435.95 721.836 1437.6 720.773C1439.24 719.695 1441.17 719.156 1443.38 719.156C1445.6 719.156 1447.51 719.672 1449.1 720.703C1450.71 721.719 1451.95 723.148 1452.81 724.992C1453.67 726.836 1454.1 728.977 1454.1 731.414V732.914H1434.45V729.727H1452.08L1450.02 732.68V731.109C1450.02 729.219 1449.73 727.656 1449.15 726.422C1448.59 725.188 1447.81 724.273 1446.81 723.68C1445.81 723.07 1444.66 722.766 1443.36 722.766C1442.06 722.766 1440.9 723.086 1439.87 723.727C1438.84 724.352 1438.03 725.289 1437.43 726.539C1436.84 727.773 1436.54 729.297 1436.54 731.109V732.68C1436.54 734.398 1436.83 735.867 1437.41 737.086C1438 738.305 1438.84 739.242 1439.92 739.898C1440.99 740.539 1442.27 740.859 1443.74 740.859C1444.77 740.859 1445.69 740.703 1446.5 740.391C1447.31 740.078 1447.99 739.648 1448.54 739.102C1449.09 738.555 1449.48 737.93 1449.71 737.227L1449.78 737.016H1453.79L1453.74 737.25C1453.54 738.25 1453.15 739.188 1452.57 740.062C1452.01 740.938 1451.28 741.711 1450.39 742.383C1449.5 743.039 1448.49 743.555 1447.35 743.93C1446.2 744.289 1444.97 744.469 1443.64 744.469ZM1465.75 744.469C1464.14 744.469 1462.72 744.164 1461.5 743.555C1460.28 742.945 1459.33 742.086 1458.64 740.977C1457.97 739.867 1457.64 738.578 1457.64 737.109V737.062C1457.64 735.672 1457.98 734.469 1458.67 733.453C1459.37 732.438 1460.38 731.633 1461.69 731.039C1463.02 730.445 1464.61 730.094 1466.47 729.984L1475.5 729.469V732.633L1466.94 733.148C1465.32 733.242 1464.05 733.633 1463.14 734.32C1462.25 735.008 1461.81 735.922 1461.81 737.062V737.109C1461.81 738.281 1462.25 739.211 1463.12 739.898C1464.01 740.586 1465.19 740.93 1466.66 740.93C1467.94 740.93 1469.09 740.664 1470.1 740.133C1471.14 739.586 1471.95 738.844 1472.54 737.906C1473.15 736.969 1473.46 735.914 1473.46 734.742V727.547C1473.46 726.062 1472.99 724.898 1472.05 724.055C1471.13 723.195 1469.82 722.766 1468.11 722.766C1466.55 722.766 1465.28 723.109 1464.32 723.797C1463.36 724.469 1462.77 725.352 1462.53 726.445L1462.49 726.656H1458.55L1458.57 726.398C1458.7 725.055 1459.15 723.836 1459.93 722.742C1460.73 721.648 1461.82 720.781 1463.21 720.141C1464.6 719.484 1466.25 719.156 1468.16 719.156C1470.08 719.156 1471.74 719.484 1473.13 720.141C1474.53 720.797 1475.62 721.727 1476.39 722.93C1477.15 724.117 1477.53 725.523 1477.53 727.148V744H1473.46V740.039H1473.36C1472.89 740.93 1472.27 741.711 1471.49 742.383C1470.71 743.039 1469.82 743.555 1468.84 743.93C1467.87 744.289 1466.84 744.469 1465.75 744.469ZM1483.32 744V710.18H1487.4V744H1483.32ZM1501.23 744.469C1499 744.469 1497.33 743.938 1496.22 742.875C1495.11 741.812 1494.55 740.117 1494.55 737.789V723H1490.99V719.625H1494.55V713.039H1498.77V719.625H1503.41V723H1498.77V737.766C1498.77 739.062 1499.05 739.945 1499.62 740.414C1500.18 740.867 1501.01 741.094 1502.1 741.094C1502.35 741.094 1502.58 741.086 1502.8 741.07C1503.04 741.039 1503.24 741.016 1503.41 741V744.305C1503.16 744.336 1502.83 744.367 1502.43 744.398C1502.04 744.445 1501.64 744.469 1501.23 744.469ZM1508.41 744V710.18H1512.48V723.516H1512.58C1513.23 722.141 1514.21 721.07 1515.51 720.305C1516.8 719.539 1518.36 719.156 1520.17 719.156C1521.91 719.156 1523.42 719.578 1524.72 720.422C1526.03 721.25 1527.05 722.406 1527.79 723.891C1528.52 725.375 1528.89 727.102 1528.89 729.07V744H1524.81V729.773C1524.81 727.57 1524.28 725.852 1523.22 724.617C1522.16 723.383 1520.67 722.766 1518.77 722.766C1517.52 722.766 1516.41 723.062 1515.46 723.656C1514.52 724.25 1513.79 725.07 1513.26 726.117C1512.74 727.164 1512.48 728.383 1512.48 729.773V744H1508.41ZM1538.97 732.562V726.773H1539.46L1553.81 710.18H1559.1L1545.65 725.438H1545.44L1538.97 732.562ZM1535.1 744V710.18H1539.32V744H1535.1ZM1554.95 744L1542.7 727.875L1545.67 724.875L1560.35 744H1554.95ZM1563.96 744V719.625H1568.03V744H1563.96ZM1566 715.5C1565.29 715.5 1564.69 715.25 1564.19 714.75C1563.69 714.25 1563.44 713.648 1563.44 712.945C1563.44 712.227 1563.69 711.625 1564.19 711.141C1564.69 710.641 1565.29 710.391 1566 710.391C1566.71 710.391 1567.32 710.641 1567.8 711.141C1568.3 711.625 1568.55 712.227 1568.55 712.945C1568.55 713.648 1568.3 714.25 1567.8 714.75C1567.32 715.25 1566.71 715.5 1566 715.5ZM1581.91 744.469C1579.68 744.469 1578 743.938 1576.9 742.875C1575.79 741.812 1575.23 740.117 1575.23 737.789V723H1571.67V719.625H1575.23V713.039H1579.45V719.625H1584.09V723H1579.45V737.766C1579.45 739.062 1579.73 739.945 1580.29 740.414C1580.86 740.867 1581.68 741.094 1582.78 741.094C1583.03 741.094 1583.26 741.086 1583.48 741.07C1583.72 741.039 1583.92 741.016 1584.09 741V744.305C1583.84 744.336 1583.51 744.367 1583.11 744.398C1582.72 744.445 1582.32 744.469 1581.91 744.469Z" fill="black"/>
<defs>
<clipPath id="clip0_4547_8071">
<rect x="1386" y="478" width="212" height="212" rx="44" fill="white"/>
</clipPath>
</defs>
</svg>
