<svg width="2849" height="1162" viewBox="0 0 2849 1162" fill="none" xmlns="http://www.w3.org/2000/svg">
<rect width="2849" height="1162" fill="white"/>
<path d="M1828.98 755.844C1830.17 752.751 1828.63 749.28 1825.53 748.091C1822.44 746.902 1818.97 748.445 1817.78 751.538L1823.38 753.691L1828.98 755.844ZM1683.87 944.14L1751.63 929.715L1705.26 878.243L1683.87 944.14ZM1823.38 753.691L1817.78 751.538C1795.82 808.658 1762.37 860.442 1719.71 903.787L1723.99 907.996L1728.26 912.205C1772.08 867.689 1806.43 814.507 1828.98 755.844L1823.38 753.691Z" fill="#FFCC00"/>
<path d="M1693.64 200.328C1690.96 198.379 1687.2 198.971 1685.26 201.651C1683.31 204.331 1683.9 208.083 1686.58 210.032L1690.11 205.18L1693.64 200.328ZM1837.96 389.229L1841.56 320.041L1779.84 351.514L1837.96 389.229ZM1690.11 205.18L1686.58 210.032C1736.07 246.028 1777.43 291.739 1808.26 344.165L1813.43 341.124L1818.6 338.083C1786.94 284.241 1744.46 237.295 1693.64 200.328L1690.11 205.18Z" fill="#FFCC00"/>
<path d="M1030.4 380.296C1029.21 383.389 1030.75 386.86 1033.85 388.05C1036.94 389.239 1040.41 387.695 1041.6 384.602L1036 382.449L1030.4 380.296ZM1175.51 192L1107.75 206.426L1154.12 257.898L1175.51 192ZM1036 382.449L1041.6 384.602C1063.56 327.483 1097.01 275.698 1139.67 232.354L1135.39 228.145L1131.12 223.936C1087.3 268.451 1052.95 321.634 1030.4 380.296L1036 382.449Z" fill="#FFCC00"/>
<path d="M1179.43 945.903C1182.11 947.852 1185.86 947.259 1187.81 944.58C1189.76 941.9 1189.17 938.147 1186.49 936.198L1182.96 941.05L1179.43 945.903ZM1035.11 757.001L1031.5 826.189L1093.23 794.717L1035.11 757.001ZM1182.96 941.05L1186.49 936.198C1137 900.203 1095.64 854.492 1064.81 802.065L1059.64 805.106L1054.47 808.148C1086.12 861.99 1128.6 908.935 1179.43 945.903L1182.96 941.05Z" fill="#FFCC00"/>
<rect x="1219.5" y="97.5" width="417" height="313" rx="43.5" fill="#FFCC00" fill-opacity="0.2" stroke="#FFCC00"/>
<rect x="1678.5" y="411.5" width="417" height="313" rx="43.5" fill="#FFCC00" fill-opacity="0.2" stroke="#FFCC00"/>
<rect x="1219.5" y="744.5" width="417" height="313" rx="43.5" fill="#FFCC00" fill-opacity="0.2" stroke="#FFCC00"/>
<rect x="753.5" y="411.5" width="417" height="313" rx="43.5" fill="#FFCC00" fill-opacity="0.2" stroke="#FFCC00"/>
<path d="M1275.45 213.734V175.687H1282.25V213.734H1275.45ZM1299.08 214.288C1296.73 214.288 1294.68 213.708 1292.94 212.548C1291.21 211.37 1289.88 209.691 1288.93 207.512C1288 205.332 1287.53 202.748 1287.53 199.76V199.733C1287.53 196.728 1288.01 194.144 1288.96 191.981C1289.9 189.802 1291.24 188.132 1292.96 186.972C1294.69 185.794 1296.72 185.205 1299.05 185.205C1300.39 185.205 1301.61 185.425 1302.72 185.864C1303.84 186.286 1304.84 186.901 1305.7 187.71C1306.56 188.501 1307.25 189.459 1307.78 190.584H1307.94V175.687H1314.48V213.734H1307.94V208.988H1307.78C1307.27 210.096 1306.59 211.045 1305.73 211.836C1304.88 212.609 1303.9 213.216 1302.77 213.655C1301.66 214.077 1300.43 214.288 1299.08 214.288ZM1301.06 208.777C1302.41 208.777 1303.61 208.408 1304.64 207.67C1305.68 206.932 1306.49 205.886 1307.07 204.532C1307.65 203.179 1307.94 201.588 1307.94 199.76V199.733C1307.94 197.905 1307.64 196.323 1307.04 194.987C1306.46 193.634 1305.65 192.588 1304.62 191.85C1303.6 191.111 1302.41 190.742 1301.06 190.742C1299.65 190.742 1298.43 191.111 1297.39 191.85C1296.37 192.57 1295.58 193.599 1295.02 194.935C1294.48 196.271 1294.2 197.87 1294.2 199.733V199.76C1294.2 201.605 1294.48 203.205 1295.02 204.559C1295.58 205.912 1296.37 206.958 1297.39 207.696C1298.43 208.417 1299.65 208.777 1301.06 208.777ZM1332.7 214.288C1329.91 214.288 1327.5 213.699 1325.48 212.521C1323.47 211.344 1321.94 209.674 1320.86 207.512C1319.79 205.35 1319.26 202.792 1319.26 199.839V199.812C1319.26 196.877 1319.79 194.319 1320.86 192.14C1321.95 189.942 1323.47 188.237 1325.43 187.024C1327.39 185.812 1329.72 185.205 1332.39 185.205C1335.04 185.205 1337.34 185.794 1339.27 186.972C1341.22 188.132 1342.71 189.767 1343.75 191.876C1344.81 193.985 1345.33 196.446 1345.33 199.259V201.368H1322.5V196.991H1342.2L1339.03 201.078V198.547C1339.03 196.719 1338.75 195.198 1338.19 193.985C1337.63 192.772 1336.85 191.867 1335.87 191.27C1334.88 190.654 1333.75 190.347 1332.47 190.347C1331.17 190.347 1330.01 190.663 1328.99 191.296C1327.98 191.911 1327.19 192.834 1326.61 194.064C1326.05 195.295 1325.77 196.789 1325.77 198.547V201.078C1325.77 202.783 1326.05 204.242 1326.61 205.455C1327.19 206.65 1328.01 207.573 1329.06 208.224C1330.12 208.856 1331.38 209.173 1332.84 209.173C1333.92 209.173 1334.88 209.006 1335.71 208.672C1336.54 208.32 1337.21 207.872 1337.74 207.327C1338.28 206.782 1338.66 206.193 1338.87 205.561L1338.93 205.376H1345.04L1344.99 205.666C1344.76 206.738 1344.34 207.793 1343.72 208.83C1343.11 209.85 1342.28 210.772 1341.25 211.599C1340.21 212.425 1338.98 213.084 1337.55 213.576C1336.13 214.051 1334.51 214.288 1332.7 214.288ZM1358.18 214.209C1356.33 214.209 1354.7 213.857 1353.27 213.154C1351.87 212.434 1350.77 211.44 1349.98 210.175C1349.2 208.892 1348.82 207.424 1348.82 205.771V205.719C1348.82 204.049 1349.23 202.625 1350.06 201.447C1350.9 200.252 1352.11 199.312 1353.7 198.626C1355.28 197.923 1357.19 197.501 1359.44 197.36L1370.12 196.701V201.052L1360.37 201.658C1358.75 201.764 1357.51 202.15 1356.65 202.818C1355.79 203.486 1355.36 204.374 1355.36 205.481V205.508C1355.36 206.65 1355.79 207.556 1356.65 208.224C1357.53 208.874 1358.69 209.199 1360.13 209.199C1361.4 209.199 1362.52 208.944 1363.5 208.435C1364.51 207.925 1365.3 207.23 1365.88 206.352C1366.46 205.473 1366.75 204.479 1366.75 203.372V194.987C1366.75 193.581 1366.3 192.474 1365.4 191.665C1364.52 190.839 1363.25 190.426 1361.58 190.426C1360.03 190.426 1358.79 190.76 1357.86 191.428C1356.93 192.078 1356.35 192.922 1356.12 193.959L1356.07 194.196H1350L1350.03 193.88C1350.17 192.228 1350.73 190.751 1351.69 189.45C1352.66 188.132 1353.99 187.095 1355.7 186.339C1357.42 185.583 1359.46 185.205 1361.82 185.205C1364.16 185.205 1366.18 185.592 1367.88 186.365C1369.6 187.139 1370.93 188.22 1371.86 189.608C1372.81 190.997 1373.29 192.632 1373.29 194.513V213.734H1366.75V209.437H1366.59C1366.06 210.403 1365.38 211.247 1364.53 211.968C1363.69 212.688 1362.72 213.242 1361.63 213.629C1360.56 214.016 1359.41 214.209 1358.18 214.209Z" fill="black"/>
<path d="M1737.11 525.725V520.451H1748.11C1750.61 520.451 1752.5 519.95 1753.8 518.948C1755.12 517.946 1755.78 516.487 1755.78 514.571V514.519C1755.78 513.235 1755.47 512.163 1754.86 511.302C1754.26 510.423 1753.37 509.772 1752.17 509.351C1750.97 508.911 1749.49 508.691 1747.71 508.691H1737.11V503.761H1746.63C1749.09 503.761 1750.97 503.277 1752.25 502.311C1753.53 501.344 1754.17 499.955 1754.17 498.145V498.092C1754.17 496.457 1753.61 495.191 1752.49 494.295C1751.38 493.398 1749.81 492.95 1747.79 492.95H1737.11V487.677H1749.51C1751.83 487.677 1753.83 488.072 1755.52 488.863C1757.22 489.637 1758.54 490.735 1759.47 492.159C1760.42 493.583 1760.9 495.262 1760.9 497.195V497.248C1760.9 498.619 1760.58 499.902 1759.95 501.098C1759.33 502.275 1758.48 503.269 1757.39 504.077C1756.3 504.868 1755.08 505.36 1753.73 505.554V505.686C1755.5 505.844 1757.07 506.336 1758.42 507.162C1759.77 507.988 1760.83 509.069 1761.58 510.405C1762.34 511.724 1762.72 513.227 1762.72 514.914V514.967C1762.72 517.182 1762.19 519.098 1761.13 520.715C1760.08 522.314 1758.58 523.554 1756.63 524.433C1754.69 525.294 1752.37 525.725 1749.67 525.725H1737.11ZM1733.71 525.725V487.677H1740.52V525.725H1733.71ZM1776.83 526.278C1774.77 526.278 1773.02 525.865 1771.58 525.039C1770.16 524.195 1769.07 522.991 1768.31 521.427C1767.56 519.862 1767.18 518.008 1767.18 515.863V497.775H1773.72V514.545C1773.72 516.531 1774.18 518.069 1775.11 519.159C1776.05 520.231 1777.45 520.768 1779.33 520.768C1780.26 520.768 1781.11 520.609 1781.86 520.293C1782.64 519.959 1783.3 519.493 1783.84 518.896C1784.39 518.298 1784.8 517.586 1785.08 516.76C1785.36 515.916 1785.5 514.984 1785.5 513.965V497.775H1792.07V525.725H1785.5V521.348H1785.37C1784.88 522.332 1784.24 523.202 1783.45 523.958C1782.65 524.696 1781.71 525.268 1780.6 525.672C1779.49 526.076 1778.23 526.278 1776.83 526.278ZM1798.06 525.725V497.775H1804.62V525.725H1798.06ZM1801.33 493.768C1800.31 493.768 1799.45 493.416 1798.74 492.713C1798.04 492.01 1797.69 491.166 1797.69 490.182C1797.69 489.18 1798.04 488.336 1798.74 487.65C1799.45 486.947 1800.31 486.596 1801.33 486.596C1802.36 486.596 1803.23 486.947 1803.94 487.65C1804.64 488.336 1804.99 489.18 1804.99 490.182C1804.99 491.166 1804.64 492.01 1803.94 492.713C1803.23 493.416 1802.36 493.768 1801.33 493.768ZM1810.8 525.725V487.677H1817.36V525.725H1810.8ZM1833.74 526.278C1831.39 526.278 1829.34 525.698 1827.6 524.538C1825.88 523.36 1824.54 521.682 1823.59 519.502C1822.66 517.322 1822.19 514.738 1822.19 511.75V511.724C1822.19 508.718 1822.67 506.134 1823.62 503.972C1824.57 501.792 1825.9 500.122 1827.62 498.962C1829.35 497.784 1831.38 497.195 1833.72 497.195C1835.05 497.195 1836.27 497.415 1837.38 497.854C1838.51 498.276 1839.5 498.892 1840.36 499.7C1841.22 500.491 1841.92 501.449 1842.44 502.574H1842.6V487.677H1849.14V525.725H1842.6V520.979H1842.44C1841.93 522.086 1841.25 523.035 1840.39 523.826C1839.54 524.6 1838.56 525.206 1837.43 525.646C1836.33 526.067 1835.1 526.278 1833.74 526.278ZM1835.72 520.768C1837.07 520.768 1838.27 520.398 1839.31 519.66C1840.34 518.922 1841.15 517.876 1841.73 516.522C1842.31 515.169 1842.6 513.578 1842.6 511.75V511.724C1842.6 509.896 1842.3 508.313 1841.7 506.978C1841.12 505.624 1840.32 504.578 1839.28 503.84C1838.26 503.102 1837.07 502.732 1835.72 502.732C1834.31 502.732 1833.09 503.102 1832.05 503.84C1831.03 504.561 1830.24 505.589 1829.68 506.925C1829.14 508.261 1828.86 509.86 1828.86 511.724V511.75C1828.86 513.596 1829.14 515.195 1829.68 516.549C1830.24 517.902 1831.03 518.948 1832.05 519.687C1833.09 520.407 1834.31 520.768 1835.72 520.768Z" fill="black"/>
<path d="M1284.06 860.031V827.705H1272.67V821.983H1302.2V827.705H1290.83V860.031H1284.06ZM1312.35 860.585C1309.56 860.585 1307.15 859.996 1305.13 858.818C1303.12 857.641 1301.59 855.971 1300.51 853.809C1299.44 851.646 1298.91 849.089 1298.91 846.136V846.109C1298.91 843.174 1299.44 840.616 1300.51 838.437C1301.6 836.239 1303.12 834.534 1305.08 833.321C1307.04 832.108 1309.36 831.502 1312.04 831.502C1314.69 831.502 1316.98 832.091 1318.92 833.269C1320.87 834.429 1322.36 836.063 1323.4 838.173C1324.46 840.282 1324.98 842.743 1324.98 845.556V847.665H1302.15V843.288H1321.85L1318.68 847.375V844.844C1318.68 843.016 1318.4 841.495 1317.84 840.282C1317.27 839.069 1316.5 838.164 1315.52 837.566C1314.53 836.951 1313.4 836.644 1312.12 836.644C1310.82 836.644 1309.65 836.96 1308.64 837.593C1307.63 838.208 1306.84 839.131 1306.26 840.361C1305.7 841.592 1305.42 843.086 1305.42 844.844V847.375C1305.42 849.08 1305.7 850.539 1306.26 851.752C1306.84 852.947 1307.66 853.87 1308.71 854.521C1309.77 855.153 1311.03 855.47 1312.48 855.47C1313.57 855.47 1314.53 855.303 1315.36 854.969C1316.19 854.617 1316.86 854.169 1317.39 853.624C1317.93 853.079 1318.31 852.49 1318.52 851.857L1318.58 851.673H1324.69L1324.64 851.963C1324.41 853.035 1323.99 854.09 1323.37 855.127C1322.76 856.146 1321.93 857.069 1320.9 857.896C1319.86 858.722 1318.63 859.381 1317.2 859.873C1315.78 860.348 1314.16 860.585 1312.35 860.585ZM1340.49 860.585C1338.05 860.585 1335.96 860.225 1334.22 859.504C1332.49 858.783 1331.14 857.772 1330.16 856.472C1329.19 855.153 1328.6 853.633 1328.39 851.91L1328.36 851.673H1334.82L1334.88 851.91C1335.12 853.123 1335.7 854.063 1336.62 854.731C1337.55 855.399 1338.85 855.733 1340.52 855.733C1341.59 855.733 1342.5 855.602 1343.26 855.338C1344.02 855.074 1344.6 854.688 1345 854.178C1345.42 853.668 1345.63 853.07 1345.63 852.385V852.358C1345.63 851.532 1345.35 850.864 1344.79 850.354C1344.23 849.827 1343.22 849.396 1341.76 849.062L1337.12 848.034C1335.34 847.63 1333.86 847.076 1332.66 846.373C1331.47 845.67 1330.57 844.8 1329.97 843.763C1329.37 842.708 1329.07 841.486 1329.07 840.098V840.071C1329.07 838.366 1329.54 836.872 1330.47 835.589C1331.4 834.306 1332.71 833.304 1334.4 832.583C1336.09 831.862 1338.05 831.502 1340.28 831.502C1342.6 831.502 1344.59 831.889 1346.24 832.662C1347.89 833.436 1349.17 834.473 1350.06 835.773C1350.98 837.074 1351.47 838.533 1351.54 840.15L1351.57 840.44H1345.45L1345.42 840.229C1345.28 839.104 1344.77 838.182 1343.89 837.461C1343.01 836.723 1341.81 836.354 1340.28 836.354C1339.31 836.354 1338.47 836.494 1337.75 836.775C1337.05 837.057 1336.5 837.452 1336.11 837.962C1335.75 838.472 1335.56 839.069 1335.56 839.755V839.781C1335.56 840.309 1335.69 840.783 1335.96 841.205C1336.22 841.627 1336.64 841.996 1337.22 842.312C1337.8 842.611 1338.58 842.875 1339.54 843.104L1344.18 844.132C1347.08 844.782 1349.15 845.714 1350.38 846.927C1351.61 848.122 1352.22 849.73 1352.22 851.752V851.778C1352.22 853.536 1351.72 855.083 1350.72 856.419C1349.72 857.737 1348.33 858.766 1346.56 859.504C1344.8 860.225 1342.78 860.585 1340.49 860.585ZM1367.18 860.585C1364.28 860.585 1362.12 859.952 1360.69 858.687C1359.29 857.421 1358.58 855.347 1358.58 852.464V837.145H1354.63V832.082H1358.58V824.989H1365.25V832.082H1370.45V837.145H1365.25V851.937C1365.25 853.29 1365.55 854.23 1366.15 854.758C1366.77 855.268 1367.66 855.522 1368.84 855.522C1369.17 855.522 1369.46 855.514 1369.71 855.496C1369.97 855.461 1370.22 855.435 1370.45 855.417V860.348C1370.06 860.4 1369.59 860.453 1369.03 860.506C1368.48 860.559 1367.87 860.585 1367.18 860.585Z" fill="black"/>
<path d="M808.845 525.727V487.679H822.74C826.537 487.679 829.78 488.417 832.47 489.894C835.159 491.37 837.225 493.515 838.666 496.327C840.107 499.14 840.828 502.55 840.828 506.558V506.61C840.828 510.618 840.107 514.055 838.666 516.92C837.242 519.768 835.177 521.947 832.47 523.459C829.78 524.971 826.537 525.727 822.74 525.727H808.845ZM815.647 520.005H822.028C824.595 520.005 826.757 519.495 828.515 518.476C830.272 517.438 831.608 515.936 832.522 513.967C833.437 511.98 833.894 509.537 833.894 506.637V506.584C833.894 503.754 833.428 501.354 832.496 499.386C831.582 497.417 830.237 495.932 828.462 494.93C826.704 493.91 824.56 493.4 822.028 493.4H815.647V520.005ZM858.261 526.28C855.466 526.28 853.058 525.691 851.037 524.514C849.033 523.336 847.495 521.666 846.422 519.504C845.35 517.342 844.814 514.784 844.814 511.831V511.805C844.814 508.869 845.35 506.312 846.422 504.132C847.512 501.935 849.033 500.229 850.984 499.017C852.953 497.804 855.273 497.197 857.945 497.197C860.599 497.197 862.893 497.786 864.827 498.964C866.778 500.124 868.272 501.759 869.309 503.868C870.364 505.978 870.891 508.438 870.891 511.251V513.36H848.057V508.983H867.754L864.589 513.07V510.539C864.589 508.711 864.308 507.19 863.746 505.978C863.183 504.765 862.41 503.859 861.425 503.262C860.441 502.646 859.307 502.339 858.024 502.339C856.723 502.339 855.563 502.655 854.544 503.288C853.542 503.903 852.751 504.826 852.171 506.057C851.608 507.287 851.327 508.781 851.327 510.539V513.07C851.327 514.775 851.608 516.234 852.171 517.447C852.751 518.643 853.568 519.565 854.623 520.216C855.677 520.849 856.934 521.165 858.393 521.165C859.483 521.165 860.441 520.998 861.267 520.664C862.093 520.312 862.77 519.864 863.297 519.319C863.842 518.774 864.22 518.186 864.431 517.553L864.484 517.368H870.601L870.548 517.658C870.32 518.73 869.898 519.785 869.283 520.822C868.668 521.842 867.841 522.765 866.804 523.591C865.767 524.417 864.537 525.076 863.113 525.568C861.689 526.043 860.072 526.28 858.261 526.28ZM891.067 526.28C889.731 526.28 888.5 526.069 887.375 525.647C886.268 525.208 885.292 524.602 884.448 523.828C883.605 523.037 882.91 522.088 882.365 520.98H882.234V525.727H875.668V487.679H882.234V502.576H882.365C882.91 501.451 883.613 500.493 884.475 499.702C885.336 498.894 886.329 498.278 887.454 497.856C888.579 497.417 889.801 497.197 891.119 497.197C893.457 497.197 895.488 497.786 897.21 498.964C898.933 500.124 900.269 501.794 901.218 503.974C902.167 506.136 902.642 508.72 902.642 511.726V511.752C902.642 514.74 902.167 517.324 901.218 519.504C900.286 521.684 898.95 523.362 897.21 524.54C895.488 525.7 893.44 526.28 891.067 526.28ZM889.115 520.77C890.522 520.77 891.735 520.409 892.754 519.688C893.791 518.95 894.582 517.904 895.127 516.551C895.672 515.197 895.945 513.598 895.945 511.752V511.726C895.945 509.862 895.663 508.263 895.101 506.927C894.556 505.591 893.774 504.562 892.754 503.842C891.735 503.104 890.522 502.734 889.115 502.734C887.762 502.734 886.567 503.104 885.529 503.842C884.51 504.58 883.701 505.626 883.104 506.979C882.506 508.315 882.207 509.897 882.207 511.726V511.752C882.207 513.58 882.497 515.171 883.077 516.524C883.675 517.878 884.492 518.924 885.529 519.662C886.567 520.4 887.762 520.77 889.115 520.77ZM916.779 526.28C914.722 526.28 912.973 525.867 911.532 525.041C910.108 524.197 909.018 522.993 908.262 521.429C907.507 519.864 907.129 518.01 907.129 515.865V497.777H913.668V514.547C913.668 516.533 914.134 518.071 915.065 519.161C915.997 520.233 917.403 520.77 919.284 520.77C920.216 520.77 921.059 520.611 921.815 520.295C922.589 519.961 923.248 519.495 923.793 518.897C924.338 518.3 924.751 517.588 925.032 516.762C925.313 515.918 925.454 514.986 925.454 513.967V497.777H932.019V525.727H925.454V521.35H925.322C924.83 522.334 924.188 523.204 923.397 523.96C922.606 524.698 921.657 525.27 920.55 525.674C919.442 526.078 918.185 526.28 916.779 526.28ZM950.428 535.509C947.967 535.509 945.814 535.166 943.968 534.48C942.14 533.812 940.681 532.89 939.591 531.712C938.501 530.534 937.825 529.216 937.561 527.757L937.508 527.52H943.942L944.047 527.73C944.399 528.539 945.12 529.207 946.209 529.734C947.317 530.279 948.714 530.552 950.402 530.552C952.546 530.552 954.19 530.024 955.332 528.97C956.475 527.915 957.046 526.5 957.046 524.725V520.69H956.914C956.405 521.692 955.719 522.554 954.858 523.274C954.014 523.995 953.021 524.558 951.878 524.962C950.753 525.366 949.523 525.568 948.187 525.568C945.849 525.568 943.81 524.997 942.07 523.854C940.347 522.712 939.011 521.095 938.062 519.003C937.13 516.894 936.664 514.389 936.664 511.488V511.462C936.664 508.509 937.139 505.978 938.088 503.868C939.055 501.741 940.409 500.098 942.149 498.938C943.889 497.777 945.937 497.197 948.292 497.197C949.611 497.197 950.824 497.426 951.931 497.883C953.038 498.322 954.005 498.938 954.831 499.729C955.675 500.52 956.361 501.451 956.888 502.523H957.046V497.777H963.612V524.936C963.612 527.045 963.076 528.891 962.003 530.473C960.931 532.072 959.411 533.312 957.442 534.19C955.473 535.069 953.135 535.509 950.428 535.509ZM950.244 520.506C951.615 520.506 952.81 520.146 953.829 519.425C954.849 518.687 955.64 517.649 956.203 516.313C956.783 514.978 957.073 513.413 957.073 511.62V511.594C957.073 509.783 956.783 508.219 956.203 506.9C955.622 505.564 954.823 504.536 953.803 503.815C952.784 503.095 951.597 502.734 950.244 502.734C948.837 502.734 947.616 503.095 946.579 503.815C945.541 504.536 944.742 505.556 944.179 506.874C943.617 508.192 943.335 509.766 943.335 511.594V511.62C943.335 513.448 943.617 515.03 944.179 516.366C944.742 517.685 945.541 518.704 946.579 519.425C947.616 520.146 948.837 520.506 950.244 520.506Z" fill="black"/>
<path d="M1521.88 178.562H1515.78C1514.86 178.562 1514.06 178.229 1513.38 177.562C1512.71 176.875 1512.38 176.062 1512.38 175.125C1512.38 174.208 1512.71 173.406 1513.38 172.719C1514.06 172.031 1514.86 171.688 1515.78 171.688H1521.88C1522.79 171.688 1523.6 172.031 1524.31 172.719C1525.02 173.385 1525.38 174.188 1525.38 175.125C1525.38 176.062 1525.02 176.875 1524.31 177.562C1523.6 178.229 1522.79 178.562 1521.88 178.562ZM1528 156.531L1523.69 152.188C1523.02 151.521 1522.69 150.719 1522.69 149.781C1522.69 148.844 1523.02 148.031 1523.69 147.344C1524.38 146.677 1525.2 146.344 1526.16 146.344C1527.11 146.344 1527.92 146.677 1528.56 147.344L1532.88 151.688C1533.54 152.354 1533.88 153.156 1533.88 154.094C1533.9 155.031 1533.56 155.844 1532.88 156.531C1532.19 157.198 1531.36 157.531 1530.41 157.531C1529.47 157.51 1528.67 157.177 1528 156.531ZM1548.06 145.531V139.438C1548.06 138.521 1548.4 137.719 1549.06 137.031C1549.75 136.344 1550.56 136 1551.5 136C1552.44 136 1553.25 136.344 1553.94 137.031C1554.62 137.719 1554.97 138.521 1554.97 139.438V145.531C1554.97 146.469 1554.62 147.281 1553.94 147.969C1553.27 148.635 1552.46 148.969 1551.5 148.969C1550.56 148.969 1549.75 148.635 1549.06 147.969C1548.4 147.281 1548.06 146.469 1548.06 145.531ZM1570.12 151.688L1574.44 147.344C1575.1 146.677 1575.91 146.344 1576.84 146.344C1577.8 146.344 1578.61 146.677 1579.28 147.344C1579.95 148.031 1580.28 148.844 1580.28 149.781C1580.28 150.719 1579.95 151.521 1579.28 152.188L1574.97 156.531C1574.3 157.177 1573.49 157.51 1572.53 157.531C1571.59 157.531 1570.79 157.198 1570.12 156.531C1569.46 155.844 1569.12 155.031 1569.12 154.094C1569.12 153.156 1569.46 152.354 1570.12 151.688ZM1587.16 178.562H1581.09C1580.16 178.562 1579.34 178.229 1578.66 177.562C1577.97 176.875 1577.62 176.062 1577.62 175.125C1577.62 174.188 1577.97 173.385 1578.66 172.719C1579.34 172.031 1580.16 171.688 1581.09 171.688H1587.16C1588.09 171.688 1588.91 172.031 1589.59 172.719C1590.28 173.406 1590.62 174.208 1590.62 175.125C1590.62 176.062 1590.28 176.875 1589.59 177.562C1588.91 178.229 1588.09 178.562 1587.16 178.562ZM1551.5 154.156C1554.29 154.156 1556.91 154.635 1559.34 155.594C1561.8 156.531 1563.95 157.844 1565.78 159.531C1567.64 161.219 1569.08 163.198 1570.12 165.469C1571.17 167.74 1571.69 170.208 1571.69 172.875C1571.69 175.062 1571.46 177.031 1571 178.781C1570.56 180.531 1570 182.25 1569.31 183.938C1568.62 185.604 1567.9 187.427 1567.12 189.406C1566.35 191.365 1565.65 193.667 1565 196.312C1564.35 198.958 1563.85 202.135 1563.5 205.844C1563.44 206.677 1563.16 207.344 1562.66 207.844C1562.16 208.323 1561.48 208.562 1560.62 208.562H1542.38C1541.52 208.562 1540.84 208.323 1540.34 207.844C1539.84 207.344 1539.55 206.677 1539.47 205.844C1539.14 202.135 1538.65 198.958 1538 196.312C1537.35 193.667 1536.65 191.365 1535.88 189.406C1535.1 187.427 1534.38 185.594 1533.69 183.906C1533 182.219 1532.43 180.51 1531.97 178.781C1531.53 177.031 1531.31 175.052 1531.31 172.844C1531.31 170.177 1531.83 167.719 1532.88 165.469C1533.92 163.198 1535.35 161.219 1537.19 159.531C1539.04 157.844 1541.19 156.531 1543.62 155.594C1546.06 154.635 1548.69 154.156 1551.5 154.156ZM1551.5 160.094C1549.56 160.094 1547.73 160.406 1546 161.031C1544.29 161.656 1542.78 162.531 1541.47 163.656C1540.16 164.781 1539.12 166.125 1538.38 167.688C1537.65 169.25 1537.28 170.969 1537.28 172.844C1537.28 174.365 1537.46 175.74 1537.81 176.969C1538.17 178.177 1538.64 179.458 1539.22 180.812C1539.82 182.167 1540.47 183.771 1541.16 185.625C1541.84 187.458 1542.51 189.75 1543.16 192.5C1543.82 195.229 1544.41 198.615 1544.91 202.656H1558.09C1558.59 198.615 1559.17 195.229 1559.81 192.5C1560.48 189.75 1561.16 187.458 1561.84 185.625C1562.55 183.771 1563.2 182.167 1563.78 180.812C1564.39 179.458 1564.86 178.177 1565.22 176.969C1565.59 175.74 1565.78 174.365 1565.78 172.844C1565.78 170.969 1565.41 169.26 1564.66 167.719C1563.91 166.156 1562.86 164.812 1561.53 163.688C1560.22 162.542 1558.7 161.656 1556.97 161.031C1555.24 160.406 1553.42 160.094 1551.5 160.094ZM1542.09 215.688C1541.49 215.688 1540.98 215.479 1540.56 215.062C1540.17 214.646 1539.97 214.156 1539.97 213.594C1539.97 213.01 1540.17 212.521 1540.56 212.125C1540.98 211.708 1541.49 211.5 1542.09 211.5H1560.94C1561.54 211.5 1562.04 211.708 1562.44 212.125C1562.85 212.521 1563.06 213.01 1563.06 213.594C1563.06 214.156 1562.85 214.646 1562.44 215.062C1562.04 215.479 1561.54 215.688 1560.94 215.688H1542.09ZM1551.5 224.531C1549.1 224.531 1547.05 223.99 1545.34 222.906C1543.66 221.823 1542.76 220.396 1542.66 218.625H1560.31C1560.21 220.396 1559.3 221.823 1557.59 222.906C1555.91 223.99 1553.88 224.531 1551.5 224.531Z" fill="#FFCC00"/>
<path d="M1570.75 811.312C1569.42 811.312 1568.21 810.99 1567.12 810.344C1566.06 809.698 1565.21 808.833 1564.56 807.75C1563.92 806.667 1563.59 805.469 1563.59 804.156C1563.59 802.823 1563.92 801.625 1564.56 800.562C1565.21 799.479 1566.06 798.615 1567.12 797.969C1568.21 797.323 1569.42 797 1570.75 797C1572.06 797 1573.26 797.323 1574.34 797.969C1575.43 798.615 1576.29 799.479 1576.94 800.562C1577.58 801.625 1577.91 802.823 1577.91 804.156C1577.91 805.469 1577.58 806.667 1576.94 807.75C1576.29 808.833 1575.43 809.698 1574.34 810.344C1573.26 810.99 1572.06 811.312 1570.75 811.312ZM1559.66 839.156C1558.97 838.781 1558.26 838.375 1557.53 837.938C1556.8 837.5 1556.16 836.969 1555.59 836.344C1555.05 835.719 1554.69 834.948 1554.5 834.031C1554.33 833.094 1554.45 831.927 1554.84 830.531L1557.44 821.406C1557.58 820.865 1557.49 820.448 1557.16 820.156C1556.84 819.865 1556.46 819.74 1556 819.781L1551.66 820.094L1550.31 829.219C1550.17 830.26 1549.8 831.052 1549.22 831.594C1548.64 832.115 1547.88 832.323 1546.94 832.219C1546 832.135 1545.28 831.75 1544.78 831.062C1544.3 830.375 1544.14 829.51 1544.28 828.469L1545.78 817.094C1545.91 816.135 1546.27 815.365 1546.88 814.781C1547.5 814.198 1548.28 813.875 1549.22 813.812L1560.44 813.031C1563.38 812.802 1565.81 813.104 1567.75 813.938C1569.71 814.771 1571.43 816.208 1572.91 818.25L1578.31 825.75L1586.19 822.25C1587.15 821.833 1588 821.75 1588.75 822C1589.52 822.229 1590.12 822.771 1590.56 823.625C1590.96 824.479 1590.99 825.292 1590.66 826.062C1590.34 826.833 1589.72 827.438 1588.78 827.875L1578.66 832.375C1577.95 832.708 1577.22 832.771 1576.47 832.562C1575.74 832.354 1575.17 831.927 1574.75 831.281L1571.22 826.156C1570.91 825.698 1570.52 825.5 1570.06 825.562C1569.6 825.604 1569.3 825.885 1569.16 826.406L1566.81 834.531L1578.69 842.312C1579.31 842.708 1579.76 843.26 1580.03 843.969C1580.3 844.656 1580.38 845.354 1580.25 846.062C1580.12 846.771 1579.79 847.354 1579.25 847.812L1568.25 857.188C1567.35 857.938 1566.45 858.292 1565.53 858.25C1564.61 858.208 1563.86 857.865 1563.28 857.219C1562.72 856.573 1562.47 855.802 1562.53 854.906C1562.61 854.01 1563.08 853.198 1563.94 852.469L1571.62 845.875L1559.66 839.156ZM1538.25 866.688C1537.54 866.062 1537.16 865.26 1537.09 864.281C1537.05 863.323 1537.46 862.417 1538.31 861.562L1549 850.938L1552.69 837.906C1553.27 838.635 1554 839.344 1554.88 840.031C1555.75 840.698 1556.8 841.365 1558.03 842.031L1559.28 842.719L1555.09 853.531C1554.82 854.198 1554.59 854.667 1554.41 854.938C1554.24 855.208 1553.93 855.573 1553.47 856.031L1543.16 866.25C1542.32 867.042 1541.46 867.448 1540.56 867.469C1539.69 867.51 1538.92 867.25 1538.25 866.688Z" fill="#FFCC00"/>
<path d="M1092.47 544.625C1088.22 544.625 1084.35 543.927 1080.88 542.531C1077.42 541.156 1074.43 539.188 1071.91 536.625C1069.41 534.062 1067.48 531 1066.12 527.438C1064.77 523.854 1064.09 519.875 1064.09 515.5C1064.09 512.292 1064.53 509.125 1065.41 506C1066.3 502.875 1067.57 499.958 1069.22 497.25C1070.86 494.521 1072.81 492.146 1075.06 490.125C1075.12 487.125 1075.88 484.552 1077.31 482.406C1078.77 480.24 1080.79 478.583 1083.38 477.438C1085.98 476.292 1089.01 475.719 1092.47 475.719C1095.95 475.719 1098.98 476.292 1101.56 477.438C1104.17 478.583 1106.19 480.229 1107.62 482.375C1109.08 484.521 1109.84 487.094 1109.91 490.094C1112.16 492.115 1114.1 494.5 1115.75 497.25C1117.4 499.979 1118.66 502.906 1119.53 506.031C1120.43 509.156 1120.88 512.312 1120.88 515.5C1120.88 519.875 1120.19 523.854 1118.81 527.438C1117.46 531 1115.53 534.062 1113.03 536.625C1110.53 539.188 1107.54 541.156 1104.06 542.531C1100.58 543.927 1096.72 544.625 1092.47 544.625ZM1092.47 498.406C1089.76 498.406 1087.1 498.177 1084.5 497.719C1081.9 497.26 1079.64 496.667 1077.72 495.938C1076.36 497.417 1075.1 499.156 1073.94 501.156C1072.77 503.135 1071.82 505.333 1071.09 507.75C1070.39 510.167 1070.03 512.75 1070.03 515.5C1070.03 520.146 1070.97 524.208 1072.84 527.688C1074.72 531.146 1077.33 533.844 1080.69 535.781C1084.06 537.719 1087.99 538.688 1092.47 538.688C1096.97 538.688 1100.9 537.719 1104.25 535.781C1107.62 533.844 1110.24 531.146 1112.09 527.688C1113.97 524.208 1114.91 520.146 1114.91 515.5C1114.91 512.75 1114.54 510.167 1113.81 507.75C1113.1 505.312 1112.17 503.104 1111 501.125C1109.83 499.125 1108.58 497.396 1107.25 495.938C1105.31 496.667 1103.04 497.26 1100.44 497.719C1097.85 498.177 1095.2 498.406 1092.47 498.406ZM1090 540.219V504.5C1090 503.833 1090.23 503.271 1090.69 502.812C1091.17 502.354 1091.73 502.125 1092.38 502.125C1093.04 502.125 1093.6 502.354 1094.06 502.812C1094.54 503.271 1094.78 503.833 1094.78 504.5V540.219H1090ZM1082.41 509.156C1081.24 509.156 1080.25 508.74 1079.44 507.906C1078.62 507.073 1078.22 506.083 1078.22 504.938C1078.22 503.792 1078.62 502.802 1079.44 501.969C1080.25 501.135 1081.24 500.719 1082.41 500.719C1083.55 500.719 1084.53 501.135 1085.34 501.969C1086.18 502.802 1086.59 503.792 1086.59 504.938C1086.59 506.083 1086.18 507.073 1085.34 507.906C1084.53 508.74 1083.55 509.156 1082.41 509.156ZM1078.62 521.656C1077.27 521.656 1076.11 521.188 1075.16 520.25C1074.22 519.292 1073.75 518.146 1073.75 516.812C1073.75 515.479 1074.22 514.344 1075.16 513.406C1076.11 512.448 1077.27 511.969 1078.62 511.969C1079.94 511.969 1081.06 512.448 1082 513.406C1082.96 514.344 1083.44 515.479 1083.44 516.812C1083.44 518.146 1082.96 519.292 1082 520.25C1081.06 521.188 1079.94 521.656 1078.62 521.656ZM1082.41 532.438C1081.34 532.438 1080.44 532.062 1079.69 531.312C1078.94 530.583 1078.56 529.688 1078.56 528.625C1078.56 527.562 1078.94 526.656 1079.69 525.906C1080.44 525.156 1081.34 524.781 1082.41 524.781C1083.45 524.781 1084.34 525.156 1085.09 525.906C1085.86 526.656 1086.25 527.562 1086.25 528.625C1086.25 529.688 1085.86 530.583 1085.09 531.312C1084.34 532.062 1083.45 532.438 1082.41 532.438ZM1102.59 509.156C1101.43 509.156 1100.43 508.74 1099.59 507.906C1098.78 507.073 1098.38 506.083 1098.38 504.938C1098.38 503.792 1098.78 502.802 1099.59 501.969C1100.41 501.135 1101.41 500.719 1102.59 500.719C1103.74 500.719 1104.72 501.135 1105.53 501.969C1106.34 502.802 1106.75 503.792 1106.75 504.938C1106.75 506.083 1106.34 507.073 1105.53 507.906C1104.72 508.74 1103.74 509.156 1102.59 509.156ZM1106.34 521.656C1105.03 521.656 1103.9 521.188 1102.94 520.25C1101.98 519.292 1101.5 518.146 1101.5 516.812C1101.5 515.479 1101.98 514.344 1102.94 513.406C1103.9 512.448 1105.03 511.969 1106.34 511.969C1107.7 511.969 1108.84 512.448 1109.78 513.406C1110.74 514.344 1111.22 515.479 1111.22 516.812C1111.22 518.146 1110.74 519.292 1109.78 520.25C1108.84 521.188 1107.7 521.656 1106.34 521.656ZM1102.59 532.438C1101.51 532.438 1100.59 532.062 1099.84 531.312C1099.09 530.583 1098.72 529.688 1098.72 528.625C1098.72 527.562 1099.09 526.656 1099.84 525.906C1100.59 525.156 1101.51 524.781 1102.59 524.781C1103.64 524.781 1104.53 525.156 1105.28 525.906C1106.03 526.656 1106.41 527.562 1106.41 528.625C1106.41 529.688 1106.03 530.583 1105.28 531.312C1104.53 532.062 1103.64 532.438 1102.59 532.438ZM1078.5 474.531C1077.58 474.26 1076.98 473.781 1076.69 473.094C1076.42 472.406 1076.4 471.698 1076.62 470.969C1076.88 470.24 1077.32 469.677 1077.97 469.281C1078.64 468.885 1079.44 468.844 1080.38 469.156L1082.75 470.094C1084.44 470.698 1085.68 471.604 1086.47 472.812C1087.26 474 1087.56 475.438 1087.38 477.125L1087.12 479L1081.44 479.031L1081.91 477.062C1082.01 476.625 1081.96 476.26 1081.75 475.969C1081.54 475.656 1081.12 475.396 1080.5 475.188L1078.5 474.531ZM1106.44 474.531L1104.47 475.188C1103.84 475.396 1103.43 475.656 1103.22 475.969C1103.01 476.26 1102.96 476.625 1103.06 477.062L1103.53 479.031L1097.84 479L1097.59 477.125C1097.41 475.438 1097.71 474 1098.5 472.812C1099.29 471.604 1100.53 470.698 1102.22 470.094L1104.59 469.156C1105.53 468.844 1106.32 468.885 1106.97 469.281C1107.64 469.677 1108.08 470.24 1108.31 470.969C1108.56 471.698 1108.54 472.406 1108.25 473.094C1107.98 473.781 1107.38 474.26 1106.44 474.531ZM1073.53 496.312L1069.91 500.75L1062.81 495C1062.1 494.438 1061.68 493.74 1061.53 492.906C1061.39 492.073 1061.6 491.333 1062.19 490.688C1062.73 490 1063.41 489.667 1064.22 489.688C1065.03 489.708 1065.8 490.01 1066.53 490.594L1073.53 496.312ZM1067.25 510.75V516.562L1059.09 516.594C1058.16 516.594 1057.4 516.333 1056.81 515.812C1056.25 515.271 1055.97 514.562 1055.97 513.688C1055.97 512.833 1056.25 512.146 1056.81 511.625C1057.4 511.083 1058.15 510.812 1059.06 510.812L1067.25 510.75ZM1069.41 529.625L1073.09 534.125L1066.97 539.312C1066.26 539.896 1065.49 540.188 1064.66 540.188C1063.84 540.208 1063.16 539.875 1062.59 539.188C1062.03 538.521 1061.82 537.771 1061.97 536.938C1062.11 536.125 1062.53 535.427 1063.22 534.844L1069.41 529.625ZM1111.41 496.312L1118.44 490.594C1119.17 490.01 1119.94 489.708 1120.75 489.688C1121.56 489.667 1122.24 490 1122.78 490.688C1123.34 491.333 1123.55 492.073 1123.41 492.906C1123.28 493.74 1122.86 494.438 1122.16 495L1115.06 500.75L1111.41 496.312ZM1117.72 510.75L1125.91 510.812C1126.82 510.812 1127.56 511.083 1128.12 511.625C1128.71 512.146 1129 512.833 1129 513.688C1129 514.562 1128.71 515.271 1128.12 515.812C1127.56 516.333 1126.81 516.594 1125.88 516.594L1117.72 516.562V510.75ZM1115.53 529.625L1121.72 534.844C1122.43 535.427 1122.85 536.125 1123 536.938C1123.15 537.771 1122.94 538.521 1122.38 539.188C1121.81 539.875 1121.11 540.208 1120.28 540.188C1119.47 540.188 1118.71 539.896 1118 539.312L1111.88 534.094L1115.53 529.625Z" fill="#FFCC00"/>
<path d="M1974.19 503.438C1974.19 503 1974.28 502.583 1974.47 502.188C1974.66 501.771 1974.93 501.396 1975.28 501.062L1996.16 482.25C1996.82 481.646 1997.54 481.354 1998.31 481.375C1999.1 481.375 1999.77 481.677 2000.31 482.281C2000.85 482.885 2001.08 483.583 2001 484.375C2000.94 485.167 2000.59 485.844 1999.97 486.406L1981.19 503.438L1999.97 520.469C2000.59 521.031 2000.94 521.708 2001 522.5C2001.08 523.271 2000.85 523.969 2000.31 524.594C1999.77 525.198 1999.1 525.51 1998.31 525.531C1997.54 525.531 1996.82 525.229 1996.16 524.625L1975.28 505.781C1974.93 505.469 1974.66 505.115 1974.47 504.719C1974.28 504.302 1974.19 503.875 1974.19 503.438ZM2009.44 532.938C2008.56 532.708 2007.98 532.24 2007.69 531.531C2007.42 530.844 2007.41 530.073 2007.66 529.219L2023.12 476.156C2023.4 475.198 2023.85 474.552 2024.5 474.219C2025.17 473.865 2025.91 473.802 2026.72 474.031C2027.55 474.24 2028.14 474.677 2028.47 475.344C2028.82 476.01 2028.89 476.719 2028.66 477.469L2013.09 530.812C2012.84 531.646 2012.38 532.26 2011.69 532.656C2011.02 533.073 2010.27 533.167 2009.44 532.938ZM2061.78 503.438C2061.78 503.875 2061.69 504.302 2061.5 504.719C2061.33 505.115 2061.07 505.469 2060.72 505.781L2039.84 524.625C2039.18 525.229 2038.45 525.531 2037.66 525.531C2036.89 525.51 2036.23 525.198 2035.69 524.594C2035.12 523.969 2034.88 523.271 2034.94 522.5C2035.02 521.708 2035.38 521.031 2036 520.469L2054.81 503.438L2036 486.406C2035.38 485.844 2035.02 485.167 2034.94 484.375C2034.88 483.583 2035.12 482.885 2035.69 482.281C2036.23 481.677 2036.89 481.375 2037.66 481.375C2038.45 481.354 2039.18 481.646 2039.84 482.25L2060.72 501.062C2061.07 501.396 2061.33 501.771 2061.5 502.188C2061.69 502.583 2061.78 503 2061.78 503.438Z" fill="#FFCC00"/>
<path opacity="0.6" d="M1276.45 287.211V262.836H1280.53V266.961H1280.62C1281.03 265.555 1281.73 264.438 1282.73 263.609C1283.73 262.781 1284.92 262.367 1286.3 262.367C1286.66 262.367 1286.98 262.391 1287.26 262.438C1287.55 262.469 1287.78 262.5 1287.94 262.531V266.492C1287.78 266.43 1287.5 266.375 1287.09 266.328C1286.7 266.281 1286.26 266.258 1285.76 266.258C1284.71 266.258 1283.79 266.492 1282.99 266.961C1282.21 267.43 1281.6 268.109 1281.16 269C1280.74 269.875 1280.53 270.93 1280.53 272.164V287.211H1276.45ZM1300.52 287.68C1298.2 287.68 1296.19 287.164 1294.5 286.133C1292.83 285.102 1291.54 283.648 1290.63 281.773C1289.74 279.883 1289.3 277.664 1289.3 275.117V275.094C1289.3 272.578 1289.75 270.367 1290.66 268.461C1291.56 266.539 1292.84 265.047 1294.48 263.984C1296.12 262.906 1298.05 262.367 1300.27 262.367C1302.49 262.367 1304.39 262.883 1305.99 263.914C1307.6 264.93 1308.83 266.359 1309.69 268.203C1310.55 270.047 1310.98 272.188 1310.98 274.625V276.125H1291.34V272.938H1308.96L1306.9 275.891V274.32C1306.9 272.43 1306.61 270.867 1306.03 269.633C1305.47 268.398 1304.69 267.484 1303.69 266.891C1302.69 266.281 1301.54 265.977 1300.24 265.977C1298.95 265.977 1297.78 266.297 1296.75 266.938C1295.72 267.562 1294.91 268.5 1294.31 269.75C1293.72 270.984 1293.42 272.508 1293.42 274.32V275.891C1293.42 277.609 1293.71 279.078 1294.29 280.297C1294.88 281.516 1295.72 282.453 1296.8 283.109C1297.88 283.75 1299.15 284.07 1300.62 284.07C1301.65 284.07 1302.57 283.914 1303.38 283.602C1304.2 283.289 1304.88 282.859 1305.42 282.312C1305.97 281.766 1306.36 281.141 1306.6 280.438L1306.67 280.227H1310.67L1310.63 280.461C1310.42 281.461 1310.03 282.398 1309.45 283.273C1308.89 284.148 1308.17 284.922 1307.27 285.594C1306.38 286.25 1305.37 286.766 1304.23 287.141C1303.09 287.5 1301.85 287.68 1300.52 287.68ZM1315.64 275.398V271.602H1330.64V275.398H1315.64ZM1336.48 295.414V262.836H1340.56V266.961H1340.65C1341.17 266.008 1341.8 265.195 1342.55 264.523C1343.32 263.836 1344.19 263.305 1345.18 262.93C1346.16 262.555 1347.23 262.367 1348.39 262.367C1350.47 262.367 1352.28 262.891 1353.83 263.938C1355.39 264.969 1356.6 266.438 1357.46 268.344C1358.32 270.234 1358.75 272.461 1358.75 275.023V275.047C1358.75 277.609 1358.31 279.836 1357.43 281.727C1356.58 283.617 1355.37 285.086 1353.83 286.133C1352.29 287.164 1350.5 287.68 1348.46 287.68C1347.32 287.68 1346.25 287.5 1345.25 287.141C1344.25 286.766 1343.36 286.242 1342.58 285.57C1341.81 284.883 1341.17 284.07 1340.65 283.133H1340.56V295.414H1336.48ZM1347.59 284.07C1349.03 284.07 1350.27 283.703 1351.32 282.969C1352.36 282.234 1353.17 281.195 1353.73 279.852C1354.29 278.492 1354.58 276.891 1354.58 275.047V275.023C1354.58 273.148 1354.29 271.539 1353.73 270.195C1353.17 268.836 1352.36 267.797 1351.32 267.078C1350.27 266.344 1349.03 265.977 1347.59 265.977C1346.22 265.977 1345 266.352 1343.93 267.102C1342.87 267.852 1342.04 268.906 1341.43 270.266C1340.83 271.609 1340.54 273.195 1340.54 275.023V275.047C1340.54 276.859 1340.84 278.445 1341.45 279.805C1342.06 281.148 1342.89 282.195 1343.93 282.945C1345 283.695 1346.22 284.07 1347.59 284.07ZM1363.27 287.211V262.836H1367.35V266.961H1367.44C1367.85 265.555 1368.55 264.438 1369.55 263.609C1370.55 262.781 1371.74 262.367 1373.12 262.367C1373.47 262.367 1373.8 262.391 1374.08 262.438C1374.37 262.469 1374.6 262.5 1374.76 262.531V266.492C1374.6 266.43 1374.32 266.375 1373.91 266.328C1373.52 266.281 1373.08 266.258 1372.58 266.258C1371.53 266.258 1370.61 266.492 1369.81 266.961C1369.03 267.43 1368.42 268.109 1367.98 269C1367.56 269.875 1367.35 270.93 1367.35 272.164V287.211H1363.27ZM1378.74 287.211V262.836H1382.82V287.211H1378.74ZM1380.78 258.711C1380.08 258.711 1379.48 258.461 1378.98 257.961C1378.48 257.461 1378.23 256.859 1378.23 256.156C1378.23 255.438 1378.48 254.836 1378.98 254.352C1379.48 253.852 1380.08 253.602 1380.78 253.602C1381.5 253.602 1382.1 253.852 1382.59 254.352C1383.09 254.836 1383.34 255.438 1383.34 256.156C1383.34 256.859 1383.09 257.461 1382.59 257.961C1382.1 258.461 1381.5 258.711 1380.78 258.711ZM1398.88 287.68C1396.63 287.68 1394.65 287.164 1392.95 286.133C1391.26 285.102 1389.94 283.641 1388.99 281.75C1388.05 279.844 1387.58 277.602 1387.58 275.023V274.977C1387.58 272.383 1388.05 270.148 1388.99 268.273C1389.94 266.383 1391.26 264.93 1392.95 263.914C1394.65 262.883 1396.62 262.367 1398.85 262.367C1401.1 262.367 1403.07 262.883 1404.76 263.914C1406.46 264.93 1407.78 266.383 1408.72 268.273C1409.67 270.148 1410.15 272.383 1410.15 274.977V275.023C1410.15 277.617 1409.67 279.859 1408.72 281.75C1407.78 283.641 1406.47 285.102 1404.78 286.133C1403.1 287.164 1401.13 287.68 1398.88 287.68ZM1398.9 284.07C1400.34 284.07 1401.58 283.719 1402.63 283.016C1403.69 282.297 1404.51 281.266 1405.09 279.922C1405.68 278.562 1405.98 276.93 1405.98 275.023V274.977C1405.98 273.07 1405.68 271.445 1405.09 270.102C1404.51 268.758 1403.68 267.734 1402.6 267.031C1401.54 266.328 1400.29 265.977 1398.85 265.977C1397.45 265.977 1396.2 266.336 1395.13 267.055C1394.06 267.758 1393.24 268.781 1392.64 270.125C1392.05 271.453 1391.75 273.07 1391.75 274.977V275.023C1391.75 276.93 1392.05 278.562 1392.64 279.922C1393.24 281.266 1394.06 282.297 1395.13 283.016C1396.2 283.719 1397.46 284.07 1398.9 284.07ZM1414.68 287.211V262.836H1418.75V266.961H1418.85C1419.25 265.555 1419.96 264.438 1420.96 263.609C1421.96 262.781 1423.14 262.367 1424.52 262.367C1424.88 262.367 1425.2 262.391 1425.48 262.438C1425.78 262.469 1426 262.5 1426.16 262.531V266.492C1426 266.43 1425.72 266.375 1425.32 266.328C1424.93 266.281 1424.48 266.258 1423.98 266.258C1422.93 266.258 1422.01 266.492 1421.21 266.961C1420.43 267.43 1419.82 268.109 1419.39 269C1418.96 269.875 1418.75 270.93 1418.75 272.164V287.211H1414.68ZM1430.15 287.211V262.836H1434.22V287.211H1430.15ZM1432.18 258.711C1431.48 258.711 1430.88 258.461 1430.38 257.961C1429.88 257.461 1429.63 256.859 1429.63 256.156C1429.63 255.438 1429.88 254.836 1430.38 254.352C1430.88 253.852 1431.48 253.602 1432.18 253.602C1432.9 253.602 1433.5 253.852 1433.99 254.352C1434.49 254.836 1434.74 255.438 1434.74 256.156C1434.74 256.859 1434.49 257.461 1433.99 257.961C1433.5 258.461 1432.9 258.711 1432.18 258.711ZM1448.1 287.68C1445.87 287.68 1444.19 287.148 1443.08 286.086C1441.98 285.023 1441.42 283.328 1441.42 281V266.211H1437.86V262.836H1441.42V256.25H1445.64V262.836H1450.28V266.211H1445.64V280.977C1445.64 282.273 1445.92 283.156 1446.48 283.625C1447.05 284.078 1447.87 284.305 1448.97 284.305C1449.22 284.305 1449.45 284.297 1449.67 284.281C1449.9 284.25 1450.11 284.227 1450.28 284.211V287.516C1450.03 287.547 1449.7 287.578 1449.3 287.609C1448.9 287.656 1448.51 287.68 1448.1 287.68ZM1455.32 287.211V262.836H1459.4V287.211H1455.32ZM1457.36 258.711C1456.66 258.711 1456.05 258.461 1455.55 257.961C1455.05 257.461 1454.8 256.859 1454.8 256.156C1454.8 255.438 1455.05 254.836 1455.55 254.352C1456.05 253.852 1456.66 253.602 1457.36 253.602C1458.08 253.602 1458.68 253.852 1459.16 254.352C1459.66 254.836 1459.91 255.438 1459.91 256.156C1459.91 256.859 1459.66 257.461 1459.16 257.961C1458.68 258.461 1458.08 258.711 1457.36 258.711ZM1474 287.68C1472.1 287.68 1470.45 287.375 1469.06 286.766C1467.67 286.156 1466.56 285.305 1465.75 284.211C1464.95 283.117 1464.47 281.844 1464.3 280.391L1464.27 280.18H1468.35L1468.4 280.414C1468.65 281.633 1469.24 282.586 1470.16 283.273C1471.08 283.945 1472.37 284.281 1474.02 284.281C1475.13 284.281 1476.08 284.141 1476.86 283.859C1477.64 283.562 1478.24 283.148 1478.67 282.617C1479.09 282.07 1479.3 281.43 1479.3 280.695V280.672C1479.3 279.797 1479.03 279.094 1478.5 278.562C1477.97 278.031 1477.01 277.594 1475.62 277.25L1471.75 276.312C1470.22 275.938 1468.95 275.453 1467.93 274.859C1466.93 274.25 1466.18 273.508 1465.68 272.633C1465.18 271.758 1464.93 270.734 1464.93 269.562V269.539C1464.93 268.133 1465.31 266.891 1466.06 265.812C1466.82 264.734 1467.88 263.891 1469.22 263.281C1470.58 262.672 1472.13 262.367 1473.88 262.367C1475.67 262.367 1477.21 262.688 1478.52 263.328C1479.85 263.953 1480.89 264.812 1481.64 265.906C1482.41 266.984 1482.84 268.203 1482.93 269.562L1482.95 269.867H1479.06L1479.04 269.703C1478.88 268.516 1478.36 267.562 1477.47 266.844C1476.6 266.125 1475.4 265.766 1473.88 265.766C1472.9 265.766 1472.05 265.914 1471.33 266.211C1470.61 266.508 1470.06 266.93 1469.67 267.477C1469.29 268.008 1469.1 268.633 1469.1 269.352V269.375C1469.1 269.922 1469.23 270.422 1469.48 270.875C1469.74 271.312 1470.16 271.695 1470.72 272.023C1471.28 272.352 1472.01 272.625 1472.9 272.844L1476.77 273.781C1479.24 274.375 1480.97 275.195 1481.97 276.242C1482.97 277.273 1483.47 278.656 1483.47 280.391V280.414C1483.47 281.836 1483.06 283.094 1482.23 284.188C1481.42 285.281 1480.29 286.141 1478.85 286.766C1477.43 287.375 1475.81 287.68 1474 287.68ZM1498.14 287.68C1495.82 287.68 1493.81 287.164 1492.12 286.133C1490.45 285.102 1489.16 283.648 1488.25 281.773C1487.36 279.883 1486.92 277.664 1486.92 275.117V275.094C1486.92 272.578 1487.37 270.367 1488.28 268.461C1489.18 266.539 1490.46 265.047 1492.1 263.984C1493.74 262.906 1495.67 262.367 1497.89 262.367C1500.1 262.367 1502.01 262.883 1503.6 263.914C1505.21 264.93 1506.45 266.359 1507.31 268.203C1508.17 270.047 1508.6 272.188 1508.6 274.625V276.125H1488.96V272.938H1506.58L1504.52 275.891V274.32C1504.52 272.43 1504.23 270.867 1503.65 269.633C1503.09 268.398 1502.31 267.484 1501.31 266.891C1500.31 266.281 1499.16 265.977 1497.86 265.977C1496.57 265.977 1495.4 266.297 1494.37 266.938C1493.34 267.562 1492.53 268.5 1491.93 269.75C1491.34 270.984 1491.04 272.508 1491.04 274.32V275.891C1491.04 277.609 1491.33 279.078 1491.91 280.297C1492.5 281.516 1493.34 282.453 1494.42 283.109C1495.5 283.75 1496.77 284.07 1498.24 284.07C1499.27 284.07 1500.19 283.914 1501 283.602C1501.82 283.289 1502.5 282.859 1503.04 282.312C1503.59 281.766 1503.98 281.141 1504.21 280.438L1504.28 280.227H1508.29L1508.25 280.461C1508.04 281.461 1507.65 282.398 1507.07 283.273C1506.51 284.148 1505.78 284.922 1504.89 285.594C1504 286.25 1502.99 286.766 1501.85 287.141C1500.71 287.5 1499.47 287.68 1498.14 287.68ZM1522.29 287.68C1520.21 287.68 1518.39 287.164 1516.82 286.133C1515.28 285.086 1514.07 283.617 1513.22 281.727C1512.36 279.82 1511.93 277.586 1511.93 275.023V275C1511.93 272.438 1512.36 270.211 1513.22 268.32C1514.09 266.43 1515.3 264.969 1516.85 263.938C1518.4 262.891 1520.18 262.367 1522.22 262.367C1523.37 262.367 1524.44 262.555 1525.43 262.93C1526.43 263.289 1527.32 263.812 1528.1 264.5C1528.88 265.172 1529.52 265.977 1530.02 266.914H1530.11V253.391H1534.19V287.211H1530.11V283.086H1530.02C1529.52 284.039 1528.89 284.859 1528.12 285.547C1527.36 286.219 1526.48 286.742 1525.5 287.117C1524.53 287.492 1523.46 287.68 1522.29 287.68ZM1523.08 284.07C1524.46 284.07 1525.68 283.695 1526.74 282.945C1527.8 282.195 1528.63 281.141 1529.22 279.781C1529.83 278.422 1530.14 276.836 1530.14 275.023V275C1530.14 273.188 1529.83 271.609 1529.22 270.266C1528.61 268.906 1527.78 267.852 1526.72 267.102C1525.67 266.352 1524.46 265.977 1523.08 265.977C1521.65 265.977 1520.4 266.344 1519.36 267.078C1518.31 267.812 1517.5 268.852 1516.94 270.195C1516.38 271.539 1516.1 273.141 1516.1 275V275.023C1516.1 276.883 1516.38 278.492 1516.94 279.852C1517.5 281.211 1518.31 282.258 1519.36 282.992C1520.4 283.711 1521.65 284.07 1523.08 284.07ZM1288.57 343.68C1287.41 343.68 1286.34 343.492 1285.36 343.117C1284.38 342.742 1283.5 342.219 1282.73 341.547C1281.98 340.859 1281.35 340.039 1280.84 339.086H1280.74V343.211H1276.66V309.391H1280.74V322.914H1280.84C1281.35 321.977 1281.99 321.172 1282.76 320.5C1283.54 319.812 1284.43 319.289 1285.43 318.93C1286.43 318.555 1287.5 318.367 1288.64 318.367C1290.69 318.367 1292.48 318.891 1294.01 319.938C1295.55 320.969 1296.76 322.43 1297.62 324.32C1298.49 326.211 1298.93 328.438 1298.93 331V331.023C1298.93 333.586 1298.5 335.82 1297.64 337.727C1296.78 339.617 1295.57 341.086 1294.01 342.133C1292.46 343.164 1290.65 343.68 1288.57 343.68ZM1287.77 340.07C1289.21 340.07 1290.45 339.711 1291.5 338.992C1292.55 338.258 1293.35 337.211 1293.91 335.852C1294.48 334.492 1294.76 332.883 1294.76 331.023V331C1294.76 329.141 1294.48 327.539 1293.91 326.195C1293.35 324.852 1292.55 323.812 1291.5 323.078C1290.45 322.344 1289.21 321.977 1287.77 321.977C1286.4 321.977 1285.18 322.352 1284.12 323.102C1283.07 323.852 1282.24 324.906 1281.63 326.266C1281.02 327.609 1280.72 329.188 1280.72 331V331.023C1280.72 332.836 1281.02 334.422 1281.61 335.781C1282.22 337.141 1283.05 338.195 1284.12 338.945C1285.18 339.695 1286.4 340.07 1287.77 340.07ZM1304.84 351.414C1304.45 351.414 1304.05 351.391 1303.64 351.344C1303.25 351.312 1302.92 351.273 1302.66 351.227V347.898C1302.83 347.93 1303.02 347.961 1303.24 347.992C1303.48 348.023 1303.72 348.039 1303.97 348.039C1305.27 348.039 1306.3 347.812 1307.06 347.359C1307.85 346.906 1308.48 345.992 1308.96 344.617L1309.45 343.234L1300.41 318.836H1304.77L1311.8 340.07L1310.93 339.133H1312.15L1311.28 340.07L1318.34 318.836H1322.63L1313.11 344.734C1312.53 346.281 1311.88 347.547 1311.17 348.531C1310.45 349.516 1309.58 350.242 1308.56 350.711C1307.55 351.18 1306.31 351.414 1304.84 351.414ZM1336.74 343.211V318.836H1340.82V343.211H1336.74ZM1338.78 314.711C1338.08 314.711 1337.47 314.461 1336.97 313.961C1336.47 313.461 1336.22 312.859 1336.22 312.156C1336.22 311.438 1336.47 310.836 1336.97 310.352C1337.47 309.852 1338.08 309.602 1338.78 309.602C1339.5 309.602 1340.1 309.852 1340.58 310.352C1341.08 310.836 1341.33 311.438 1341.33 312.156C1341.33 312.859 1341.08 313.461 1340.58 313.961C1340.1 314.461 1339.5 314.711 1338.78 314.711ZM1346.77 343.211V318.836H1350.85V322.398H1350.94C1351.49 321.195 1352.35 320.227 1353.52 319.492C1354.69 318.742 1356.06 318.367 1357.62 318.367C1358.73 318.367 1359.73 318.555 1360.62 318.93C1361.53 319.289 1362.31 319.82 1362.97 320.523C1363.62 321.211 1364.12 322.055 1364.47 323.055H1364.56C1365.01 322.07 1365.62 321.234 1366.37 320.547C1367.13 319.844 1368.01 319.305 1368.99 318.93C1369.99 318.555 1371.06 318.367 1372.2 318.367C1373.81 318.367 1375.21 318.703 1376.4 319.375C1377.58 320.031 1378.51 320.961 1379.16 322.164C1379.82 323.352 1380.15 324.758 1380.15 326.383V343.211H1376.07V327.32C1376.07 326.195 1375.87 325.234 1375.46 324.438C1375.07 323.641 1374.5 323.031 1373.75 322.609C1373 322.188 1372.08 321.977 1371.01 321.977C1369.93 321.977 1368.97 322.227 1368.15 322.727C1367.32 323.211 1366.67 323.891 1366.2 324.766C1365.73 325.625 1365.5 326.609 1365.5 327.719V343.211H1361.42V326.875C1361.42 325.891 1361.21 325.031 1360.79 324.297C1360.38 323.562 1359.8 322.992 1359.05 322.586C1358.32 322.18 1357.44 321.977 1356.43 321.977C1355.35 321.977 1354.39 322.242 1353.55 322.773C1352.72 323.289 1352.06 323.992 1351.58 324.883C1351.09 325.773 1350.85 326.789 1350.85 327.93V343.211H1346.77ZM1385.75 351.414V318.836H1389.83V322.961H1389.92C1390.44 322.008 1391.07 321.195 1391.82 320.523C1392.59 319.836 1393.46 319.305 1394.45 318.93C1395.43 318.555 1396.5 318.367 1397.66 318.367C1399.73 318.367 1401.55 318.891 1403.09 319.938C1404.66 320.969 1405.87 322.438 1406.73 324.344C1407.59 326.234 1408.02 328.461 1408.02 331.023V331.047C1408.02 333.609 1407.58 335.836 1406.7 337.727C1405.84 339.617 1404.64 341.086 1403.09 342.133C1401.56 343.164 1399.77 343.68 1397.73 343.68C1396.59 343.68 1395.52 343.5 1394.52 343.141C1393.52 342.766 1392.62 342.242 1391.84 341.57C1391.08 340.883 1390.44 340.07 1389.92 339.133H1389.83V351.414H1385.75ZM1396.86 340.07C1398.3 340.07 1399.54 339.703 1400.59 338.969C1401.63 338.234 1402.44 337.195 1403 335.852C1403.56 334.492 1403.84 332.891 1403.84 331.047V331.023C1403.84 329.148 1403.56 327.539 1403 326.195C1402.44 324.836 1401.63 323.797 1400.59 323.078C1399.54 322.344 1398.3 321.977 1396.86 321.977C1395.48 321.977 1394.27 322.352 1393.2 323.102C1392.14 323.852 1391.3 324.906 1390.7 326.266C1390.1 327.609 1389.8 329.195 1389.8 331.023V331.047C1389.8 332.859 1390.11 334.445 1390.72 335.805C1391.33 337.148 1392.16 338.195 1393.2 338.945C1394.27 339.695 1395.48 340.07 1396.86 340.07ZM1419.67 343.68C1418.06 343.68 1416.64 343.375 1415.42 342.766C1414.2 342.156 1413.25 341.297 1412.56 340.188C1411.89 339.078 1411.56 337.789 1411.56 336.32V336.273C1411.56 334.883 1411.9 333.68 1412.59 332.664C1413.29 331.648 1414.3 330.844 1415.61 330.25C1416.94 329.656 1418.53 329.305 1420.39 329.195L1429.42 328.68V331.844L1420.86 332.359C1419.24 332.453 1417.97 332.844 1417.06 333.531C1416.17 334.219 1415.73 335.133 1415.73 336.273V336.32C1415.73 337.492 1416.17 338.422 1417.04 339.109C1417.93 339.797 1419.11 340.141 1420.58 340.141C1421.86 340.141 1423.01 339.875 1424.02 339.344C1425.06 338.797 1425.87 338.055 1426.46 337.117C1427.07 336.18 1427.38 335.125 1427.38 333.953V326.758C1427.38 325.273 1426.91 324.109 1425.97 323.266C1425.05 322.406 1423.74 321.977 1422.03 321.977C1420.47 321.977 1419.2 322.32 1418.24 323.008C1417.28 323.68 1416.69 324.562 1416.45 325.656L1416.41 325.867H1412.47L1412.49 325.609C1412.62 324.266 1413.07 323.047 1413.85 321.953C1414.65 320.859 1415.74 319.992 1417.13 319.352C1418.52 318.695 1420.17 318.367 1422.08 318.367C1424 318.367 1425.66 318.695 1427.05 319.352C1428.45 320.008 1429.54 320.938 1430.31 322.141C1431.07 323.328 1431.45 324.734 1431.45 326.359V343.211H1427.38V339.25H1427.28C1426.81 340.141 1426.19 340.922 1425.41 341.594C1424.63 342.25 1423.74 342.766 1422.76 343.141C1421.79 343.5 1420.76 343.68 1419.67 343.68ZM1447.14 343.68C1444.84 343.68 1442.84 343.164 1441.14 342.133C1439.45 341.086 1438.14 339.617 1437.22 337.727C1436.3 335.82 1435.84 333.578 1435.84 331V330.977C1435.84 328.414 1436.31 326.188 1437.25 324.297C1438.18 322.406 1439.5 320.945 1441.18 319.914C1442.87 318.883 1444.84 318.367 1447.09 318.367C1449.12 318.367 1450.86 318.766 1452.32 319.562C1453.77 320.344 1454.91 321.359 1455.74 322.609C1456.58 323.859 1457.09 325.18 1457.26 326.57L1457.28 326.758H1453.3L1453.25 326.57C1452.96 325.352 1452.3 324.281 1451.28 323.359C1450.28 322.438 1448.89 321.977 1447.09 321.977C1445.68 321.977 1444.45 322.352 1443.39 323.102C1442.32 323.836 1441.5 324.883 1440.9 326.242C1440.31 327.586 1440.01 329.18 1440.01 331.023V331.047C1440.01 332.938 1440.31 334.555 1440.9 335.898C1441.51 337.242 1442.35 338.273 1443.41 338.992C1444.49 339.711 1445.73 340.07 1447.14 340.07C1448.81 340.07 1450.16 339.648 1451.19 338.805C1452.24 337.945 1452.93 336.836 1453.28 335.477L1453.32 335.289H1457.33L1457.31 335.453C1457.09 337 1456.52 338.398 1455.6 339.648C1454.69 340.883 1453.51 341.867 1452.06 342.602C1450.62 343.32 1448.98 343.68 1447.14 343.68ZM1469.4 343.68C1467.17 343.68 1465.5 343.148 1464.39 342.086C1463.28 341.023 1462.72 339.328 1462.72 337V322.211H1459.16V318.836H1462.72V312.25H1466.94V318.836H1471.58V322.211H1466.94V336.977C1466.94 338.273 1467.22 339.156 1467.79 339.625C1468.35 340.078 1469.18 340.305 1470.27 340.305C1470.52 340.305 1470.75 340.297 1470.97 340.281C1471.21 340.25 1471.41 340.227 1471.58 340.211V343.516C1471.33 343.547 1471 343.578 1470.6 343.609C1470.21 343.656 1469.81 343.68 1469.4 343.68Z" fill="black"/>
<path opacity="0.6" d="M1735.35 599.199V565.379H1755.88V569.176H1739.57V580.801H1754.54V584.551H1739.57V599.199H1735.35ZM1760.73 599.199V574.824H1764.81V599.199H1760.73ZM1762.77 570.699C1762.07 570.699 1761.47 570.449 1760.97 569.949C1760.47 569.449 1760.22 568.848 1760.22 568.145C1760.22 567.426 1760.47 566.824 1760.97 566.34C1761.47 565.84 1762.07 565.59 1762.77 565.59C1763.49 565.59 1764.09 565.84 1764.58 566.34C1765.08 566.824 1765.33 567.426 1765.33 568.145C1765.33 568.848 1765.08 569.449 1764.58 569.949C1764.09 570.449 1763.49 570.699 1762.77 570.699ZM1781.08 607.871C1779.08 607.871 1777.33 607.582 1775.83 607.004C1774.34 606.441 1773.14 605.668 1772.22 604.684C1771.31 603.715 1770.73 602.629 1770.46 601.426L1770.41 601.215H1774.52L1774.61 601.426C1775 602.301 1775.75 602.988 1776.86 603.488C1777.98 604.004 1779.38 604.262 1781.03 604.262C1783.17 604.262 1784.83 603.707 1786 602.598C1787.17 601.504 1787.76 600.012 1787.76 598.121V595.004H1787.66C1787.18 595.91 1786.55 596.691 1785.79 597.348C1785.02 598.004 1784.14 598.52 1783.14 598.895C1782.16 599.254 1781.08 599.434 1779.91 599.434C1777.86 599.434 1776.05 598.918 1774.49 597.887C1772.95 596.84 1771.73 595.379 1770.86 593.504C1770 591.613 1769.57 589.402 1769.57 586.871V586.848C1769.57 584.316 1770.01 582.121 1770.88 580.262C1771.77 578.387 1773 576.934 1774.56 575.902C1776.13 574.871 1777.94 574.355 1780 574.355C1781.16 574.355 1782.22 574.551 1783.19 574.941C1784.16 575.332 1785.02 575.871 1785.77 576.559C1786.53 577.246 1787.16 578.043 1787.66 578.949H1787.76V574.824H1791.84V598.52C1791.84 600.41 1791.4 602.051 1790.52 603.441C1789.65 604.848 1788.41 605.934 1786.8 606.699C1785.19 607.48 1783.28 607.871 1781.08 607.871ZM1780.8 595.824C1782.19 595.824 1783.4 595.457 1784.43 594.723C1785.48 593.973 1786.29 592.926 1786.87 591.582C1787.46 590.238 1787.76 588.668 1787.76 586.871V586.848C1787.76 585.051 1787.46 583.488 1786.87 582.16C1786.29 580.832 1785.48 579.801 1784.43 579.066C1783.38 578.332 1782.17 577.965 1780.8 577.965C1779.36 577.965 1778.11 578.332 1777.05 579.066C1775.98 579.785 1775.16 580.809 1774.59 582.137C1774.02 583.465 1773.74 585.035 1773.74 586.848V586.871C1773.74 588.715 1774.02 590.309 1774.59 591.652C1775.16 592.98 1775.98 594.012 1777.05 594.746C1778.11 595.465 1779.36 595.824 1780.8 595.824ZM1797.51 599.199V574.824H1801.59V578.387H1801.68C1802.23 577.184 1803.09 576.215 1804.26 575.48C1805.43 574.73 1806.8 574.355 1808.36 574.355C1809.47 574.355 1810.47 574.543 1811.36 574.918C1812.27 575.277 1813.05 575.809 1813.7 576.512C1814.36 577.199 1814.86 578.043 1815.2 579.043H1815.3C1815.75 578.059 1816.35 577.223 1817.1 576.535C1817.87 575.832 1818.74 575.293 1819.73 574.918C1820.73 574.543 1821.8 574.355 1822.94 574.355C1824.55 574.355 1825.95 574.691 1827.13 575.363C1828.32 576.02 1829.24 576.949 1829.9 578.152C1830.56 579.34 1830.88 580.746 1830.88 582.371V599.199H1826.81V583.309C1826.81 582.184 1826.6 581.223 1826.2 580.426C1825.81 579.629 1825.24 579.02 1824.49 578.598C1823.74 578.176 1822.82 577.965 1821.74 577.965C1820.67 577.965 1819.71 578.215 1818.88 578.715C1818.06 579.199 1817.41 579.879 1816.94 580.754C1816.47 581.613 1816.24 582.598 1816.24 583.707V599.199H1812.16V582.863C1812.16 581.879 1811.95 581.02 1811.53 580.285C1811.12 579.551 1810.54 578.98 1809.79 578.574C1809.06 578.168 1808.18 577.965 1807.17 577.965C1806.09 577.965 1805.13 578.23 1804.28 578.762C1803.45 579.277 1802.8 579.98 1802.31 580.871C1801.83 581.762 1801.59 582.777 1801.59 583.918V599.199H1797.51ZM1843.61 599.668C1842 599.668 1840.59 599.363 1839.37 598.754C1838.15 598.145 1837.2 597.285 1836.51 596.176C1835.84 595.066 1835.5 593.777 1835.5 592.309V592.262C1835.5 590.871 1835.85 589.668 1836.53 588.652C1837.24 587.637 1838.25 586.832 1839.56 586.238C1840.89 585.645 1842.48 585.293 1844.34 585.184L1853.36 584.668V587.832L1844.81 588.348C1843.18 588.441 1841.92 588.832 1841.01 589.52C1840.12 590.207 1839.68 591.121 1839.68 592.262V592.309C1839.68 593.48 1840.11 594.41 1840.99 595.098C1841.88 595.785 1843.06 596.129 1844.53 596.129C1845.81 596.129 1846.96 595.863 1847.97 595.332C1849 594.785 1849.82 594.043 1850.41 593.105C1851.02 592.168 1851.32 591.113 1851.32 589.941V582.746C1851.32 581.262 1850.85 580.098 1849.92 579.254C1849 578.395 1847.68 577.965 1845.98 577.965C1844.42 577.965 1843.15 578.309 1842.18 578.996C1841.23 579.668 1840.64 580.551 1840.4 581.645L1840.35 581.855H1836.42L1836.44 581.598C1836.57 580.254 1837.02 579.035 1837.8 577.941C1838.6 576.848 1839.69 575.98 1841.08 575.34C1842.47 574.684 1844.12 574.355 1846.03 574.355C1847.95 574.355 1849.6 574.684 1851 575.34C1852.4 575.996 1853.49 576.926 1854.25 578.129C1855.02 579.316 1855.4 580.723 1855.4 582.348V599.199H1851.32V595.238H1851.23C1850.76 596.129 1850.14 596.91 1849.35 597.582C1848.57 598.238 1847.69 598.754 1846.71 599.129C1845.74 599.488 1844.71 599.668 1843.61 599.668ZM1859.34 605.832L1861.4 594.371H1865.67L1862.25 605.832H1859.34ZM1887.52 599.668C1885.28 599.668 1883.61 599.137 1882.5 598.074C1881.39 597.012 1880.84 595.316 1880.84 592.988V578.199H1877.27V574.824H1880.84V568.238H1885.05V574.824H1889.7V578.199H1885.05V592.965C1885.05 594.262 1885.34 595.145 1885.9 595.613C1886.46 596.066 1887.29 596.293 1888.38 596.293C1888.63 596.293 1888.87 596.285 1889.09 596.27C1889.32 596.238 1889.52 596.215 1889.7 596.199V599.504C1889.45 599.535 1889.12 599.566 1888.71 599.598C1888.32 599.645 1887.92 599.668 1887.52 599.668ZM1894.69 599.199V565.379H1898.77V578.715H1898.86C1899.52 577.34 1900.49 576.27 1901.79 575.504C1903.09 574.738 1904.64 574.355 1906.45 574.355C1908.19 574.355 1909.7 574.777 1911 575.621C1912.31 576.449 1913.34 577.605 1914.07 579.09C1914.81 580.574 1915.17 582.301 1915.17 584.27V599.199H1911.1V584.973C1911.1 582.77 1910.56 581.051 1909.5 579.816C1908.44 578.582 1906.95 577.965 1905.05 577.965C1903.8 577.965 1902.7 578.262 1901.74 578.855C1900.81 579.449 1900.07 580.27 1899.54 581.316C1899.03 582.363 1898.77 583.582 1898.77 584.973V599.199H1894.69ZM1930.78 599.668C1928.46 599.668 1926.45 599.152 1924.76 598.121C1923.09 597.09 1921.8 595.637 1920.89 593.762C1920 591.871 1919.56 589.652 1919.56 587.105V587.082C1919.56 584.566 1920.01 582.355 1920.92 580.449C1921.82 578.527 1923.1 577.035 1924.74 575.973C1926.38 574.895 1928.31 574.355 1930.53 574.355C1932.75 574.355 1934.65 574.871 1936.25 575.902C1937.85 576.918 1939.09 578.348 1939.95 580.191C1940.81 582.035 1941.24 584.176 1941.24 586.613V588.113H1921.6V584.926H1939.22L1937.16 587.879V586.309C1937.16 584.418 1936.87 582.855 1936.29 581.621C1935.73 580.387 1934.95 579.473 1933.95 578.879C1932.95 578.27 1931.8 577.965 1930.5 577.965C1929.21 577.965 1928.04 578.285 1927.01 578.926C1925.98 579.551 1925.17 580.488 1924.57 581.738C1923.98 582.973 1923.68 584.496 1923.68 586.309V587.879C1923.68 589.598 1923.97 591.066 1924.55 592.285C1925.14 593.504 1925.98 594.441 1927.06 595.098C1928.14 595.738 1929.41 596.059 1930.88 596.059C1931.91 596.059 1932.83 595.902 1933.64 595.59C1934.46 595.277 1935.14 594.848 1935.68 594.301C1936.23 593.754 1936.62 593.129 1936.85 592.426L1936.93 592.215H1940.93L1940.89 592.449C1940.68 593.449 1940.29 594.387 1939.71 595.262C1939.15 596.137 1938.43 596.91 1937.53 597.582C1936.64 598.238 1935.63 598.754 1934.49 599.129C1933.35 599.488 1932.11 599.668 1930.78 599.668ZM1945.76 599.199V574.824H1949.84V578.293H1949.93C1950.59 577.152 1951.54 576.215 1952.79 575.48C1954.04 574.73 1955.59 574.355 1957.43 574.355C1960.11 574.355 1962.18 575.168 1963.65 576.793C1965.13 578.402 1965.87 580.598 1965.87 583.379V599.199H1961.79V584.105C1961.79 582.121 1961.33 580.605 1960.39 579.559C1959.47 578.496 1958.07 577.965 1956.19 577.965C1954.91 577.965 1953.79 578.254 1952.84 578.832C1951.89 579.395 1951.15 580.191 1950.61 581.223C1950.1 582.254 1949.84 583.465 1949.84 584.855V599.199H1945.76ZM1744.82 655.668C1742.52 655.668 1740.52 655.152 1738.82 654.121C1737.13 653.074 1735.83 651.605 1734.9 649.715C1733.98 647.809 1733.52 645.566 1733.52 642.988V642.965C1733.52 640.402 1733.99 638.176 1734.93 636.285C1735.86 634.395 1737.18 632.934 1738.86 631.902C1740.55 630.871 1742.52 630.355 1744.77 630.355C1746.8 630.355 1748.54 630.754 1750 631.551C1751.45 632.332 1752.59 633.348 1753.42 634.598C1754.26 635.848 1754.77 637.168 1754.94 638.559L1754.97 638.746H1750.98L1750.93 638.559C1750.64 637.34 1749.98 636.27 1748.97 635.348C1747.97 634.426 1746.57 633.965 1744.77 633.965C1743.36 633.965 1742.13 634.34 1741.07 635.09C1740 635.824 1739.18 636.871 1738.58 638.23C1737.99 639.574 1737.69 641.168 1737.69 643.012V643.035C1737.69 644.926 1737.99 646.543 1738.58 647.887C1739.19 649.23 1740.03 650.262 1741.09 650.98C1742.17 651.699 1743.41 652.059 1744.82 652.059C1746.49 652.059 1747.84 651.637 1748.87 650.793C1749.92 649.934 1750.61 648.824 1750.96 647.465L1751 647.277H1755.01L1754.99 647.441C1754.77 648.988 1754.2 650.387 1753.28 651.637C1752.37 652.871 1751.19 653.855 1749.74 654.59C1748.3 655.309 1746.66 655.668 1744.82 655.668ZM1769.26 655.668C1767.01 655.668 1765.04 655.152 1763.33 654.121C1761.65 653.09 1760.33 651.629 1759.37 649.738C1758.44 647.832 1757.97 645.59 1757.97 643.012V642.965C1757.97 640.371 1758.44 638.137 1759.37 636.262C1760.33 634.371 1761.65 632.918 1763.33 631.902C1765.04 630.871 1767.01 630.355 1769.24 630.355C1771.49 630.355 1773.46 630.871 1775.15 631.902C1776.85 632.918 1778.17 634.371 1779.11 636.262C1780.06 638.137 1780.54 640.371 1780.54 642.965V643.012C1780.54 645.605 1780.06 647.848 1779.11 649.738C1778.17 651.629 1776.86 653.09 1775.17 654.121C1773.48 655.152 1771.51 655.668 1769.26 655.668ZM1769.29 652.059C1770.73 652.059 1771.97 651.707 1773.01 651.004C1774.08 650.285 1774.9 649.254 1775.48 647.91C1776.07 646.551 1776.37 644.918 1776.37 643.012V642.965C1776.37 641.059 1776.07 639.434 1775.48 638.09C1774.9 636.746 1774.07 635.723 1772.99 635.02C1771.93 634.316 1770.68 633.965 1769.24 633.965C1767.83 633.965 1766.59 634.324 1765.51 635.043C1764.45 635.746 1763.62 636.77 1763.03 638.113C1762.44 639.441 1762.14 641.059 1762.14 642.965V643.012C1762.14 644.918 1762.44 646.551 1763.03 647.91C1763.62 649.254 1764.45 650.285 1765.51 651.004C1766.59 651.707 1767.85 652.059 1769.29 652.059ZM1794.23 655.668C1792.15 655.668 1790.33 655.152 1788.77 654.121C1787.22 653.074 1786.02 651.605 1785.16 649.715C1784.3 647.809 1783.87 645.574 1783.87 643.012V642.988C1783.87 640.426 1784.3 638.199 1785.16 636.309C1786.03 634.418 1787.24 632.957 1788.79 631.926C1790.34 630.879 1792.13 630.355 1794.16 630.355C1795.31 630.355 1796.38 630.543 1797.37 630.918C1798.37 631.277 1799.26 631.801 1800.04 632.488C1800.82 633.16 1801.46 633.965 1801.96 634.902H1802.05V621.379H1806.13V655.199H1802.05V651.074H1801.96C1801.46 652.027 1800.83 652.848 1800.06 653.535C1799.3 654.207 1798.42 654.73 1797.44 655.105C1796.47 655.48 1795.4 655.668 1794.23 655.668ZM1795.02 652.059C1796.4 652.059 1797.62 651.684 1798.68 650.934C1799.74 650.184 1800.57 649.129 1801.16 647.77C1801.77 646.41 1802.08 644.824 1802.08 643.012V642.988C1802.08 641.176 1801.77 639.598 1801.16 638.254C1800.55 636.895 1799.72 635.84 1798.66 635.09C1797.61 634.34 1796.4 633.965 1795.02 633.965C1793.59 633.965 1792.34 634.332 1791.3 635.066C1790.25 635.801 1789.45 636.84 1788.88 638.184C1788.32 639.527 1788.04 641.129 1788.04 642.988V643.012C1788.04 644.871 1788.32 646.48 1788.88 647.84C1789.45 649.199 1790.25 650.246 1791.3 650.98C1792.34 651.699 1793.59 652.059 1795.02 652.059ZM1822.07 655.668C1819.74 655.668 1817.74 655.152 1816.05 654.121C1814.38 653.09 1813.09 651.637 1812.18 649.762C1811.29 647.871 1810.85 645.652 1810.85 643.105V643.082C1810.85 640.566 1811.3 638.355 1812.2 636.449C1813.11 634.527 1814.38 633.035 1816.03 631.973C1817.67 630.895 1819.6 630.355 1821.81 630.355C1824.03 630.355 1825.94 630.871 1827.53 631.902C1829.14 632.918 1830.38 634.348 1831.24 636.191C1832.1 638.035 1832.53 640.176 1832.53 642.613V644.113H1812.88V640.926H1830.51L1828.45 643.879V642.309C1828.45 640.418 1828.16 638.855 1827.58 637.621C1827.02 636.387 1826.24 635.473 1825.24 634.879C1824.24 634.27 1823.09 633.965 1821.79 633.965C1820.49 633.965 1819.33 634.285 1818.3 634.926C1817.27 635.551 1816.45 636.488 1815.86 637.738C1815.27 638.973 1814.97 640.496 1814.97 642.309V643.879C1814.97 645.598 1815.26 647.066 1815.84 648.285C1816.43 649.504 1817.27 650.441 1818.35 651.098C1819.42 651.738 1820.7 652.059 1822.17 652.059C1823.2 652.059 1824.12 651.902 1824.93 651.59C1825.74 651.277 1826.42 650.848 1826.97 650.301C1827.52 649.754 1827.91 649.129 1828.14 648.426L1828.21 648.215H1832.22L1832.17 648.449C1831.97 649.449 1831.58 650.387 1831 651.262C1830.44 652.137 1829.71 652.91 1828.82 653.582C1827.93 654.238 1826.92 654.754 1825.78 655.129C1824.63 655.488 1823.4 655.668 1822.07 655.668ZM1852.12 655.199L1845.3 630.824H1849.36L1854.23 650.652H1854.33L1859.83 630.824H1863.77L1869.3 650.652H1869.4L1874.27 630.824H1878.3L1871.5 655.199H1867.36L1861.85 636.332H1861.75L1856.27 655.199H1852.12ZM1882.31 655.199V630.824H1886.39V655.199H1882.31ZM1884.35 626.699C1883.65 626.699 1883.05 626.449 1882.55 625.949C1882.05 625.449 1881.8 624.848 1881.8 624.145C1881.8 623.426 1882.05 622.824 1882.55 622.34C1883.05 621.84 1883.65 621.59 1884.35 621.59C1885.07 621.59 1885.67 621.84 1886.15 622.34C1886.65 622.824 1886.9 623.426 1886.9 624.145C1886.9 624.848 1886.65 625.449 1886.15 625.949C1885.67 626.449 1885.07 626.699 1884.35 626.699ZM1900.27 655.668C1898.03 655.668 1896.36 655.137 1895.25 654.074C1894.14 653.012 1893.59 651.316 1893.59 648.988V634.199H1890.02V630.824H1893.59V624.238H1897.8V630.824H1902.45V634.199H1897.8V648.965C1897.8 650.262 1898.09 651.145 1898.65 651.613C1899.21 652.066 1900.04 652.293 1901.13 652.293C1901.38 652.293 1901.62 652.285 1901.84 652.27C1902.07 652.238 1902.27 652.215 1902.45 652.199V655.504C1902.2 655.535 1901.87 655.566 1901.46 655.598C1901.07 655.645 1900.67 655.668 1900.27 655.668ZM1907.44 655.199V621.379H1911.52V634.715H1911.61C1912.27 633.34 1913.24 632.27 1914.54 631.504C1915.84 630.738 1917.39 630.355 1919.2 630.355C1920.94 630.355 1922.45 630.777 1923.75 631.621C1925.06 632.449 1926.09 633.605 1926.82 635.09C1927.56 636.574 1927.92 638.301 1927.92 640.27V655.199H1923.85V640.973C1923.85 638.77 1923.31 637.051 1922.25 635.816C1921.19 634.582 1919.7 633.965 1917.8 633.965C1916.55 633.965 1915.45 634.262 1914.49 634.855C1913.56 635.449 1912.82 636.27 1912.29 637.316C1911.78 638.363 1911.52 639.582 1911.52 640.973V655.199H1907.44ZM1941.68 655.199L1954.27 621.379H1957.39V626.441H1956.31L1946.11 655.199H1941.68ZM1947.45 645.52L1948.86 641.934H1963.86L1965.26 645.52H1947.45ZM1966.58 655.199L1956.4 626.441V621.379H1958.44L1971 655.199H1966.58ZM1975.3 655.199V621.379H1979.51V655.199H1975.3Z" fill="black"/>
<path opacity="0.6" d="M1284.4 933.977C1282.49 933.977 1280.85 933.672 1279.46 933.062C1278.06 932.453 1276.96 931.602 1276.15 930.508C1275.35 929.414 1274.87 928.141 1274.7 926.688L1274.67 926.477H1278.75L1278.8 926.711C1279.05 927.93 1279.63 928.883 1280.56 929.57C1281.48 930.242 1282.77 930.578 1284.42 930.578C1285.53 930.578 1286.48 930.438 1287.26 930.156C1288.04 929.859 1288.64 929.445 1289.06 928.914C1289.49 928.367 1289.7 927.727 1289.7 926.992V926.969C1289.7 926.094 1289.43 925.391 1288.9 924.859C1288.37 924.328 1287.41 923.891 1286.02 923.547L1282.15 922.609C1280.62 922.234 1279.35 921.75 1278.33 921.156C1277.33 920.547 1276.58 919.805 1276.08 918.93C1275.58 918.055 1275.33 917.031 1275.33 915.859V915.836C1275.33 914.43 1275.71 913.188 1276.46 912.109C1277.22 911.031 1278.28 910.188 1279.62 909.578C1280.98 908.969 1282.53 908.664 1284.28 908.664C1286.06 908.664 1287.61 908.984 1288.92 909.625C1290.25 910.25 1291.29 911.109 1292.04 912.203C1292.81 913.281 1293.24 914.5 1293.33 915.859L1293.35 916.164H1289.46L1289.44 916C1289.28 914.812 1288.76 913.859 1287.87 913.141C1286.99 912.422 1285.8 912.062 1284.28 912.062C1283.3 912.062 1282.45 912.211 1281.73 912.508C1281.01 912.805 1280.46 913.227 1280.06 913.773C1279.69 914.305 1279.5 914.93 1279.5 915.648V915.672C1279.5 916.219 1279.63 916.719 1279.88 917.172C1280.14 917.609 1280.56 917.992 1281.12 918.32C1281.68 918.648 1282.41 918.922 1283.3 919.141L1287.17 920.078C1289.63 920.672 1291.37 921.492 1292.37 922.539C1293.37 923.57 1293.87 924.953 1293.87 926.688V926.711C1293.87 928.133 1293.46 929.391 1292.63 930.484C1291.81 931.578 1290.69 932.438 1289.25 933.062C1287.83 933.672 1286.21 933.977 1284.4 933.977ZM1298.77 933.508V909.133H1302.85V933.508H1298.77ZM1300.81 905.008C1300.11 905.008 1299.5 904.758 1299 904.258C1298.5 903.758 1298.25 903.156 1298.25 902.453C1298.25 901.734 1298.5 901.133 1299 900.648C1299.5 900.148 1300.11 899.898 1300.81 899.898C1301.53 899.898 1302.13 900.148 1302.61 900.648C1303.11 901.133 1303.36 901.734 1303.36 902.453C1303.36 903.156 1303.11 903.758 1302.61 904.258C1302.13 904.758 1301.53 905.008 1300.81 905.008ZM1308.8 933.508V909.133H1312.88V912.695H1312.97C1313.52 911.492 1314.38 910.523 1315.55 909.789C1316.72 909.039 1318.09 908.664 1319.65 908.664C1320.76 908.664 1321.76 908.852 1322.65 909.227C1323.56 909.586 1324.34 910.117 1325 910.82C1325.65 911.508 1326.15 912.352 1326.5 913.352H1326.59C1327.04 912.367 1327.65 911.531 1328.4 910.844C1329.16 910.141 1330.04 909.602 1331.02 909.227C1332.02 908.852 1333.09 908.664 1334.23 908.664C1335.84 908.664 1337.24 909 1338.43 909.672C1339.61 910.328 1340.54 911.258 1341.19 912.461C1341.85 913.648 1342.18 915.055 1342.18 916.68V933.508H1338.1V917.617C1338.1 916.492 1337.9 915.531 1337.49 914.734C1337.1 913.938 1336.53 913.328 1335.78 912.906C1335.03 912.484 1334.11 912.273 1333.04 912.273C1331.96 912.273 1331.01 912.523 1330.18 913.023C1329.35 913.508 1328.7 914.188 1328.23 915.062C1327.76 915.922 1327.53 916.906 1327.53 918.016V933.508H1323.45V917.172C1323.45 916.188 1323.24 915.328 1322.82 914.594C1322.41 913.859 1321.83 913.289 1321.08 912.883C1320.35 912.477 1319.47 912.273 1318.46 912.273C1317.38 912.273 1316.42 912.539 1315.58 913.07C1314.75 913.586 1314.09 914.289 1313.61 915.18C1313.12 916.07 1312.88 917.086 1312.88 918.227V933.508H1308.8ZM1356.1 933.977C1354.32 933.977 1352.8 933.609 1351.53 932.875C1350.28 932.141 1349.32 931.102 1348.65 929.758C1347.99 928.398 1347.66 926.797 1347.66 924.953V909.133H1351.74V924.227C1351.74 926.211 1352.2 927.734 1353.12 928.797C1354.06 929.844 1355.47 930.367 1357.34 930.367C1358.31 930.367 1359.18 930.203 1359.94 929.875C1360.73 929.547 1361.4 929.086 1361.96 928.492C1362.52 927.883 1362.95 927.156 1363.25 926.312C1363.55 925.453 1363.69 924.508 1363.69 923.477V909.133H1367.77V933.508H1363.69V930.039H1363.6C1363.16 930.789 1362.59 931.461 1361.89 932.055C1361.2 932.648 1360.37 933.117 1359.41 933.461C1358.44 933.805 1357.33 933.977 1356.1 933.977ZM1373.7 933.508V899.688H1377.78V933.508H1373.7ZM1390.81 933.977C1389.21 933.977 1387.79 933.672 1386.57 933.062C1385.35 932.453 1384.4 931.594 1383.71 930.484C1383.04 929.375 1382.71 928.086 1382.71 926.617V926.57C1382.71 925.18 1383.05 923.977 1383.74 922.961C1384.44 921.945 1385.45 921.141 1386.76 920.547C1388.09 919.953 1389.68 919.602 1391.54 919.492L1400.56 918.977V922.141L1392.01 922.656C1390.38 922.75 1389.12 923.141 1388.21 923.828C1387.32 924.516 1386.88 925.43 1386.88 926.57V926.617C1386.88 927.789 1387.31 928.719 1388.19 929.406C1389.08 930.094 1390.26 930.438 1391.73 930.438C1393.01 930.438 1394.16 930.172 1395.17 929.641C1396.21 929.094 1397.02 928.352 1397.61 927.414C1398.22 926.477 1398.53 925.422 1398.53 924.25V917.055C1398.53 915.57 1398.06 914.406 1397.12 913.562C1396.2 912.703 1394.88 912.273 1393.18 912.273C1391.62 912.273 1390.35 912.617 1389.38 913.305C1388.43 913.977 1387.84 914.859 1387.6 915.953L1387.56 916.164H1383.62L1383.64 915.906C1383.77 914.562 1384.22 913.344 1385 912.25C1385.8 911.156 1386.89 910.289 1388.28 909.648C1389.67 908.992 1391.32 908.664 1393.23 908.664C1395.15 908.664 1396.81 908.992 1398.2 909.648C1399.6 910.305 1400.69 911.234 1401.46 912.438C1402.22 913.625 1402.6 915.031 1402.6 916.656V933.508H1398.53V929.547H1398.43C1397.96 930.438 1397.34 931.219 1396.56 931.891C1395.78 932.547 1394.89 933.062 1393.91 933.438C1392.94 933.797 1391.91 933.977 1390.81 933.977ZM1416.11 933.977C1413.87 933.977 1412.2 933.445 1411.09 932.383C1409.98 931.32 1409.43 929.625 1409.43 927.297V912.508H1405.86V909.133H1409.43V902.547H1413.64V909.133H1418.28V912.508H1413.64V927.273C1413.64 928.57 1413.93 929.453 1414.49 929.922C1415.05 930.375 1415.88 930.602 1416.97 930.602C1417.22 930.602 1417.46 930.594 1417.68 930.578C1417.91 930.547 1418.11 930.523 1418.28 930.508V933.812C1418.03 933.844 1417.71 933.875 1417.3 933.906C1416.91 933.953 1416.51 933.977 1416.11 933.977ZM1432.47 933.977C1430.22 933.977 1428.24 933.461 1426.54 932.43C1424.85 931.398 1423.53 929.938 1422.58 928.047C1421.64 926.141 1421.17 923.898 1421.17 921.32V921.273C1421.17 918.68 1421.64 916.445 1422.58 914.57C1423.53 912.68 1424.85 911.227 1426.54 910.211C1428.24 909.18 1430.21 908.664 1432.44 908.664C1434.69 908.664 1436.66 909.18 1438.35 910.211C1440.05 911.227 1441.37 912.68 1442.31 914.57C1443.26 916.445 1443.74 918.68 1443.74 921.273V921.32C1443.74 923.914 1443.26 926.156 1442.31 928.047C1441.37 929.938 1440.06 931.398 1438.37 932.43C1436.68 933.461 1434.72 933.977 1432.47 933.977ZM1432.49 930.367C1433.93 930.367 1435.17 930.016 1436.22 929.312C1437.28 928.594 1438.1 927.562 1438.68 926.219C1439.27 924.859 1439.57 923.227 1439.57 921.32V921.273C1439.57 919.367 1439.27 917.742 1438.68 916.398C1438.1 915.055 1437.27 914.031 1436.19 913.328C1435.13 912.625 1433.88 912.273 1432.44 912.273C1431.04 912.273 1429.79 912.633 1428.72 913.352C1427.65 914.055 1426.83 915.078 1426.23 916.422C1425.64 917.75 1425.34 919.367 1425.34 921.273V921.32C1425.34 923.227 1425.64 924.859 1426.23 926.219C1426.83 927.562 1427.65 928.594 1428.72 929.312C1429.79 930.016 1431.05 930.367 1432.49 930.367ZM1448.26 933.508V909.133H1452.34V913.258H1452.44C1452.84 911.852 1453.55 910.734 1454.55 909.906C1455.55 909.078 1456.73 908.664 1458.11 908.664C1458.47 908.664 1458.79 908.688 1459.07 908.734C1459.37 908.766 1459.59 908.797 1459.75 908.828V912.789C1459.59 912.727 1459.31 912.672 1458.91 912.625C1458.51 912.578 1458.07 912.555 1457.57 912.555C1456.52 912.555 1455.6 912.789 1454.8 913.258C1454.02 913.727 1453.41 914.406 1452.98 915.297C1452.55 916.172 1452.34 917.227 1452.34 918.461V933.508H1448.26ZM1473.7 921.695V917.898H1497.49V921.695H1473.7ZM1483.68 931.398V908.195H1487.48V931.398H1483.68ZM1275.75 989.508V965.133H1279.83V969.258H1279.92C1280.33 967.852 1281.03 966.734 1282.03 965.906C1283.03 965.078 1284.22 964.664 1285.6 964.664C1285.96 964.664 1286.28 964.688 1286.56 964.734C1286.85 964.766 1287.08 964.797 1287.24 964.828V968.789C1287.08 968.727 1286.8 968.672 1286.39 968.625C1286 968.578 1285.56 968.555 1285.06 968.555C1284.01 968.555 1283.09 968.789 1282.29 969.258C1281.51 969.727 1280.9 970.406 1280.46 971.297C1280.04 972.172 1279.83 973.227 1279.83 974.461V989.508H1275.75ZM1299.82 989.977C1297.5 989.977 1295.49 989.461 1293.8 988.43C1292.13 987.398 1290.84 985.945 1289.93 984.07C1289.04 982.18 1288.6 979.961 1288.6 977.414V977.391C1288.6 974.875 1289.05 972.664 1289.96 970.758C1290.86 968.836 1292.14 967.344 1293.78 966.281C1295.42 965.203 1297.35 964.664 1299.57 964.664C1301.78 964.664 1303.69 965.18 1305.28 966.211C1306.89 967.227 1308.13 968.656 1308.99 970.5C1309.85 972.344 1310.28 974.484 1310.28 976.922V978.422H1290.64V975.234H1308.26L1306.2 978.188V976.617C1306.2 974.727 1305.91 973.164 1305.33 971.93C1304.77 970.695 1303.99 969.781 1302.99 969.188C1301.99 968.578 1300.84 968.273 1299.54 968.273C1298.25 968.273 1297.08 968.594 1296.05 969.234C1295.02 969.859 1294.21 970.797 1293.61 972.047C1293.02 973.281 1292.72 974.805 1292.72 976.617V978.188C1292.72 979.906 1293.01 981.375 1293.59 982.594C1294.18 983.812 1295.02 984.75 1296.1 985.406C1297.18 986.047 1298.45 986.367 1299.92 986.367C1300.95 986.367 1301.87 986.211 1302.68 985.898C1303.5 985.586 1304.18 985.156 1304.72 984.609C1305.27 984.062 1305.66 983.438 1305.89 982.734L1305.96 982.523H1309.97L1309.93 982.758C1309.72 983.758 1309.33 984.695 1308.75 985.57C1308.19 986.445 1307.46 987.219 1306.57 987.891C1305.68 988.547 1304.67 989.062 1303.53 989.438C1302.39 989.797 1301.15 989.977 1299.82 989.977ZM1321.93 989.977C1320.32 989.977 1318.9 989.672 1317.68 989.062C1316.47 988.453 1315.51 987.594 1314.83 986.484C1314.15 985.375 1313.82 984.086 1313.82 982.617V982.57C1313.82 981.18 1314.16 979.977 1314.85 978.961C1315.55 977.945 1316.56 977.141 1317.87 976.547C1319.2 975.953 1320.79 975.602 1322.65 975.492L1331.68 974.977V978.141L1323.12 978.656C1321.5 978.75 1320.23 979.141 1319.33 979.828C1318.43 980.516 1317.99 981.43 1317.99 982.57V982.617C1317.99 983.789 1318.43 984.719 1319.3 985.406C1320.19 986.094 1321.37 986.438 1322.84 986.438C1324.12 986.438 1325.27 986.172 1326.29 985.641C1327.32 985.094 1328.13 984.352 1328.72 983.414C1329.33 982.477 1329.64 981.422 1329.64 980.25V973.055C1329.64 971.57 1329.17 970.406 1328.23 969.562C1327.31 968.703 1326 968.273 1324.29 968.273C1322.73 968.273 1321.47 968.617 1320.5 969.305C1319.54 969.977 1318.95 970.859 1318.72 971.953L1318.67 972.164H1314.73L1314.76 971.906C1314.88 970.562 1315.33 969.344 1316.11 968.25C1316.91 967.156 1318.01 966.289 1319.4 965.648C1320.79 964.992 1322.43 964.664 1324.34 964.664C1326.26 964.664 1327.92 964.992 1329.31 965.648C1330.72 966.305 1331.8 967.234 1332.57 968.438C1333.33 969.625 1333.72 971.031 1333.72 972.656V989.508H1329.64V985.547H1329.54C1329.08 986.438 1328.45 987.219 1327.67 987.891C1326.89 988.547 1326.01 989.062 1325.02 989.438C1324.05 989.797 1323.02 989.977 1321.93 989.977ZM1339.51 989.508V955.688H1343.58V989.508H1339.51ZM1359.74 989.508V965.133H1363.81V969.258H1363.91C1364.31 967.852 1365.02 966.734 1366.02 965.906C1367.02 965.078 1368.21 964.664 1369.58 964.664C1369.94 964.664 1370.26 964.688 1370.54 964.734C1370.84 964.766 1371.06 964.797 1371.22 964.828V968.789C1371.06 968.727 1370.78 968.672 1370.38 968.625C1369.99 968.578 1369.54 968.555 1369.04 968.555C1367.99 968.555 1367.07 968.789 1366.28 969.258C1365.49 969.727 1364.88 970.406 1364.45 971.297C1364.03 972.172 1363.81 973.227 1363.81 974.461V989.508H1359.74ZM1383.27 989.977C1381.49 989.977 1379.96 989.609 1378.7 988.875C1377.45 988.141 1376.49 987.102 1375.82 985.758C1375.16 984.398 1374.83 982.797 1374.83 980.953V965.133H1378.91V980.227C1378.91 982.211 1379.37 983.734 1380.29 984.797C1381.23 985.844 1382.64 986.367 1384.51 986.367C1385.48 986.367 1386.35 986.203 1387.11 985.875C1387.89 985.547 1388.57 985.086 1389.13 984.492C1389.69 983.883 1390.12 983.156 1390.42 982.312C1390.71 981.453 1390.86 980.508 1390.86 979.477V965.133H1394.94V989.508H1390.86V986.039H1390.77C1390.33 986.789 1389.76 987.461 1389.06 988.055C1388.37 988.648 1387.54 989.117 1386.57 989.461C1385.61 989.805 1384.5 989.977 1383.27 989.977ZM1400.66 989.508V965.133H1404.74V968.602H1404.83C1405.49 967.461 1406.44 966.523 1407.69 965.789C1408.94 965.039 1410.49 964.664 1412.33 964.664C1415.01 964.664 1417.08 965.477 1418.54 967.102C1420.03 968.711 1420.77 970.906 1420.77 973.688V989.508H1416.69V974.414C1416.69 972.43 1416.22 970.914 1415.29 969.867C1414.36 968.805 1412.97 968.273 1411.09 968.273C1409.81 968.273 1408.69 968.562 1407.74 969.141C1406.79 969.703 1406.04 970.5 1405.51 971.531C1405 972.562 1404.74 973.773 1404.74 975.164V989.508H1400.66ZM1435.02 989.977C1433.12 989.977 1431.47 989.672 1430.08 989.062C1428.69 988.453 1427.58 987.602 1426.77 986.508C1425.98 985.414 1425.49 984.141 1425.32 982.688L1425.3 982.477H1429.37L1429.42 982.711C1429.67 983.93 1430.26 984.883 1431.18 985.57C1432.1 986.242 1433.39 986.578 1435.05 986.578C1436.16 986.578 1437.1 986.438 1437.88 986.156C1438.66 985.859 1439.26 985.445 1439.69 984.914C1440.11 984.367 1440.32 983.727 1440.32 982.992V982.969C1440.32 982.094 1440.05 981.391 1439.52 980.859C1438.99 980.328 1438.03 979.891 1436.64 979.547L1432.77 978.609C1431.24 978.234 1429.97 977.75 1428.95 977.156C1427.95 976.547 1427.2 975.805 1426.7 974.93C1426.2 974.055 1425.95 973.031 1425.95 971.859V971.836C1425.95 970.43 1426.33 969.188 1427.08 968.109C1427.84 967.031 1428.9 966.188 1430.24 965.578C1431.6 964.969 1433.16 964.664 1434.91 964.664C1436.69 964.664 1438.23 964.984 1439.55 965.625C1440.87 966.25 1441.91 967.109 1442.66 968.203C1443.43 969.281 1443.86 970.5 1443.95 971.859L1443.98 972.164H1440.08L1440.06 972C1439.91 970.812 1439.38 969.859 1438.49 969.141C1437.62 968.422 1436.42 968.062 1434.91 968.062C1433.92 968.062 1433.07 968.211 1432.35 968.508C1431.63 968.805 1431.08 969.227 1430.69 969.773C1430.31 970.305 1430.12 970.93 1430.12 971.648V971.672C1430.12 972.219 1430.25 972.719 1430.5 973.172C1430.76 973.609 1431.18 973.992 1431.74 974.32C1432.3 974.648 1433.03 974.922 1433.92 975.141L1437.79 976.078C1440.26 976.672 1441.99 977.492 1442.99 978.539C1443.99 979.57 1444.49 980.953 1444.49 982.688V982.711C1444.49 984.133 1444.08 985.391 1443.25 986.484C1442.44 987.578 1441.31 988.438 1439.87 989.062C1438.45 989.672 1436.83 989.977 1435.02 989.977Z" fill="black"/>
<path opacity="0.6" d="M811.16 599.199V578.199H807.762V574.824H811.16V571.824C811.16 570.262 811.402 568.973 811.887 567.957C812.387 566.926 813.129 566.16 814.113 565.66C815.098 565.16 816.34 564.91 817.84 564.91C818.293 564.91 818.746 564.926 819.199 564.957C819.652 564.988 820.027 565.027 820.324 565.074V568.379C820.074 568.348 819.793 568.324 819.48 568.309C819.184 568.293 818.879 568.285 818.566 568.285C817.441 568.285 816.598 568.582 816.035 569.176C815.473 569.754 815.191 570.645 815.191 571.848V574.824H820.207V578.199H815.238V599.199H811.16ZM825.084 599.199V574.824H829.162V599.199H825.084ZM827.123 570.699C826.42 570.699 825.818 570.449 825.318 569.949C824.818 569.449 824.568 568.848 824.568 568.145C824.568 567.426 824.818 566.824 825.318 566.34C825.818 565.84 826.42 565.59 827.123 565.59C827.841 565.59 828.443 565.84 828.927 566.34C829.427 566.824 829.677 567.426 829.677 568.145C829.677 568.848 829.427 569.449 828.927 569.949C828.443 570.449 827.841 570.699 827.123 570.699ZM833.218 599.199L841.515 587.012L833.359 574.824H837.905L843.765 583.965H843.859L849.648 574.824H854.195L845.968 586.848L854.077 599.199H849.554L843.718 589.918H843.624L837.741 599.199H833.218ZM878.362 599.668C876.112 599.668 874.135 599.152 872.432 598.121C870.745 597.09 869.424 595.629 868.471 593.738C867.534 591.832 867.065 589.59 867.065 587.012V586.965C867.065 584.371 867.534 582.137 868.471 580.262C869.424 578.371 870.745 576.918 872.432 575.902C874.135 574.871 876.104 574.355 878.338 574.355C880.588 574.355 882.557 574.871 884.245 575.902C885.948 576.918 887.268 578.371 888.205 580.262C889.159 582.137 889.635 584.371 889.635 586.965V587.012C889.635 589.605 889.159 591.848 888.205 593.738C887.268 595.629 885.955 597.09 884.268 598.121C882.58 599.152 880.612 599.668 878.362 599.668ZM878.385 596.059C879.823 596.059 881.065 595.707 882.112 595.004C883.174 594.285 883.995 593.254 884.573 591.91C885.166 590.551 885.463 588.918 885.463 587.012V586.965C885.463 585.059 885.166 583.434 884.573 582.09C883.995 580.746 883.166 579.723 882.088 579.02C881.026 578.316 879.776 577.965 878.338 577.965C876.932 577.965 875.69 578.324 874.612 579.043C873.549 579.746 872.721 580.77 872.127 582.113C871.534 583.441 871.237 585.059 871.237 586.965V587.012C871.237 588.918 871.534 590.551 872.127 591.91C872.721 593.254 873.549 594.285 874.612 595.004C875.69 595.707 876.948 596.059 878.385 596.059ZM894.16 599.199V574.824H898.238V578.293H898.332C898.988 577.152 899.941 576.215 901.191 575.48C902.441 574.73 903.988 574.355 905.832 574.355C908.504 574.355 910.574 575.168 912.043 576.793C913.527 578.402 914.27 580.598 914.27 583.379V599.199H910.191V584.105C910.191 582.121 909.723 580.605 908.785 579.559C907.863 578.496 906.465 577.965 904.59 577.965C903.309 577.965 902.191 578.254 901.238 578.832C900.285 579.395 899.543 580.191 899.012 581.223C898.496 582.254 898.238 583.465 898.238 584.855V599.199H894.16ZM938.038 599.668C935.804 599.668 934.132 599.137 933.023 598.074C931.913 597.012 931.359 595.316 931.359 592.988V578.199H927.796V574.824H931.359V568.238H935.577V574.824H940.218V578.199H935.577V592.965C935.577 594.262 935.859 595.145 936.421 595.613C936.984 596.066 937.812 596.293 938.905 596.293C939.155 596.293 939.39 596.285 939.609 596.27C939.843 596.238 940.046 596.215 940.218 596.199V599.504C939.968 599.535 939.64 599.566 939.234 599.598C938.843 599.645 938.445 599.668 938.038 599.668ZM945.212 599.199V565.379H949.29V578.715H949.384C950.04 577.34 951.016 576.27 952.313 575.504C953.61 574.738 955.165 574.355 956.977 574.355C958.712 574.355 960.227 574.777 961.524 575.621C962.837 576.449 963.86 577.605 964.595 579.09C965.329 580.574 965.696 582.301 965.696 584.27V599.199H961.618V584.973C961.618 582.77 961.087 581.051 960.024 579.816C958.962 578.582 957.477 577.965 955.571 577.965C954.321 577.965 953.22 578.262 952.266 578.855C951.329 579.449 950.595 580.27 950.063 581.316C949.548 582.363 949.29 583.582 949.29 584.973V599.199H945.212ZM981.307 599.668C978.979 599.668 976.971 599.152 975.284 598.121C973.612 597.09 972.323 595.637 971.416 593.762C970.526 591.871 970.08 589.652 970.08 587.105V587.082C970.08 584.566 970.534 582.355 971.44 580.449C972.346 578.527 973.62 577.035 975.26 575.973C976.901 574.895 978.83 574.355 981.049 574.355C983.268 574.355 985.174 574.871 986.768 575.902C988.377 576.918 989.612 578.348 990.471 580.191C991.33 582.035 991.76 584.176 991.76 586.613V588.113H972.12V584.926H989.745L987.682 587.879V586.309C987.682 584.418 987.393 582.855 986.815 581.621C986.252 580.387 985.471 579.473 984.471 578.879C983.471 578.27 982.323 577.965 981.026 577.965C979.729 577.965 978.565 578.285 977.534 578.926C976.502 579.551 975.69 580.488 975.096 581.738C974.502 582.973 974.205 584.496 974.205 586.309V587.879C974.205 589.598 974.495 591.066 975.073 592.285C975.666 593.504 976.502 594.441 977.58 595.098C978.659 595.738 979.932 596.059 981.401 596.059C982.432 596.059 983.354 595.902 984.166 595.59C984.979 595.277 985.659 594.848 986.205 594.301C986.752 593.754 987.143 593.129 987.377 592.426L987.448 592.215H991.455L991.409 592.449C991.205 593.449 990.815 594.387 990.237 595.262C989.674 596.137 988.948 596.91 988.057 597.582C987.166 598.238 986.151 598.754 985.01 599.129C983.87 599.488 982.635 599.668 981.307 599.668ZM819.012 655.668C816.934 655.668 815.113 655.152 813.551 654.121C812.004 653.074 810.801 651.605 809.941 649.715C809.082 647.809 808.652 645.574 808.652 643.012V642.988C808.652 640.426 809.082 638.199 809.941 636.309C810.816 634.418 812.027 632.957 813.574 631.926C815.121 630.879 816.91 630.355 818.941 630.355C820.098 630.355 821.168 630.543 822.152 630.918C823.152 631.277 824.043 631.801 824.824 632.488C825.605 633.16 826.246 633.965 826.746 634.902H826.84V621.379H830.918V655.199H826.84V651.074H826.746C826.246 652.027 825.613 652.848 824.848 653.535C824.082 654.207 823.207 654.73 822.223 655.105C821.254 655.48 820.184 655.668 819.012 655.668ZM819.809 652.059C821.184 652.059 822.402 651.684 823.465 650.934C824.527 650.184 825.355 649.129 825.949 647.77C826.559 646.41 826.863 644.824 826.863 643.012V642.988C826.863 641.176 826.559 639.598 825.949 638.254C825.34 636.895 824.504 635.84 823.441 635.09C822.395 634.34 821.184 633.965 819.809 633.965C818.371 633.965 817.129 634.332 816.082 635.066C815.035 635.801 814.23 636.84 813.668 638.184C813.105 639.527 812.824 641.129 812.824 642.988V643.012C812.824 644.871 813.105 646.48 813.668 647.84C814.23 649.199 815.035 650.246 816.082 650.98C817.129 651.699 818.371 652.059 819.809 652.059ZM846.857 655.668C844.529 655.668 842.521 655.152 840.834 654.121C839.162 653.09 837.873 651.637 836.966 649.762C836.076 647.871 835.63 645.652 835.63 643.105V643.082C835.63 640.566 836.084 638.355 836.99 636.449C837.896 634.527 839.17 633.035 840.81 631.973C842.451 630.895 844.38 630.355 846.599 630.355C848.818 630.355 850.724 630.871 852.318 631.902C853.927 632.918 855.162 634.348 856.021 636.191C856.88 638.035 857.31 640.176 857.31 642.613V644.113H837.67V640.926H855.295L853.232 643.879V642.309C853.232 640.418 852.943 638.855 852.365 637.621C851.802 636.387 851.021 635.473 850.021 634.879C849.021 634.27 847.873 633.965 846.576 633.965C845.279 633.965 844.115 634.285 843.084 634.926C842.052 635.551 841.24 636.488 840.646 637.738C840.052 638.973 839.755 640.496 839.755 642.309V643.879C839.755 645.598 840.045 647.066 840.623 648.285C841.216 649.504 842.052 650.441 843.13 651.098C844.209 651.738 845.482 652.059 846.951 652.059C847.982 652.059 848.904 651.902 849.716 651.59C850.529 651.277 851.209 650.848 851.755 650.301C852.302 649.754 852.693 649.129 852.927 648.426L852.998 648.215H857.005L856.959 648.449C856.755 649.449 856.365 650.387 855.787 651.262C855.224 652.137 854.498 652.91 853.607 653.582C852.716 654.238 851.701 654.754 850.56 655.129C849.42 655.488 848.185 655.668 846.857 655.668ZM867.765 655.199L858.788 630.824H863.077L869.804 650.863H869.898L876.648 630.824H880.89L871.937 655.199H867.765ZM884.759 655.199V630.824H888.837V655.199H884.759ZM886.798 626.699C886.095 626.699 885.493 626.449 884.993 625.949C884.493 625.449 884.243 624.848 884.243 624.145C884.243 623.426 884.493 622.824 884.993 622.34C885.493 621.84 886.095 621.59 886.798 621.59C887.516 621.59 888.118 621.84 888.602 622.34C889.102 622.824 889.352 623.426 889.352 624.145C889.352 624.848 889.102 625.449 888.602 625.949C888.118 626.449 887.516 626.699 886.798 626.699ZM904.893 655.668C902.596 655.668 900.596 655.152 898.893 654.121C897.205 653.074 895.901 651.605 894.979 649.715C894.057 647.809 893.596 645.566 893.596 642.988V642.965C893.596 640.402 894.065 638.176 895.002 636.285C895.94 634.395 897.252 632.934 898.94 631.902C900.627 630.871 902.596 630.355 904.846 630.355C906.877 630.355 908.62 630.754 910.073 631.551C911.526 632.332 912.666 633.348 913.495 634.598C914.338 635.848 914.846 637.168 915.018 638.559L915.041 638.746H911.057L911.01 638.559C910.713 637.34 910.057 636.27 909.041 635.348C908.041 634.426 906.643 633.965 904.846 633.965C903.44 633.965 902.205 634.34 901.143 635.09C900.08 635.824 899.252 636.871 898.659 638.23C898.065 639.574 897.768 641.168 897.768 643.012V643.035C897.768 644.926 898.065 646.543 898.659 647.887C899.268 649.23 900.104 650.262 901.166 650.98C902.245 651.699 903.487 652.059 904.893 652.059C906.565 652.059 907.916 651.637 908.948 650.793C909.995 649.934 910.69 648.824 911.034 647.465L911.08 647.277H915.088L915.065 647.441C914.846 648.988 914.276 650.387 913.354 651.637C912.448 652.871 911.268 653.855 909.815 654.59C908.377 655.309 906.737 655.668 904.893 655.668ZM929.27 655.668C926.941 655.668 924.934 655.152 923.246 654.121C921.574 653.09 920.285 651.637 919.379 649.762C918.488 647.871 918.043 645.652 918.043 643.105V643.082C918.043 640.566 918.496 638.355 919.402 636.449C920.309 634.527 921.582 633.035 923.223 631.973C924.863 630.895 926.793 630.355 929.012 630.355C931.23 630.355 933.137 630.871 934.73 631.902C936.34 632.918 937.574 634.348 938.434 636.191C939.293 638.035 939.723 640.176 939.723 642.613V644.113H920.082V640.926H937.707L935.645 643.879V642.309C935.645 640.418 935.355 638.855 934.777 637.621C934.215 636.387 933.434 635.473 932.434 634.879C931.434 634.27 930.285 633.965 928.988 633.965C927.691 633.965 926.527 634.285 925.496 634.926C924.465 635.551 923.652 636.488 923.059 637.738C922.465 638.973 922.168 640.496 922.168 642.309V643.879C922.168 645.598 922.457 647.066 923.035 648.285C923.629 649.504 924.465 650.441 925.543 651.098C926.621 651.738 927.895 652.059 929.363 652.059C930.395 652.059 931.316 651.902 932.129 651.59C932.941 651.277 933.621 650.848 934.168 650.301C934.715 649.754 935.105 649.129 935.34 648.426L935.41 648.215H939.418L939.371 648.449C939.168 649.449 938.777 650.387 938.199 651.262C937.637 652.137 936.91 652.91 936.02 653.582C935.129 654.238 934.113 654.754 932.973 655.129C931.832 655.488 930.598 655.668 929.27 655.668Z" fill="black"/>
</svg>
